<svg width="100px" height="100px" viewBox="0 0 100 100" version="1.1" xmlns="http://www.w3.org/2000/svg" xmlns:xlink="http://www.w3.org/1999/xlink">
    <g id="Page-1" stroke="none" stroke-width="1" fill="none" fill-rule="evenodd">
        <path d="M50,0 C77.6142375,0 100,22.3857625 100,50 C100,77.6142375 77.6142375,100 50,100 C22.3857625,100 0,77.6142375 0,50 C0,22.3857625 22.3857625,0 50,0 Z M50.5,20 C47.4624339,20 45,22.4624339 45,25.5 L45,25.5 L45,45 L25.5,45 C22.4624339,45 20,47.4624339 20,50.5 C20,53.5375661 22.4624339,56 25.5,56 L25.5,56 L45,56 L45,75.5 C45,78.5375661 47.4624339,81 50.5,81 C53.5375661,81 56,78.5375661 56,75.5 L56,75.5 L56,56 L75.5,56 C78.5375661,56 81,53.5375661 81,50.5 C81,47.4624339 78.5375661,45 75.5,45 L75.5,45 L56,44.999 L56,25.5 C56,22.4624339 53.5375661,20 50.5,20 Z" id="Combined-Shape" fill="#000000" fill-rule="nonzero"></path>
    </g>
</svg>