<svg width="100pt" height="100pt" version="1.1" viewBox="0 0 100 100" xmlns="http://www.w3.org/2000/svg">
 <path d="m4.6875 13c-1.5352 0.16016-2.6953 1.457-2.6875 3v44c0 1.6562 1.3438 3 3 3h54.031l8.1875 20.125c0.46484 1.1289 1.5703 1.8672 2.793 1.8594 1.2227-0.007813 2.3164-0.75391 2.7695-1.8906l1.3125-3.2812 6.2812 6.2812c0.5625 0.56641 1.3281 0.88281 2.125 0.88281s1.5625-0.31641 2.125-0.88281l8.5-8.5c1.1562-1.168 1.1562-3.0508 0-4.2188l-6.2812-6.2812 3.2812-1.3125c1.1328-0.45703 1.875-1.5586 1.875-2.7812h3c1.6562 0 3-1.3438 3-3v-44c0-1.6562-1.3438-3-3-3h-90c-0.10547-0.003906-0.20703-0.003906-0.3125 0zm3.3125 6h84v38h-9.8125l-24.062-9.7812c-0.46484-0.19531-0.96875-0.26953-1.4688-0.21875-0.9375 0.10547-1.7695 0.64453-2.2461 1.4531-0.48047 0.8125-0.55078 1.8008-0.19141 2.6719l2.375 5.875h-48.594zm26.062 2.9375c-1.1992-0.015625-2.293 0.68359-2.7812 1.7812l-12 26c-0.36328 0.72656-0.42188 1.5664-0.15234 2.332 0.26562 0.76953 0.83203 1.3945 1.5664 1.7383 0.73438 0.33984 1.5781 0.37109 2.3359 0.082032 0.75781-0.28906 1.3672-0.875 1.6875-1.6211l12-26c0.44922-0.92188 0.39453-2.0117-0.14453-2.8867-0.53906-0.875-1.4844-1.4102-2.5117-1.4258zm10 0c-1.1992-0.015625-2.293 0.68359-2.7812 1.7812l-12 26c-0.36328 0.72656-0.42188 1.5664-0.15234 2.332 0.26562 0.76953 0.83203 1.3945 1.5664 1.7383 0.73438 0.33984 1.5781 0.37109 2.3359 0.082032 0.75781-0.28906 1.3672-0.875 1.6875-1.6211l12-26c0.44922-0.92188 0.39453-2.0117-0.14453-2.8867-0.53906-0.875-1.4844-1.4102-2.5117-1.4258zm-29.062 7.0625c-1.6562 0-3 1.3438-3 3s1.3438 3 3 3 3-1.3438 3-3-1.3438-3-3-3zm0 12c-1.6562 0-3 1.3438-3 3s1.3438 3 3 3 3-1.3438 3-3-1.3438-3-3-3zm47.469 14.469 18.5 7.5-0.59375 0.25c-0.93359 0.375-1.6172 1.1953-1.8203 2.1836-0.19922 0.98828 0.10547 2.0117 0.82031 2.7227l7.375 7.375-4.25 4.25-7.375-7.375c-0.71094-0.71484-1.7344-1.0195-2.7227-0.82031-0.98828 0.20312-1.8086 0.88672-2.1836 1.8203l-0.21875 0.59375z"/>
</svg>