<svg width="80px" height="80px" viewBox="0 0 80 80" version="1.1" xmlns="http://www.w3.org/2000/svg" xmlns:xlink="http://www.w3.org/1999/xlink">
    <g stroke="none" stroke-width="1" fill="none" fill-rule="evenodd">
        <g transform="translate(-1960.000000, -521.000000)" fill="#000000" fill-rule="nonzero">
            <g transform="translate(1960.000000, 521.000000)">
                <path d="M68.3,68.3 C75.54064,61.05936 80,51.044 80,40 C80,28.9592 75.54064,18.9408 68.3,11.7 C61.05936,4.4592 51.044,0 40,0 C28.9592,0 18.9408,4.45936 11.7,11.7 C4.4592,18.94064 0,28.956 0,40 C0,51.0408 4.45936,61.0592 11.7,68.3 C18.94064,75.5408 28.956,80 40,80 C51.0408,80 61.0592,75.54064 68.3,68.3 Z M40.00032,50.01872 C43.00032,50.01872 45.4128,52.43432 45.4128,55.4312 C45.4128,58.42808 42.9972,60.9156 40.00032,60.9156 C37.00344,60.9156 34.51592,58.42808 34.51592,55.4312 C34.51592,52.4312 37.00344,50.01872 40.00032,50.01872 Z M40.00032,19.08736 C42.77848,19.08736 45.77848,21.71864 45.4128,24.57176 L43.65656,40.87816 C43.437808,42.92504 41.97528,44.5344 40.00032,44.5344 C38.02528,44.5344 36.5628,42.92504 36.34408,40.87816 L34.51592,24.57176 C34.222168,21.71864 37.22216,19.08736 40.00032,19.08736 Z" id="Shape"></path>
            </g>
        </g>
    </g>
</svg>