<svg width="100pt" height="100pt" version="1.1" viewBox="0 0 100 100" xmlns="http://www.w3.org/2000/svg">
 <path d="m57.164 10.289-41.059 41.059c-8.9766 8.9766-8.9766 23.566 0 32.543 8.9766 8.9766 23.566 8.9766 32.543 0l37.188-37.188c6.3789-6.3789 6.3789-16.789 0-23.168-6.3789-6.3789-16.789-6.3789-23.168 0l-37.957 37.957c-3.7812 3.7812-3.7891 10.012-0.007813 13.793s10.016 3.7812 13.801 0l29.328-29.328-4.418-4.418-29.328 29.328c-1.4102 1.4102-3.5469 1.4141-4.957 0-1.4102-1.4102-1.4102-3.5469 0-4.957l37.957-37.957c4.0078-4.0078 10.324-4.0078 14.332 0 4.0078 4.0078 4.0078 10.324 0 14.332l-37.188 37.188c-6.6055 6.6055-17.102 6.6055-23.707 0-6.6055-6.6055-6.6055-17.102 0-23.707l41.059-41.059z"/>
</svg>