<svg width="100pt" height="100pt" version="1.1" viewBox="0 0 100 100" xmlns="http://www.w3.org/2000/svg">
 <path d="m80.703 47.906h-25.73l-27.105-0.007812 13.422-13.418c1.3555-1.3555 1.3555-3.5547 0-4.9062-1.3555-1.3594-3.5508-1.3594-4.9062 0l-19.344 19.344c-0.16406 0.16016-0.30859 0.33984-0.43359 0.52734-0.054688 0.078126-0.085938 0.16406-0.13672 0.24219-0.0625 0.11719-0.13281 0.23047-0.18359 0.35547-0.042968 0.10547-0.066406 0.21094-0.097656 0.3125-0.035156 0.11328-0.078125 0.22266-0.10156 0.33984-0.035157 0.17578-0.050782 0.35938-0.054688 0.53516 0 0.046875-0.015625 0.09375-0.015625 0.13672 0 0.054687 0.015625 0.10547 0.015625 0.16016 0.007812 0.17188 0.019531 0.34375 0.054688 0.51562 0.027343 0.125 0.070312 0.23828 0.10547 0.35938 0.027344 0.097656 0.050782 0.19531 0.09375 0.28516 0.054688 0.13672 0.12891 0.26172 0.19922 0.38672 0.039063 0.070312 0.070313 0.14453 0.11328 0.21484 0.13281 0.19141 0.27344 0.375 0.44141 0.53516l19.34 19.34c0.67578 0.67578 1.5664 1.0195 2.457 1.0195 0.88672 0 1.7734-0.33984 2.4531-1.0195 1.3555-1.3555 1.3555-3.5547 0-4.9062l-13.414-13.414h27.102v-0.019531h25.73c2.3398 0 4.2344-1.5508 4.2344-3.4609-0.003906-1.9102-1.9023-3.457-4.2383-3.457z"/>
</svg>