<svg width="100pt" height="100pt" version="1.1" viewBox="0 0 100 100" xmlns="http://www.w3.org/2000/svg">
 <g>
  <path d="m19 46.898c1 1 2.1992 1.3984 3.5 1.3984s2.5-0.5 3.5-1.3984c1.8984-1.8984 1.8984-5.1016 0-7l-6.6016-6.6016h36.898c2.6992 0 4.8984-2.1992 4.8984-4.8984 0-2.6992-2.1992-4.8984-4.8984-4.8984h-36.898l6.6016-6.6016c1.8984-1.8984 1.8984-5.1016 0-7-1.8984-1.8984-5.1016-1.8984-7 0l-15.102 14.902c-1.8984 1.8984-1.8984 5.1016 0 7z"/>
  <path d="m82.5 42.602c7.8984 0 14.301-6.3984 14.301-14.301 0-7.9023-6.4023-14.301-14.301-14.301s-14.301 6.3984-14.301 14.301c0 7.8984 6.5 14.301 14.301 14.301z"/>
  <path d="m96.102 68.199-15.102-15.098c-1.8984-1.8984-5.1016-1.8984-7 0-1.8984 1.8984-1.8984 5.1016 0 7l6.6016 6.6016-36.801-0.003906c-2.6992 0-4.8984 2.1992-4.8984 4.8984 0 2.6992 2.1992 4.8984 4.8984 4.8984h36.898l-6.6992 6.8047c-1.8984 1.8984-1.8984 5.1016 0 7 1 1 2.1992 1.3984 3.5 1.3984s2.5-0.5 3.5-1.3984l15.102-15.102c1.8984-1.8984 1.8984-5.0977 0-7z"/>
  <path d="m17.5 57.398c-7.8984 0-14.301 6.3984-14.301 14.301 0 7.9023 6.4023 14.301 14.301 14.301s14.301-6.3984 14.301-14.301c0-7.8984-6.5-14.301-14.301-14.301z"/>
 </g>
</svg>