<svg width="100pt" height="100pt" version="1.1" viewBox="0 0 100 100" xmlns="http://www.w3.org/2000/svg">
 <path d="m38 13c-1.1875 0.027344-2.2461 0.80859-2.6875 1.6562l-4.1875 8.3438h-15.125c-5.4883 0-10 4.5117-10 10v44c0 5.4883 4.5117 10 10 10h68c5.4883 0 10-4.5117 10-10v-44c0-5.4883-4.5117-10-10-10h-15.125l-4.1875-8.3438c-0.49609-0.99219-1.5781-1.6562-2.6875-1.6562zm1.875 6h20.25l4.1875 8.3438c0.49609 0.99219 1.5781 1.6562 2.6875 1.6562h17c2.2695 0 4 1.7305 4 4v44c0 2.2695-1.7305 4-4 4h-68c-2.2695 0-4-1.7305-4-4v-44c0-2.2695 1.7305-4 4-4h17c1.1094 0.003906 2.1914-0.66406 2.6875-1.6562zm10.125 15c-11.562 0-21 9.4375-21 21s9.4375 21 21 21 21-9.4375 21-21-9.4375-21-21-21zm0 6c8.3203 0 15 6.6797 15 15s-6.6797 15-15 15-15-6.6797-15-15 6.6797-15 15-15z"/>
</svg>