<svg width="100pt" height="100pt" version="1.1" viewBox="0 0 100 100" xmlns="http://www.w3.org/2000/svg">
 <path d="m55.938 50l16.98-16.98c1.668-1.668 1.668-4.2695 0-5.9375s-4.2695-1.668-5.9375 0l-16.98 16.98-16.98-16.875c-1.668-1.668-4.2695-1.668-5.9375 0s-1.668 4.2695 0 5.9375l16.98 16.875-16.875 16.98c-1.668 1.668-1.668 4.2695 0 5.9375 0.83203 0.83203 1.875 1.25 2.918 1.25s2.082-0.41797 2.918-1.25l16.977-16.98 16.98 16.98c0.83203 0.83203 1.875 1.25 2.918 1.25 1.043 0 2.082-0.41797 2.918-1.25 1.668-1.668 1.668-4.2695 0-5.9375z"/>
</svg>