<svg width="48px" height="48px" viewBox="0 0 48 48" version="1.1" xmlns="http://www.w3.org/2000/svg" xmlns:xlink="http://www.w3.org/1999/xlink">
    <!-- Generator: Sketch 61 (89581) - https://sketch.com -->
    <title>card</title>
    <desc>Created with Sketch.</desc>
    <g id="card" stroke="none" stroke-width="1" fill="none" fill-rule="evenodd">
        <g id="np_card_1758116_000000" transform="translate(3.000000, 8.000000)" fill="#000000" fill-rule="nonzero">
            <path d="M41.9914666,6.0067821 C41.9914666,2.69357361 39.3964668,0 36.2049839,0 L5.78648272,0 C2.59478651,0 0,2.69379507 0,6.0067821 L0,25.9932179 C0,29.3064264 2.59499985,32 5.78648272,32 L36.2049839,32 C39.3966801,32 42,29.3062049 42,25.9932179 L42,6.0067821 L41.9914666,6.0067821 Z M2.86363636,6.2366136 C2.86363636,4.35003832 4.08198922,2.82352941 5.57533014,2.82352941 L35.9938313,2.82352941 C37.4871722,2.82352941 38.7055251,4.35003832 38.7055251,6.2366136 L38.7055251,8.47058824 L2.86363636,8.47058824 L2.86363636,6.2366136 Z M36.3998882,28.6403248 L5.60870715,28.6403248 C4.09698537,28.6403248 2.86363636,27.3755875 2.86363636,25.8358015 L2.86363636,13.1764706 L39.1363636,13.1764706 L39.1363636,25.8358015 C39.1447565,27.385996 37.9114372,28.6403248 36.3997155,28.6403248 L36.3998882,28.6403248 Z" id="Shape"></path>
        </g>
    </g>
</svg>