<svg width="48px" height="48px" viewBox="0 0 48 48" version="1.1" xmlns="http://www.w3.org/2000/svg" xmlns:xlink="http://www.w3.org/1999/xlink">
    <!-- Generator: Sketch 61 (89581) - https://sketch.com -->
    <title>check-circle</title>
    <desc>Created with Sketch.</desc>
    <g id="check-circle" stroke="none" stroke-width="1" fill="none" fill-rule="evenodd">
        <g id="checkmark-circle" transform="translate(3.000000, 3.000000)" fill="#000000" fill-rule="nonzero">
            <path d="M20.9560669,0 C9.40167364,0 0,9.41151832 0,20.9780105 C0,32.5445026 9.40167364,42 21,42 C32.5543933,42 42,32.5884817 42,20.9780105 C41.9560669,9.41151832 32.5104603,0 20.9560669,0 Z M20.9560669,39.5811518 C10.7196653,39.5811518 2.37238494,31.2251309 2.37238494,20.9780105 C2.37238494,10.7308901 10.7196653,2.41884817 20.9560669,2.41884817 C31.1924686,2.41884817 39.539749,10.7748691 39.539749,21.0219895 C39.539749,31.2691099 31.1924686,39.5811518 20.9560669,39.5811518 Z" id="Shape"></path>
            <path d="M29.9770642,13.3267243 L17.5183486,26.2106882 L13.0229358,21.6061101 C12.5519878,21.1190874 11.824159,21.1190874 11.353211,21.6061101 C10.882263,22.0931327 10.882263,22.8458042 11.353211,23.3328269 L16.3623853,28.5129773 C16.6620795,28.8229008 17.0902141,29 17.5183486,29 C17.9464832,29 18.3318043,28.8229008 18.6743119,28.5129773 L31.646789,15.0977159 C32.117737,14.6106932 32.117737,13.8580218 31.646789,13.3709991 C31.175841,12.8839764 30.4051988,12.8839764 29.9770642,13.3267243 Z" id="Path"></path>
        </g>
    </g>
</svg>