<svg width="80px" height="80px" viewBox="0 0 80 80" version="1.1" xmlns="http://www.w3.org/2000/svg" xmlns:xlink="http://www.w3.org/1999/xlink">
    <g stroke="none" stroke-width="1" fill="none" fill-rule="evenodd">
        <g transform="translate(-2080.000000, -520.000000)" fill="#000000" fill-rule="nonzero">
            <g transform="translate(2080.000000, 520.000000)">
                <path d="M35.9152941,1.07350588 C25.8964706,2.00365176 16.6098824,6.71689412 9.94447059,14.2575059 C3.28272941,21.7979294 -0.254117647,31.5958588 0.0545882353,41.6504471 C0.367087059,51.7097412 4.49948235,61.2683294 11.6131765,68.3855059 C18.7308235,75.4994824 28.2898824,79.6316235 38.3482353,79.9440941 C48.4037647,80.2529129 58.2014118,76.7161412 65.7411765,70.0542118 C73.2816,63.3888 77.9952941,54.1022118 78.9251765,44.0833882 C79.9693176,32.3883294 75.7744,20.8297412 67.4729412,12.5248 C59.1678118,4.22334118 47.6094118,0.0288 35.9143529,1.07256471 L35.9152941,1.07350588 Z M60.7905882,31.5591529 L37.3637647,54.7393882 C35.9041882,56.1621647 33.5733647,56.1621647 32.1137882,54.7393882 L18.3048471,41.5516235 C16.8048,40.1104941 16.7534118,37.7244235 18.1982306,36.2207059 C19.63936,34.7206588 22.0254306,34.6692706 23.5291482,36.1140894 L34.6726776,46.8049129 L55.5291482,26.2016188 C57.0180894,24.8045365 59.3490071,24.8450071 60.7864659,26.3008847 C62.2202541,27.75312 62.2350306,30.0876141 60.8195539,31.5582024 L60.7905882,31.5591529 Z" id="Shape"></path>
            </g>
        </g>
    </g>
</svg>