<svg width="48px" height="48px" viewBox="0 0 48 48" version="1.1" xmlns="http://www.w3.org/2000/svg" xmlns:xlink="http://www.w3.org/1999/xlink">
    <g id="coding" stroke="none" stroke-width="1" fill="none" fill-rule="evenodd">
        <g id="np_code_1570733_000000" transform="translate(2.000000, 10.000000)" fill="#000000" fill-rule="nonzero">
            <path d="M25.3534427,1.35029661 C24.610176,1.367941 23.9661696,1.86860148 23.765447,2.5854044 L16.9899985,25.1702326 C16.7209229,26.0656646 17.2326104,27.0096539 18.128048,27.2787521 C19.02348,27.5456258 19.9674693,27.0361403 20.2365676,26.1407026 L27.012016,3.55587447 C27.1774329,3.03315991 27.0803859,2.46192185 26.7517597,2.0252442 C26.4209259,1.58634194 25.9004246,1.33488246 25.3534201,1.35035307 L25.3534427,1.35029661 Z M11.2085333,1.31796667 L0.541866667,12.6513 C-0.174266667,13.4195 -0.174266667,14.6122333 0.541866667,15.3805 L11.2085333,26.7138333 C11.5627,27.1331067 12.0731333,27.3909 12.62,27.4247667 C13.16948,27.4586207 13.7059333,27.2633067 14.107,26.8883067 C14.5106467,26.5133067 14.7372067,25.98984 14.7424579,25.4403733 C14.745018,24.8908933 14.52106,24.36484 14.1252267,23.98464 L4.75056,14.0259733 L14.1252267,4.04664 C14.6903333,3.45289333 14.83616,2.57270667 14.4898133,1.82790667 C14.1460667,1.08310667 13.3830133,0.624773333 12.5627467,0.67164 C12.04444,0.703384 11.5600667,0.935153333 11.2085333,1.31796667 Z M31.1666667,0.672133333 C30.3958667,0.732029333 29.7292,1.22942667 29.4531333,1.9508 C29.1770933,2.67213333 29.3411533,3.48726667 29.8750067,4.04713333 L39.2496733,14.0264667 L29.8750067,23.9851333 C29.4791733,24.36534 29.2552133,24.8914 29.2577975,25.4408667 C29.263028,25.9903467 29.4895933,26.5138 29.8932333,26.8888 C30.2942733,27.2638 30.8307,27.4591133 31.3802333,27.42526 C31.9271067,27.391406 32.4375,27.1335933 32.7917,26.7143267 L43.4583667,15.3809933 C44.1745,14.6127933 44.1745,13.42006 43.4583667,12.6517933 L32.7917,1.31846 C32.37764,0.865333333 31.7787,0.628326667 31.1667,0.672626667 L31.1666667,0.672133333 Z" id="Shape"></path>
        </g>
    </g>
</svg>