<svg width="100pt" height="100pt" version="1.1" viewBox="0 0 100 100" xmlns="http://www.w3.org/2000/svg">
 <g>
  <path d="m77.363 37.469v6.3398 10.047 2.3242c0 1.5312 1.3477 3 2.9297 2.9297 1.5938-0.070313 2.9297-1.2891 2.9297-2.9297v-6.3398-10.047-2.3242c0-1.5312-1.3477-3-2.9297-2.9297-1.582 0.070313-2.9297 1.2891-2.9297 2.9297z"/>
  <path d="m70.461 49.758h6.3398 10.047 2.3242c1.5312 0 3-1.3477 2.9297-2.9297-0.070312-1.5938-1.2891-2.9297-2.9297-2.9297h-6.3398-10.047-2.3242c-1.5312 0-3 1.3477-2.9297 2.9297 0.078125 1.5898 1.2891 2.9297 2.9297 2.9297z"/>
  <path d="m61.887 28.457c0 0.85938-0.058594 1.7188-0.16406 2.5703 0.039063-0.26562 0.070313-0.51562 0.10938-0.78125-0.23438 1.6992-0.68359 3.3477-1.3477 4.9297 0.097656-0.23438 0.19531-0.46875 0.29297-0.70312-0.48828 1.1406-1.0859 2.2461-1.7773 3.2734-0.16406 0.24219-0.34375 0.48828-0.51562 0.73438-0.125 0.17578-0.46875 0.54688 0.14844-0.1875-0.10937 0.125-0.21484 0.26562-0.32031 0.39844-0.38281 0.46094-0.78125 0.89844-1.2031 1.3203-0.41797 0.42188-0.85938 0.82031-1.3203 1.2031-0.078124 0.070312-0.29297 0.3125-0.39844 0.32031 0.125-0.007812 0.64453-0.48828 0.1875-0.14844-0.24219 0.17578-0.48047 0.35156-0.73438 0.51562-1.0352 0.69531-2.1289 1.2891-3.2734 1.7773 0.23438-0.097657 0.46875-0.19531 0.70313-0.29297-1.582 0.66406-3.2344 1.1133-4.9297 1.3477 0.26562-0.039063 0.51562-0.070313 0.78125-0.10938-1.7109 0.22266-3.4375 0.22266-5.1484 0 0.26563 0.039062 0.51563 0.070312 0.78125 0.10938-1.6992-0.23438-3.3477-0.68359-4.9297-1.3477 0.23438 0.097656 0.46875 0.19531 0.70312 0.29297-1.1406-0.48828-2.2461-1.0859-3.2734-1.7773-0.24219-0.16406-0.48828-0.34375-0.73437-0.51562-0.17578-0.125-0.54688-0.46875 0.1875 0.14844-0.125-0.10938-0.26563-0.21484-0.39844-0.32031-0.46094-0.38281-0.89844-0.78125-1.3203-1.2031-0.42188-0.42188-0.82031-0.85938-1.2031-1.3203-0.070312-0.078125-0.3125-0.29297-0.32031-0.39844 0.007812 0.125 0.48828 0.64453 0.14844 0.1875-0.17578-0.24219-0.35156-0.48047-0.51563-0.73438-0.69531-1.0352-1.2891-2.1289-1.7773-3.2734 0.097656 0.23438 0.19531 0.46875 0.29297 0.70312-0.66406-1.582-1.1133-3.2344-1.3477-4.9297 0.039063 0.26562 0.070313 0.51562 0.10938 0.78125-0.22266-1.7109-0.22266-3.4375 0-5.1484-0.039062 0.26562-0.070312 0.51562-0.10938 0.78125 0.23438-1.6992 0.68359-3.3477 1.3477-4.9297-0.097657 0.23438-0.19531 0.46875-0.29297 0.70312 0.48828-1.1406 1.0859-2.2461 1.7773-3.2734 0.16406-0.24219 0.34375-0.48828 0.51563-0.73438 0.125-0.17578 0.46875-0.54688-0.14844 0.1875 0.10938-0.125 0.21484-0.26562 0.32031-0.39844 0.38281-0.46094 0.78125-0.89844 1.2031-1.3203 0.42187-0.42188 0.85937-0.82031 1.3203-1.2031 0.078125-0.070312 0.29297-0.3125 0.39844-0.32031-0.125 0.007812-0.64453 0.48828-0.1875 0.14844 0.24219-0.17578 0.48047-0.35156 0.73437-0.51562 1.0352-0.69531 2.1289-1.2891 3.2734-1.7773-0.23438 0.097657-0.46875 0.19531-0.70312 0.29297 1.582-0.66406 3.2344-1.1133 4.9297-1.3477-0.26562 0.039063-0.51562 0.070313-0.78125 0.10938 1.7109-0.22266 3.4375-0.22266 5.1484 0-0.26562-0.039062-0.51562-0.070312-0.78125-0.10938 1.6992 0.23438 3.3477 0.68359 4.9297 1.3477-0.23438-0.097656-0.46875-0.19531-0.70313-0.29297 1.1406 0.48828 2.2461 1.0859 3.2734 1.7773 0.24219 0.16406 0.48828 0.34375 0.73438 0.51562 0.17578 0.125 0.54688 0.46875-0.1875-0.14844 0.125 0.10938 0.26562 0.21484 0.39844 0.32031 0.46094 0.38281 0.89844 0.78125 1.3203 1.2031s0.82031 0.85938 1.2031 1.3203c0.070312 0.078125 0.3125 0.29297 0.32031 0.39844-0.007812-0.125-0.48828-0.64453-0.14844-0.1875 0.17578 0.24219 0.35156 0.48047 0.51562 0.73438 0.69531 1.0352 1.2891 2.1289 1.7773 3.2734-0.097656-0.23438-0.19531-0.46875-0.29297-0.70312 0.66406 1.582 1.1133 3.2344 1.3477 4.9297-0.039062-0.26562-0.070312-0.51562-0.10938-0.78125 0.10547 0.85938 0.16406 1.7188 0.16406 2.5781 0.007812 1.5312 1.3477 3 2.9297 2.9297 1.582-0.070313 2.9375-1.2891 2.9297-2.9297-0.019532-4.4844-1.3672-9.0234-3.9844-12.676-2.7148-3.7969-6.3984-6.6328-10.781-8.2422-8.5078-3.1328-18.68-0.37109-24.422 6.6406-3.0078 3.6719-4.7969 8.0391-5.1641 12.781-0.34375 4.4922 0.80078 9.1602 3.1523 13.008 2.2656 3.7188 5.6719 6.8555 9.6562 8.6328 2.2734 1.0156 4.5625 1.6406 7.0312 1.9336 2.2734 0.27344 4.5898 0.10938 6.8359-0.33203 8.7305-1.7266 15.977-9.1719 17.344-17.988 0.19531-1.2422 0.33203-2.4922 0.33203-3.75 0.007812-1.5312-1.3477-3-2.9297-2.9297-1.5938 0.070313-2.9219 1.2812-2.9297 2.9219z"/>
  <path d="m77.324 67.48v14.297c0 0.83984 0.039062 1.6992-0.058594 2.5391 0.039063-0.26562 0.070313-0.51562 0.10938-0.78125-0.085938 0.65625-0.25391 1.2812-0.49609 1.8945 0.097656-0.23438 0.19531-0.46875 0.29297-0.70313-0.1875 0.42969-0.39844 0.84766-0.65625 1.25-0.007813 0.019532-0.19531 0.32031-0.21484 0.3125 0.007813 0 0.53906-0.64453 0.1875-0.24219-0.15625 0.17578-0.30469 0.35156-0.46875 0.51562-0.14844 0.14844-0.30469 0.29297-0.46875 0.42969-0.20312 0.16406-0.52734 0.30469 0.19531-0.14844-0.10938 0.070312-0.20312 0.14844-0.3125 0.21484-0.39062 0.26562-0.8125 0.48047-1.25 0.65625 0.23438-0.097656 0.46875-0.19531 0.70312-0.29297-0.61719 0.24219-1.2422 0.41016-1.8945 0.49609 0.26562-0.039063 0.51562-0.070313 0.78125-0.10938-0.73438 0.085937-1.4844 0.058594-2.2266 0.058594h-3.8984-13.164-15.984-13.738c-2.1406 0-4.2891 0.007812-6.4258 0-0.33203 0-0.65625-0.019532-0.98438-0.058594 0.26563 0.039062 0.51563 0.070312 0.78125 0.10938-0.65625-0.085938-1.2812-0.25391-1.8945-0.49609 0.23438 0.097656 0.46875 0.19531 0.70312 0.29297-0.42969-0.1875-0.84766-0.39844-1.25-0.65625-0.019531-0.007813-0.32031-0.19531-0.3125-0.21484 0 0.007812 0.64453 0.53906 0.24219 0.1875-0.17578-0.15625-0.35156-0.30469-0.51562-0.46875-0.14844-0.14844-0.29297-0.30469-0.42969-0.46875-0.16406-0.20312-0.30469-0.52734 0.14844 0.19531-0.070313-0.10937-0.14844-0.20312-0.21484-0.3125-0.26562-0.39062-0.48047-0.8125-0.65625-1.25 0.097656 0.23438 0.19531 0.46875 0.29297 0.70313-0.24219-0.61719-0.41016-1.2422-0.49609-1.8945 0.039062 0.26562 0.070312 0.51562 0.10938 0.78125-0.097656-0.80078-0.058594-1.6094-0.058594-2.4141v-4.2656-9.0703c0-1.4141 0.03125-2.832 0.20312-4.25-0.039062 0.26562-0.070312 0.51562-0.10938 0.78125 0.28125-2.0781 0.83984-4.1211 1.6484-6.0547-0.097657 0.23438-0.19531 0.46875-0.29297 0.70312 0.46094-1.0742 0.99609-2.1289 1.6016-3.125 0.3125-0.50781 0.63281-1.0078 0.98438-1.4844 0.14844-0.20312 0.78906-0.97656 0.13672-0.20312 0.1875-0.21484 0.35156-0.44922 0.53906-0.66406 0.73438-0.86719 1.5312-1.6875 2.3828-2.4414 0.21484-0.1875 0.42969-0.37109 0.64453-0.55469 0.10938-0.085938 0.22266-0.17578 0.33203-0.27344 0.078125-0.058594 0.14844-0.11719 0.22266-0.17578-0.125 0.097656-0.24219 0.1875-0.37109 0.28125 0.4375-0.41016 1.0156-0.74219 1.5156-1.0625 1.2891-0.82812 1.9336-2.6367 1.0547-4.0039-0.82812-1.2812-2.6367-1.9414-4.0039-1.0547-3.6523 2.3633-6.7461 5.5547-8.8984 9.3555-2.1875 3.8672-3.3672 8.25-3.457 12.695-0.078125 4.0312 0 8.0781 0 12.109 0 1.4141-0.007813 2.8203 0 4.2383 0.039062 4.668 3.2812 8.9844 7.8828 10.078 1.1797 0.28125 2.3359 0.30469 3.5234 0.30469h3.5938 12.703 15.859 14.004 7.1562c3.0156 0 6.1016-1.2305 8.0391-3.6016 1.5547-1.9141 2.4805-4.1484 2.5312-6.6406 0.007813-0.42188 0-0.84766 0-1.2695v-13.625-1.1328c0-1.5312-1.3477-3-2.9297-2.9297-1.625 0.050782-2.9727 1.2734-2.9727 2.9141z"/>
 </g>
</svg>