<svg width="100pt" height="100pt" version="1.1" viewBox="0 0 100 100" xmlns="http://www.w3.org/2000/svg">
 <g>
  <path d="m63.309 74.738c1.2539-0.19141 2.4102-0.76953 3.3164-1.6562 1.5469-1.5469 2.8828-4.7422 0.42578-11.141h0.003907c-0.14453-0.39453-0.4375-0.71875-0.82031-0.89062-0.38281-0.17578-0.82031-0.19141-1.2109-0.039062-0.39063 0.14844-0.70703 0.45312-0.875 0.83594-0.16406 0.38672-0.17188 0.82422-0.011719 1.2109 1.4258 3.7188 1.5273 6.5625 0.28125 7.8125-1.5117 1.5078-5.2812 1.0391-10.078-1.2578h-0.003906c-6.4258-3.3359-12.266-7.6953-17.293-12.906-12.238-12.242-17.289-24.25-14.164-27.375h-0.003906c1-0.78906 2.293-1.0898 3.5352-0.82422 0.84766 0.0625 1.5898-0.5625 1.6719-1.4102 0.082031-0.84375-0.52734-1.5977-1.3672-1.6992-2.1719-0.38672-4.4023 0.24609-6.0469 1.7188-5.7266 5.7227 3.0273 20.652 14.164 31.793 5.2773 5.4609 11.41 10.023 18.156 13.512 1.2227 0.58594 2.4805 1.0898 3.7695 1.5078l-11.102 4.2109c-7.2812-2.7695-13.703-7.4141-18.617-13.461-4.9102-6.0469-8.1367-13.285-9.3516-20.984-0.13281-0.85156-0.93359-1.4336-1.7852-1.3008-0.85156 0.13281-1.4375 0.93359-1.3008 1.7852 0.24609 1.5625 0.57422 3.125 0.97656 4.6523l-0.003906 0.003907c3.5977 13.633 13.074 24.957 25.859 30.902l-18.27 6.9141c-0.085937-0.14062-0.19141-0.26562-0.3125-0.37109-4.6445-3.7305-7.5586-9.1992-8.0625-15.133l-0.72656-8.7773c-0.027344-0.41797-0.22266-0.80469-0.54297-1.0742-0.32031-0.26953-0.73438-0.40234-1.1484-0.35938-0.41406 0.03125-0.80078 0.23047-1.0703 0.54688-0.26953 0.32031-0.39844 0.73047-0.36328 1.1445l0.73828 8.7773c0.54688 6.3438 3.5078 12.234 8.2656 16.461l-13.035 4.9336 2.3438-9.6172c0.20703-0.83984-0.30859-1.6836-1.1484-1.8906-0.83594-0.20312-1.6836 0.30859-1.8867 1.1484l-3.0469 12.5h-0.003907c-0.13672 0.56641 0.050782 1.1602 0.48438 1.543 0.43359 0.38281 1.0469 0.49609 1.5898 0.28906l57.812-21.875c0.089844-0.042969 0.17969-0.097657 0.25781-0.16016z"/>
  <path d="m55.324 55.34-5.582 0.9375c-0.83203 0.16016-1.3867 0.95703-1.2461 1.793 0.14062 0.83594 0.92188 1.4102 1.7617 1.2891l5.582-0.92969c8.3555-1.3906 16.93-0.55469 24.863 2.4141 0.17578 0.0625 0.35938 0.09375 0.54688 0.09375 0.75781 0 1.4062-0.53906 1.5391-1.2852 0.13672-0.74219-0.28125-1.4766-0.99219-1.7422-8.4453-3.1602-17.574-4.0469-26.473-2.5703z"/>
  <path d="m51.719 50.672c0.17969 0.375 0.49609 0.66406 0.88672 0.80078 0.39062 0.14062 0.82031 0.11719 1.1953-0.0625l32.812-15.625c0.78125-0.37109 1.1094-1.3047 0.73828-2.082-0.37109-0.77734-1.3008-1.1094-2.082-0.73828l-32.812 15.625c-0.375 0.17578-0.66016 0.49609-0.80078 0.88672-0.13672 0.39063-0.11719 0.82031 0.0625 1.1953z"/>
  <path d="m34.254 48.316c0.1875 0.082032 0.39453 0.12109 0.59766 0.12109 0.63281 0 1.1992-0.37891 1.4453-0.96094l2.2734-5.4453c3.7422-8.9453 4.6172-18.836 2.5-28.301-0.085937-0.41016-0.33203-0.77344-0.68359-1-0.35156-0.23047-0.77734-0.30469-1.1875-0.21484-0.41016 0.089844-0.76562 0.34375-0.98828 0.69922-0.22266 0.35547-0.28906 0.78516-0.19141 1.1914 1.9766 8.8359 1.1602 18.07-2.332 26.422l-2.2734 5.4531c-0.32812 0.79297 0.046876 1.7031 0.83984 2.0352z"/>
  <path d="m84.375 64.062c0 1.8945 1.1406 3.6055 2.8945 4.332 1.75 0.72266 3.7656 0.32422 5.1094-1.0156 1.3398-1.3438 1.7383-3.3594 1.0156-5.1094-0.72656-1.7539-2.4375-2.8945-4.332-2.8945-2.5898 0-4.6875 2.0977-4.6875 4.6875zm6.25 0c0 0.63281-0.37891 1.2031-0.96484 1.4453-0.58203 0.23828-1.2539 0.10547-1.7031-0.33984-0.44531-0.44922-0.57812-1.1211-0.33984-1.7031 0.24219-0.58594 0.8125-0.96484 1.4453-0.96484 0.41406 0 0.8125 0.16406 1.1055 0.45703s0.45703 0.69141 0.45703 1.1055z"/>
  <path d="m56.25 20.312c0-1.8945-1.1406-3.6055-2.8945-4.332-1.75-0.72266-3.7656-0.32422-5.1094 1.0156-1.3398 1.3438-1.7383 3.3594-1.0156 5.1094 0.72656 1.7539 2.4375 2.8945 4.332 2.8945 2.5898 0 4.6875-2.0977 4.6875-4.6875zm-6.25 0c0-0.63281 0.37891-1.2031 0.96484-1.4453 0.58203-0.23828 1.2539-0.10547 1.7031 0.33984 0.44531 0.44922 0.57812 1.1211 0.33984 1.7031-0.24219 0.58594-0.8125 0.96484-1.4453 0.96484-0.86328 0-1.5625-0.69922-1.5625-1.5625z"/>
  <path d="m40.625 6.25c0 4.168-6.25 4.168-6.25 0s6.25-4.168 6.25 0"/>
  <path d="m79.688 14.062c0 0.86328 0.69922 1.5625 1.5625 1.5625s1.5625-0.69922 1.5625-1.5625v-1.5625c0-0.86328-0.69922-1.5625-1.5625-1.5625s-1.5625 0.69922-1.5625 1.5625z"/>
  <path d="m81.25 3.125c-0.86328 0-1.5625 0.69922-1.5625 1.5625v1.5625c0 0.86328 0.69922 1.5625 1.5625 1.5625s1.5625-0.69922 1.5625-1.5625v-1.5625c0-0.41406-0.16406-0.8125-0.45703-1.1055s-0.69141-0.45703-1.1055-0.45703z"/>
  <path d="m85.938 7.8125h-1.5625c-0.86328 0-1.5625 0.69922-1.5625 1.5625s0.69922 1.5625 1.5625 1.5625h1.5625c0.86328 0 1.5625-0.69922 1.5625-1.5625s-0.69922-1.5625-1.5625-1.5625z"/>
  <path d="m78.125 7.8125h-1.5625c-0.86328 0-1.5625 0.69922-1.5625 1.5625s0.69922 1.5625 1.5625 1.5625h1.5625c0.86328 0 1.5625-0.69922 1.5625-1.5625s-0.69922-1.5625-1.5625-1.5625z"/>
  <path d="m70.312 31.25c0.41406 0 0.8125-0.16406 1.1055-0.45703s0.45703-0.69141 0.45703-1.1055v-7.8438c0-0.41406-0.16406-0.8125-0.45703-1.1055s-0.69141-0.45703-1.1055-0.45703h-7.8438c-0.86328 0-1.5625 0.69922-1.5625 1.5625v7.8438c0 0.41406 0.16406 0.8125 0.45703 1.1055s0.69141 0.45703 1.1055 0.45703zm-6.2812-7.8438h4.7188v4.7188h-4.7188z"/>
  <path d="m41.027 49.484c0.57812 0.64062 1.5625 0.69141 2.207 0.11328l15.625-14.062c0.62109-0.58203 0.66016-1.5508 0.089844-2.1836-0.56641-0.63281-1.5391-0.69531-2.1836-0.13672l-15.625 14.062c-0.64062 0.57812-0.69141 1.5625-0.11328 2.207z"/>
  <path d="m89.062 42.188v-1.5625c0-0.86328-0.69922-1.5625-1.5625-1.5625s-1.5625 0.69922-1.5625 1.5625v1.5625c0 0.86328 0.69922 1.5625 1.5625 1.5625s1.5625-0.69922 1.5625-1.5625z"/>
  <path d="m90.816 39.898 1.1055 1.1055c0.61328 0.58984 1.5859 0.58203 2.1875-0.019531 0.60547-0.60156 0.61328-1.5781 0.019531-2.1914l-1.1055-1.1055c-0.61328-0.58984-1.5859-0.58203-2.1875 0.019531-0.60547 0.60547-0.61328 1.5781-0.019532 2.1914z"/>
  <path d="m95.312 32.812h-1.5625c-0.86328 0-1.5625 0.69922-1.5625 1.5625s0.69922 1.5625 1.5625 1.5625h1.5625c0.86328 0 1.5625-0.69922 1.5625-1.5625s-0.69922-1.5625-1.5625-1.5625z"/>
  <path d="m91.922 31.52c0.41406 0 0.80859-0.16406 1.1016-0.45703l1.1055-1.1055c0.59375-0.61328 0.58594-1.5898-0.019531-2.1914-0.60156-0.60156-1.5742-0.60938-2.1875-0.019531l-1.1055 1.1055c-0.44922 0.44531-0.58203 1.1172-0.33984 1.7031 0.24219 0.58203 0.8125 0.96484 1.4453 0.96484z"/>
  <path d="m87.5 25c-0.86328 0-1.5625 0.69922-1.5625 1.5625v1.5625c0 0.86328 0.69922 1.5625 1.5625 1.5625s1.5625-0.69922 1.5625-1.5625v-1.5625c0-0.41406-0.16406-0.8125-0.45703-1.1055s-0.69141-0.45703-1.1055-0.45703z"/>
  <path d="m83.078 27.746c-0.61328-0.58984-1.5859-0.58203-2.1875 0.019531-0.60547 0.60156-0.61328 1.5781-0.019531 2.1914l1.1055 1.1055c0.61328 0.58984 1.5859 0.58203 2.1875-0.019531 0.60547-0.60547 0.61328-1.5781 0.019532-2.1914z"/>
  <path d="m21.797 9.8828c-0.18359-0.56641-0.67188-0.98047-1.2578-1.0625l-4.5859-0.66797-2.0469-4.1562c-0.29297-0.49609-0.82422-0.80078-1.4023-0.80078-0.57422 0-1.1094 0.30469-1.4023 0.80078l-2.0547 4.1562-4.5859 0.66797c-0.58594 0.082032-1.0781 0.49609-1.2617 1.0586-0.18359 0.56641-0.03125 1.1875 0.39453 1.6055l3.3164 3.2344-0.78125 4.5664c-0.10156 0.58594 0.13672 1.1836 0.62109 1.5352 0.48047 0.35156 1.1211 0.39453 1.6484 0.11719l4.1016-2.1641 4.1016 2.1562c0.52734 0.27734 1.1641 0.23047 1.6445-0.11719 0.48047-0.34766 0.72266-0.94141 0.62109-1.5273l-0.78125-4.5664 3.3203-3.2344c0.42578-0.41797 0.57812-1.0391 0.39062-1.6016zm-6.4844 3.1719c-0.36719 0.35547-0.53516 0.875-0.44922 1.3789l0.38672 2.2578-2.0234-1.0664c-0.45312-0.23828-1-0.23828-1.4531 0l-2.0312 1.0664 0.38672-2.2578c0.089844-0.50391-0.078125-1.0195-0.44141-1.3789l-1.6406-1.6016 2.2656-0.32812c0.50781-0.074219 0.94922-0.39453 1.1758-0.85547l1.0117-2.0508 1.0117 2.0508c0.22656 0.46094 0.66797 0.78125 1.1758 0.85547l2.2656 0.32812z"/>
  <path d="m91.59 81.445-0.64453-0.96484c-3.6094-5.3984-9.2852-9.0703-15.688-10.145-0.83984-0.12109-1.6211 0.44922-1.7617 1.2891-0.14062 0.83594 0.41406 1.6289 1.2461 1.7891 4.6172 0.78516 8.8281 3.1328 11.922 6.6484-2.6016 0.46875-4.8789 2.0312-6.25 4.293-1.6797 3.0117-0.60156 6.8203 2.4102 8.5039 3.0156 1.6836 6.8242 0.60156 8.5039-2.4102 0.64453-1.2422 0.99219-2.6133 1.0156-4.0117 1.6641 2.4141 1.7969 5.5664 0.34375 8.1133-0.21484 0.36328-0.27734 0.79688-0.16797 1.2031 0.11328 0.41016 0.38281 0.75391 0.75 0.96094 0.36719 0.20312 0.80469 0.25 1.207 0.13281 0.40234-0.12109 0.74219-0.40234 0.9375-0.77344 2.8594-5.1094 1.1758-11.566-3.8164-14.629zm-2.9844 7.4766c-0.40234 0.73047-1.0781 1.2656-1.875 1.4961-0.80078 0.23047-1.6602 0.12891-2.3828-0.27734-0.72656-0.40234-1.2617-1.082-1.4883-1.8828-0.22266-0.79687-0.12109-1.6562 0.28906-2.3789 0.92187-1.5117 2.4766-2.5234 4.2305-2.7539 0.26953-0.007812 0.53906 0.054688 0.78125 0.17969 1.3164 0.73828 1.3867 3.9297 0.44531 5.6172z"/>
 </g>
</svg>