<svg width="90px" height="74px" viewBox="0 0 90 74" version="1.1" xmlns="http://www.w3.org/2000/svg" xmlns:xlink="http://www.w3.org/1999/xlink">
    <g stroke="none" stroke-width="1" fill="none" fill-rule="evenodd">
        <g transform="translate(-148.000000, -171.000000)">
            <g id="console" transform="translate(148.000000, 171.000000)">
                <rect id="Rectangle" fill="#FFFFFF" x="8" y="8" width="74" height="57" rx="4"></rect>
                <path d="M64.801,42.562 C67.0901,42.562 68.8908,44.3628 68.8908,46.6518 C68.8908,48.8862 67.09,50.7416 64.801,50.7416 L48.926,50.745506 C46.6916,50.745506 44.8362,48.890006 44.8362,46.655706 C44.8362,44.366606 46.6917,42.565906 48.926,42.565906 L64.801,42.562 Z" id="Path" fill="#000000" fill-rule="nonzero"></path>
                <path d="M37.746,34.109 C39.328,35.691 39.328,38.3082 37.746,39.8902 L28.0898,49.5464 C26.5078,51.1284 23.9453,51.1284 22.3086,49.5464 C20.7266,47.9644 20.7266,45.3472 22.3086,43.7652 L29.0742,36.9996 L22.3086,30.2887 C20.7266,28.652 20.7266,26.0895 22.3086,24.5075 C23.9453,22.8708 26.5078,22.8708 28.0898,24.5075 L37.746,34.109 Z" id="Path" fill="#000000" fill-rule="nonzero"></path>
                <path d="M81.8161,58.328 L81.8161,15.672 C81.8161,11.6368 78.5426,8.3634 74.5074,8.3634 L15.4914,8.3634 C11.4562,8.3634 8.2375,11.6368 8.1828,15.672 L8.1828,58.328 C8.237487,62.3632 11.4562,65.6366 15.4914,65.6366 L74.5114,65.6366 C78.5466,65.6366 81.8161,62.3632 81.8161,58.328 L81.8161,58.328 Z M89.9996,15.672 L89.9996,58.328 C89.9996,66.8905 83.0738,73.82 74.5076,73.82 L15.4916,73.82 C6.9252,73.816094 -0.0004,66.8903 -0.0004,58.328 L-0.0004,15.672 C-0.0004,7.1095 6.9254,0.18 15.4916,0.18 L74.5116,0.18 C83.0741,0.183906 89.9996,7.1097 89.9996,15.672 Z" id="Shape" fill="#000000" fill-rule="nonzero"></path>
            </g>
        </g>
    </g>
</svg>