<svg width="63px" height="66px" viewBox="0 0 63 66" version="1.1" xmlns="http://www.w3.org/2000/svg" xmlns:xlink="http://www.w3.org/1999/xlink">
    <title>ic-file-css</title>
    <g id="File-Images" stroke="none" stroke-width="1" fill="none" fill-rule="evenodd">
        <g id="Mobile" transform="translate(-120.000000, -40.000000)" fill="#000000" fill-rule="nonzero">
            <g id="np_css_1847911_000000" transform="translate(120.000000, 40.000000)">
                <path d="M51.0002,0.5002 L56.59,6.09 L62.1721,11.6211 L62.1721,65.5001 L7.8281,65.5001 L7.8281,48.7501 L12.8281,48.7501 L12.8281,60.5001 L57.2111,60.5001 L57.2111,13.7111 L49.0002,5.5002 L12.8282,5.5002 L12.8282,18.7892 L7.8281,18.7892 L7.8281,0.5002 L51.0002,0.5002 Z M6.03515625,25.5761719 C7.20703125,25.5761719 7.20703125,25.5761719 8.12011719,25.9082031 C9.03320312,26.2402344 9.03320312,26.2402344 9.67773438,26.8554688 C10.3222656,27.4707031 10.3222656,27.4707031 10.6933594,28.359375 C11.0644531,29.2480469 11.0644531,29.2480469 11.1621094,30.3613281 L11.1621094,30.3613281 L8.42773438,30.3613281 L8.40761719,30.1136719 C8.35839844,29.6308594 8.35839844,29.6308594 8.23730469,29.2480469 C8.0859375,28.7695312 8.0859375,28.7695312 7.79785156,28.4521484 C7.50976562,28.1347656 7.50976562,28.1347656 7.07519531,27.9736328 C6.640625,27.8125 6.640625,27.8125 6.03515625,27.8125 C5.40039062,27.8125 5.40039062,27.8125 4.93164062,28.0859375 C4.46289062,28.359375 4.46289062,28.359375 4.15527344,28.8867188 C3.84765625,29.4140625 3.84765625,29.4140625 3.70117188,30.1806641 C3.5546875,30.9472656 3.5546875,30.9472656 3.5546875,31.9238281 L3.5546875,31.9238281 L3.5546875,33.8574219 L3.55818348,34.1739668 C3.60013522,36.034405 3.60013522,36.034405 4.14550781,36.9628906 C4.73632812,37.96875 4.73632812,37.96875 6.015625,37.96875 C7.08984375,37.96875 7.08984375,37.96875 7.71484375,37.3974609 C8.33984375,36.8261719 8.33984375,36.8261719 8.40820312,35.546875 L8.40820312,35.546875 L11.1523438,35.546875 L11.126136,35.8494101 C11.0274833,36.7438616 11.0274833,36.7438616 10.6884766,37.4804688 C10.2929688,38.3398438 10.2929688,38.3398438 9.62890625,38.9453125 C8.96484375,39.5507812 8.96484375,39.5507812 8.046875,39.8779297 C7.12890625,40.2050781 7.12890625,40.2050781 6.015625,40.2050781 C4.75585938,40.2050781 4.75585938,40.2050781 3.77929688,39.7412109 C2.80273438,39.2773438 2.80273438,39.2773438 2.13867188,38.4423828 C1.47460938,37.6074219 1.47460938,37.6074219 1.12304688,36.4355469 C0.771484375,35.2636719 0.771484375,35.2636719 0.771484375,33.8574219 L0.771484375,33.8574219 L0.771484375,31.9433594 L0.779057717,31.5437659 C0.824497768,30.359933 0.824497768,30.359933 1.14257812,29.3554688 C1.51367188,28.1835938 1.51367188,28.1835938 2.19726562,27.34375 C2.88085938,26.5039062 2.88085938,26.5039062 3.85253906,26.0400391 C4.82421875,25.5761719 4.82421875,25.5761719 6.03515625,25.5761719 Z M18.5078125,25.5859375 C19.6210938,25.5859375 19.6210938,25.5859375 20.5439453,25.9082031 C21.4667969,26.2304688 21.4667969,26.2304688 22.1308594,26.8115234 C22.7949219,27.3925781 22.7949219,27.3925781 23.1660156,28.1933594 C23.5371094,28.9941406 23.5371094,28.9941406 23.5371094,29.9511719 L23.5371094,29.9511719 L20.8613281,29.9511719 L20.8433228,29.7167969 C20.8039551,29.3725586 20.8039551,29.3725586 20.6904297,29.0722656 C20.5390625,28.671875 20.5390625,28.671875 20.2412109,28.3837891 C19.9433594,28.0957031 19.9433594,28.0957031 19.4990234,27.9345703 C19.0546875,27.7734375 19.0546875,27.7734375 18.4589844,27.7734375 C17.9121094,27.7734375 17.9121094,27.7734375 17.4873047,27.9052734 C17.0625,28.0371094 17.0625,28.0371094 16.7695313,28.2763672 C16.4765625,28.515625 16.4765625,28.515625 16.3251953,28.8427734 C16.1738281,29.1699219 16.1738281,29.1699219 16.1738281,29.5507812 C16.1738281,29.9511719 16.1738281,29.9511719 16.3740234,30.2734375 C16.5742188,30.5957031 16.5742188,30.5957031 16.9550781,30.8544922 C17.3359375,31.1132812 17.3359375,31.1132812 17.8779297,31.328125 C18.4199219,31.5429688 18.4199219,31.5429688 19.1035156,31.7285156 C20.0800781,32.0117188 20.0800781,32.0117188 20.9003906,32.421875 C21.7207031,32.8320312 21.7207031,32.8320312 22.3115234,33.3935547 C22.9023438,33.9550781 22.9023438,33.9550781 23.2294922,34.6728516 C23.5566406,35.390625 23.5566406,35.390625 23.5566406,36.2695312 C23.5566406,37.2070312 23.5566406,37.2070312 23.1806641,37.9345703 C22.8046875,38.6621094 22.8046875,38.6621094 22.140625,39.1650391 C21.4765625,39.6679688 21.4765625,39.6679688 20.5585938,39.9267578 C19.640625,40.1855469 19.640625,40.1855469 18.5566406,40.1855469 C17.8828125,40.1855469 17.8828125,40.1855469 17.2138672,40.0634766 C16.5449219,39.9414062 16.5449219,39.9414062 15.9345703,39.6875 C15.3242188,39.4335938 15.3242188,39.4335938 14.796875,39.0527344 C14.2695313,38.671875 14.2695313,38.671875 13.8837891,38.1640625 C13.4980469,37.65625 13.4980469,37.65625 13.2783203,37.0117188 C13.0585938,36.3671875 13.0585938,36.3671875 13.0585938,35.5859375 L13.0585938,35.5859375 L15.7539063,35.5859375 L15.7691406,35.8363281 C15.8144531,36.3222656 15.8144531,36.3222656 15.9785156,36.6894531 C16.1835938,37.1484375 16.1835938,37.1484375 16.5498047,37.4414062 C16.9160156,37.734375 16.9160156,37.734375 17.4287109,37.8710938 C17.9414063,38.0078125 17.9414063,38.0078125 18.5566406,38.0078125 C19.1035156,38.0078125 19.1035156,38.0078125 19.5283203,37.8808594 C19.953125,37.7539062 19.953125,37.7539062 20.2460938,37.5292969 C20.5390625,37.3046875 20.5390625,37.3046875 20.6953125,36.9873047 C20.8515625,36.6699219 20.8515625,36.6699219 20.8515625,36.2890625 C20.8515625,35.9082031 20.8515625,35.9082031 20.7197266,35.5761719 C20.5878906,35.2441406 20.5878906,35.2441406 20.2705078,34.9560547 C19.953125,34.6679688 19.953125,34.6679688 19.4404297,34.4287109 C18.9277344,34.1894531 18.9277344,34.1894531 18.1660156,33.984375 C17.2382813,33.7304688 17.2382813,33.7304688 16.3935547,33.3496094 C15.5488281,32.96875 15.5488281,32.96875 14.9042969,32.4316406 C14.2597656,31.8945312 14.2597656,31.8945312 13.8740234,31.1816406 C13.4882813,30.46875 13.4882813,30.46875 13.4882813,29.5410156 C13.4882813,28.6425781 13.4882813,28.6425781 13.8691406,27.9101562 C14.25,27.1777344 14.25,27.1777344 14.9238281,26.6601562 C15.5976563,26.1425781 15.5976563,26.1425781 16.515625,25.8642578 C17.4335938,25.5859375 17.4335938,25.5859375 18.5078125,25.5859375 Z M30.6972656,25.5859375 C31.8105469,25.5859375 31.8105469,25.5859375 32.7333985,25.9082031 C33.65625,26.2304688 33.65625,26.2304688 34.3203125,26.8115234 C34.984375,27.3925781 34.984375,27.3925781 35.3554688,28.1933594 C35.7265625,28.9941406 35.7265625,28.9941406 35.7265625,29.9511719 L35.7265625,29.9511719 L33.0507813,29.9511719 L33.0327759,29.7167969 C32.9934082,29.3725586 32.9934082,29.3725586 32.8798828,29.0722656 C32.7285156,28.671875 32.7285156,28.671875 32.4306641,28.3837891 C32.1328125,28.0957031 32.1328125,28.0957031 31.6884766,27.9345703 C31.2441406,27.7734375 31.2441406,27.7734375 30.6484375,27.7734375 C30.1015625,27.7734375 30.1015625,27.7734375 29.6767578,27.9052734 C29.2519531,28.0371094 29.2519531,28.0371094 28.9589844,28.2763672 C28.6660156,28.515625 28.6660156,28.515625 28.5146485,28.8427734 C28.3632813,29.1699219 28.3632813,29.1699219 28.3632813,29.5507812 C28.3632813,29.9511719 28.3632813,29.9511719 28.5634766,30.2734375 C28.7636719,30.5957031 28.7636719,30.5957031 29.1445313,30.8544922 C29.5253906,31.1132812 29.5253906,31.1132812 30.0673828,31.328125 C30.609375,31.5429688 30.609375,31.5429688 31.2929688,31.7285156 C32.2695313,32.0117188 32.2695313,32.0117188 33.0898438,32.421875 C33.9101563,32.8320312 33.9101563,32.8320312 34.5009766,33.3935547 C35.0917969,33.9550781 35.0917969,33.9550781 35.4189453,34.6728516 C35.7460938,35.390625 35.7460938,35.390625 35.7460938,36.2695312 C35.7460938,37.2070312 35.7460938,37.2070312 35.3701172,37.9345703 C34.9941406,38.6621094 34.9941406,38.6621094 34.3300781,39.1650391 C33.6660156,39.6679688 33.6660156,39.6679688 32.7480469,39.9267578 C31.8300781,40.1855469 31.8300781,40.1855469 30.7460938,40.1855469 C30.0722656,40.1855469 30.0722656,40.1855469 29.4033203,40.0634766 C28.734375,39.9414062 28.734375,39.9414062 28.1240235,39.6875 C27.5136719,39.4335938 27.5136719,39.4335938 26.9863281,39.0527344 C26.4589844,38.671875 26.4589844,38.671875 26.0732422,38.1640625 C25.6875,37.65625 25.6875,37.65625 25.4677735,37.0117188 C25.2480469,36.3671875 25.2480469,36.3671875 25.2480469,35.5859375 L25.2480469,35.5859375 L27.9433594,35.5859375 L27.9585938,35.8363281 C28.0039063,36.3222656 28.0039063,36.3222656 28.1679688,36.6894531 C28.3730469,37.1484375 28.3730469,37.1484375 28.7392578,37.4414062 C29.1054688,37.734375 29.1054688,37.734375 29.6181641,37.8710938 C30.1308594,38.0078125 30.1308594,38.0078125 30.7460938,38.0078125 C31.2929688,38.0078125 31.2929688,38.0078125 31.7177735,37.8808594 C32.1425781,37.7539062 32.1425781,37.7539062 32.4355469,37.5292969 C32.7285156,37.3046875 32.7285156,37.3046875 32.8847656,36.9873047 C33.0410156,36.6699219 33.0410156,36.6699219 33.0410156,36.2890625 C33.0410156,35.9082031 33.0410156,35.9082031 32.9091797,35.5761719 C32.7773438,35.2441406 32.7773438,35.2441406 32.459961,34.9560547 C32.1425781,34.6679688 32.1425781,34.6679688 31.6298828,34.4287109 C31.1171875,34.1894531 31.1171875,34.1894531 30.3554688,33.984375 C29.4277344,33.7304688 29.4277344,33.7304688 28.5830078,33.3496094 C27.7382813,32.96875 27.7382813,32.96875 27.09375,32.4316406 C26.4492188,31.8945312 26.4492188,31.8945312 26.0634766,31.1816406 C25.6777344,30.46875 25.6777344,30.46875 25.6777344,29.5410156 C25.6777344,28.6425781 25.6777344,28.6425781 26.0585938,27.9101562 C26.4394531,27.1777344 26.4394531,27.1777344 27.1132813,26.6601562 C27.7871094,26.1425781 27.7871094,26.1425781 28.7050781,25.8642578 C29.6230469,25.5859375 29.6230469,25.5859375 30.6972656,25.5859375 Z" id="Shape"></path>
            </g>
        </g>
    </g>
</svg>