<svg width="100pt" height="100pt" version="1.1" viewBox="0 0 100 100" xmlns="http://www.w3.org/2000/svg">
 <path d="m50 17c-6.9062 0-13.828 2.6094-19.094 7.875-4.0859 4.0859-6.5195 9.1992-7.4375 14.5-10.457 1.6992-18.469 10.707-18.469 21.625 0 12.125 9.875 22 22 22h49c10.492 0 19-8.5078 19-19 0-10.215-8.082-18.473-18.188-18.906 0.29297-7.2773-2.207-14.676-7.75-20.219-5.2617-5.2617-12.156-7.875-19.062-7.875zm0 4c5.8906 0 11.75 2.2188 16.25 6.7188 5.2031 5.2031 7.375 12.266 6.5625 19.031-0.070312 0.57031 0.10547 1.1484 0.48828 1.5781 0.38281 0.42969 0.93359 0.67578 1.5117 0.67188h1.1875c8.3438 0 15 6.6562 15 15s-6.6562 15-15 15h-49c-9.9648 0-18-8.0352-18-18 0-9.4102 7.168-17.105 16.344-17.938 0.94141-0.082031 1.6992-0.8125 1.8125-1.75 0.57812-4.9688 2.7422-9.7734 6.5625-13.594 4.4961-4.4961 10.391-6.7188 16.281-6.7188zm0 20c-1.1055 0-2 0.89453-2 2v21.5l-7.6562-6.9688c-0.77734-0.70703-2.1367-0.65625-2.8438 0.125s-0.66406 2.1289 0.15625 2.8438l11 10c0.28516 0.26172 0.80859 0.48828 1.3438 0.5 0.53125 0 0.90234-0.097656 1.3438-0.5l11-10c0.78125-0.70312 0.92578-2.0742 0.15625-2.8438-0.74219-0.74219-2.0664-0.83203-2.8438-0.125l-7.6562 6.9688v-21.5c0-1.1055-0.89453-2-2-2z"/>
</svg>