<svg width="100pt" height="100pt" version="1.1" viewBox="0 0 100 100" xmlns="http://www.w3.org/2000/svg">
 <g>
  <path d="m82.602 58.801v23.398c0 0.30078-0.19922 0.5-0.5 0.5h-71.902c-0.30078 0-0.5-0.19922-0.5-0.5v-50.098h61.5l9.3984-19.898-71.297-0.003906c-3.6992 0-6.8008 3-6.8008 6.8008v64.199c0 3.8008 3 6.8008 6.8008 6.8008h73.898c3.8008 0 6.8008-3 6.8008-6.8008v-39.098l-6.1016 13c-0.5 0.69922-0.79688 1.1992-1.2969 1.6992zm-51.102-39.602c1.6016 0 2.8984 1.3008 2.8984 2.8984 0 1.6016-1.3008 2.8984-2.8984 2.8984-1.6016 0-2.8984-1.3008-2.8984-2.8984s1.2969-2.8984 2.8984-2.8984zm-8.8984 0c1.6016 0 2.8984 1.3008 2.8984 2.8984 0 1.6016-1.3008 2.8984-2.8984 2.8984-1.6016 0-2.8984-1.3008-2.8984-2.8984-0.003906-1.5977 1.2969-2.8984 2.8984-2.8984zm-8.8008 0c1.6016 0 2.8984 1.3008 2.8984 2.8984 0 1.6016-1.3008 2.8984-2.8984 2.8984-1.6016 0-2.8984-1.3008-2.8984-2.8984-0.10156-1.5977 1.1992-2.8984 2.8984-2.8984z"/>
  <path d="m19.5 46.898h44.699l3.3984-7.1992h-48.098c-0.69922 0-1.1992 0.60156-1.1992 1.3008v4.6016c-0.10156 0.69922 0.5 1.2969 1.1992 1.2969z"/>
  <path d="m18.199 59.699c0 0.69922 0.5 1.1992 1.1992 1.1992h45.102c-0.30078-0.60156-0.39844-1.1992-0.5-1.8984l-0.60156-5.3008h-44c-0.69922 0-1.1992 0.60156-1.1992 1.1992z"/>
  <path d="m18.199 73.699c0 0.69922 0.60156 1.3008 1.3008 1.3008h53.5c0.69922 0 1.3008-0.60156 1.3008-1.3008v-4.6016c0-0.69922-0.60156-1.3008-1.3008-1.3008l-53.5 0.003906c-0.69922 0-1.3008 0.60156-1.3008 1.3008z"/>
  <path d="m78.898 54.898 1.1992-2.6016-10.301-4.8984-1.1953 2.6016c-0.10156 0.30078-0.19922 0.60156-0.10156 0.89844l0.89844 7.5c0.19922 1.1992 1.6016 1.8984 2.6016 1.1992l6.3008-4.1016c0.30078 0.003906 0.5-0.29688 0.59766-0.59766z"/>
  <path d="m71.699 43.5 10.402 4.8008 11.199-23.801-10.402-4.8984z"/>
  <path d="m96.5 13.602-7.1992-3.3984c-0.89844-0.39844-1.8984 0-2.3008 0.80078l-2.1992 4.6016 10.301 4.8984 2.1992-4.6016c0.39844-0.90234 0.097657-1.9023-0.80078-2.3008z"/>
 </g>
</svg>