<svg width="100pt" height="100pt" version="1.1" viewBox="0 0 100 100" xmlns="http://www.w3.org/2000/svg">
 <g>
  <path d="m88.258 5.0977v-0.007812c0-1.4375-1.4609-2.3633-2.7383-1.8008-0.10938 0.046876-75.664 34.293-76.535 34.688-0.72656 0.32813-1.1797 1.0664-1.1445 1.8633s0.55078 1.4922 1.3008 1.7578l27.527 9.7148 0.25391 16.297c0.011719 0.75781 0.45703 1.4375 1.1484 1.75 0.69141 0.3125 1.5 0.19531 2.0703-0.29297l13.73-11.684 31.336 11.059c1.2617 0.44531 2.5938-0.48438 2.6016-1.8281l0.44922-61.516v0zm-11.863 6.6172-38.266 35.973-23.109-8.1562zm-35.633 51.691-0.16797-10.707 9.0156 3.1797zm1.5156-14.258 34.562-32.492-17.59 28.41c-0.56641 0.91797-0.28516 2.1211 0.63281 2.6875 0.91797 0.56641 2.1211 0.28516 2.6875-0.63281l21.73-35.094-0.375 51.824z"/>
  <path d="m40.883 73.992c-0.99219 0.99219-2.207 1.7109-3.5312 2.1094-0.46484-3.2852-2.25-6.3633-5.1484-8.3906-0.93359-0.65234-1.9961-0.99609-3.0703-0.99609-1.9414 0-3.793 1.1406-4.7109 2.9062-0.91406 1.7539-0.76562 3.8008 0.40234 5.4727 1.9258 2.7539 4.9219 4.6719 8.3906 5.1523-0.8125 2.7031-2.9258 4.8203-5.6367 5.6328-0.48438-3.4375-2.3906-6.5117-5.2617-8.4688-0.89844-0.61328-1.918-0.93359-2.9531-0.93359-1.9336 0-3.7852 1.1406-4.7148 2.9023-0.91406 1.7266-0.78906 3.7383 0.32812 5.375 1.8828 2.7656 4.8945 4.7734 8.4688 5.2656-0.39844 1.3203-1.1133 2.5352-2.1055 3.5234-0.76172 0.76172-0.76172 2 0 2.7617 0.76172 0.76172 2 0.76172 2.7617 0 1.7539-1.7539 2.9258-3.9805 3.3867-6.3867 4.9492-0.94922 8.8242-4.8203 9.7734-9.7734 2.4102-0.46094 4.6328-1.6328 6.3867-3.3867 0.76172-0.76172 0.76172-2 0-2.7617-0.76563-0.76562-2.0039-0.76562-2.7656-0.003906zm-22.684 8.5547c-0.30469-0.44531-0.33984-0.90234-0.10156-1.3516 0.26172-0.49219 0.76562-0.82031 1.2617-0.82031 0.25 0 0.50391 0.085938 0.75391 0.25781 1.8594 1.2656 3.1406 3.2305 3.5469 5.4648-1.6797-0.30078-3.2227-1.1016-4.4531-2.332-0.37109-0.375-0.71094-0.78516-1.0078-1.2188zm9.8281-9.6914c-0.33594-0.48438-0.38281-0.96484-0.14062-1.4297 0.25-0.48047 0.75391-0.80469 1.25-0.80469 0.27344 0 0.55469 0.097656 0.83594 0.29297 1.8438 1.2852 3.0742 3.2344 3.4688 5.4102-1.6797-0.30078-3.2227-1.1016-4.4531-2.332-0.35547-0.35156-0.67578-0.73438-0.96094-1.1367z"/>
  <path d="m21.852 22.656c3.2305 0 5.8594-2.6289 5.8594-5.8594s-2.6289-5.8594-5.8594-5.8594c-3.2305 0-5.8594 2.6289-5.8594 5.8594s2.6289 5.8594 5.8594 5.8594zm0-7.8125c1.0781 0 1.9531 0.875 1.9531 1.9531s-0.875 1.9531-1.9531 1.9531c-1.0781 0-1.9531-0.875-1.9531-1.9531s0.875-1.9531 1.9531-1.9531z"/>
  <path d="m67.75 71.484c-4.8477 0-8.7891 3.9414-8.7891 8.7891 0 4.8477 3.9414 8.7891 8.7891 8.7891s8.7891-3.9414 8.7891-8.7891c0-4.8477-3.9453-8.7891-8.7891-8.7891zm0 13.672c-2.6914 0-4.8828-2.1914-4.8828-4.8828 0-2.6914 2.1914-4.8828 4.8828-4.8828s4.8828 2.1914 4.8828 4.8828c0 2.6914-2.1914 4.8828-4.8828 4.8828z"/>
  <path d="m12.086 48.047c0 2.6055-3.9062 2.6055-3.9062 0s3.9062-2.6055 3.9062 0"/>
  <path d="m19.898 67.578c0 2.6055-3.9062 2.6055-3.9062 0s3.9062-2.6055 3.9062 0"/>
  <path d="m92.164 77.344c0 2.6055-3.9062 2.6055-3.9062 0s3.9062-2.6055 3.9062 0"/>
  <path d="m53.102 83.203c0 2.6055-3.9062 2.6055-3.9062 0s3.9062-2.6055 3.9062 0"/>
  <path d="m49.195 8.9844c0 2.6055-3.9062 2.6055-3.9062 0s3.9062-2.6055 3.9062 0"/>
  <path d="m15.992 28.516c0 2.6055-3.9062 2.6055-3.9062 0s3.9062-2.6055 3.9062 0"/>
 </g>
</svg>