<svg width="100pt" height="100pt" version="1.1" viewBox="0 0 100 100" xmlns="http://www.w3.org/2000/svg">
 <g>
  <path d="m62.5 61h-25c-2.8008 0-5.1016 2.3008-5.1016 5.1016 0 2.8008 2.3008 5.1016 5.1016 5.1016h24.898c2.8008 0 5.1016-2.3008 5.1016-5.1016 0.10156-2.8008-2.1992-5.1016-5-5.1016z"/>
  <path d="m37.5 48.801c0.69922 0.69922 1.6992 1.1016 2.6992 1.1016s2-0.39844 2.6992-1.1016c1.5-1.5 1.5-3.8984 0-5.3984l-3.3984-3.4023 3.3984-3.3984c1.5-1.5 1.5-3.8984 0-5.3984s-3.8984-1.5-5.3984 0l-3.3984 3.3984-3.3984-3.3984c-1.5-1.5-3.8984-1.5-5.3984 0s-1.5 3.8984 0 5.3984l3.3984 3.3984-3.3984 3.3984c-1.5 1.5-1.5 3.8984 0 5.3984 0.69922 0.69922 1.6992 1.1016 2.6992 1.1016s2-0.39844 2.6992-1.1016l3.3984-3.3984z"/>
  <path d="m74.699 31.199c-1.5-1.5-3.8984-1.5-5.3984 0l-3.3984 3.3984-3.3984-3.3984c-1.5-1.5-3.8984-1.5-5.3984 0s-1.5 3.8984 0 5.3984l3.3984 3.3984-3.3984 3.3984c-1.5 1.5-1.5 3.8984 0 5.3984 0.69922 0.69922 1.6992 1.1016 2.6992 1.1016s2-0.39844 2.6992-1.1016l3.3984-3.3984 3.3984 3.3984c0.69922 0.69922 1.6992 1.1016 2.6992 1.1016s2-0.39844 2.6992-1.1016c1.5-1.5 1.5-3.8984 0-5.3984l-3.3984-3.3945 3.3984-3.3984c1.5-1.5 1.5-3.9023 0-5.4023z"/>
  <path d="m77.102 2.5h-54.203c-11.199 0-20.398 9.1016-20.398 20.398v54.301c0 11.199 9.1016 20.398 20.398 20.398h54.301c11.199 0 20.398-9.1016 20.398-20.398l0.003906-54.301c-0.10156-11.297-9.2031-20.398-20.5-20.398zm10.199 74.602c0 5.6016-4.6016 10.199-10.199 10.199h-54.203c-5.6016 0-10.199-4.6016-10.199-10.199v-54.203c0-5.6016 4.6016-10.199 10.199-10.199h54.301c5.6016 0 10.199 4.6016 10.199 10.199v54.203z"/>
 </g>
</svg>