<svg width="100pt" height="100pt" version="1.1" viewBox="0 0 100 100" xmlns="http://www.w3.org/2000/svg">
 <path d="m91.562 46.25c-1.668-24.688-24.27-42.395-48.645-38.23-20.832 3.543-35.938 22.605-34.48 43.855 0.73047 11.457 6.043 21.457 13.957 28.438-2.082 3.543-3.6445 5.625-6.875 8.543-1.457 1.25-0.51953 3.6445 1.3555 3.6445 5.5195 0.10547 13.125-1.1445 18.23-4.375 6.875 2.6055 14.48 3.543 22.293 2.082 20.727-3.8516 35.621-22.914 34.164-43.957zm-26.98 18.332h-29.164c-1.1445 0-2.082-0.9375-2.082-2.082s0.9375-2.082 2.082-2.082h29.168c1.1445 0 2.082 0.9375 2.082 2.082s-0.9375 2.082-2.0859 2.082zm0-12.5h-29.164c-1.1445 0-2.082-0.9375-2.082-2.082s0.9375-2.082 2.082-2.082h29.168c1.1445 0 2.082 0.9375 2.082 2.082s-0.9375 2.082-2.0859 2.082zm0-12.5h-29.164c-1.1445 0-2.082-0.9375-2.082-2.082s0.9375-2.082 2.082-2.082h29.168c1.1445 0 2.082 0.9375 2.082 2.082s-0.9375 2.082-2.0859 2.082z"/>
</svg>