<svg width="100pt" height="100pt" version="1.1" viewBox="0 0 100 100" xmlns="http://www.w3.org/2000/svg">
 <g>
  <path d="m87.547 58.297v-17.73c0-19.398-13.602-35.297-32.941-35.562-0.15625-0.003906-0.31641-0.003906-0.47266-0.003906-19.586 0-33.84 16.613-33.84 36.285v29.41c0 0.24609-0.054688 1.4727-0.10547 2.9961-0.17578 4.8633-2.1328 9.4922-5.5 13.008l-1.9414 2.0273c-0.59766 0.57422-0.61719 1.5312-0.042969 2.1289l0.25 0.26172c2.4766 2.5859 5.8047 3.8828 9.1367 3.8828 2.9023 0 5.8086-0.98438 8.1641-2.9609 2.3398 1.9688 5.2461 2.9609 8.1562 2.9609 2.9023 0 5.8086-0.98438 8.1602-2.9609 2.3398 1.9688 5.2461 2.9609 8.1562 2.9609 2.9023 0 5.8047-0.98438 8.1562-2.957 0.058594-0.050781 0.16406-0.074219 0.30469-0.074219 1.4297 0 6.6953 2.3633 9.125 2.3633 0.21094 0 0.39844-0.019531 0.5625-0.054687 17.512-4.1328 14.672-22.652 14.672-35.98zm-15.422 30.629c-0.88281-0.15625-2.7227-0.76562-3.7578-1.1094-2.1406-0.71094-3.6875-1.2227-5.1758-1.2227-1.7969 0-3.0352 0.72266-3.7578 1.332-1.3047 1.0977-2.9766 1.6992-4.7031 1.6992-1.7266 0-3.3945-0.60156-4.6953-1.6953l-3.457-2.9102-3.4609 2.9062c-1.3047 1.0977-2.9766 1.6992-4.7031 1.6992-1.7266 0-3.3945-0.60156-4.6953-1.6953l-3.457-2.9102-3.4609 2.9062c-1.3086 1.0977-2.9766 1.6992-4.707 1.6992-0.84766 0-1.6719-0.14062-2.4414-0.41016 3.6211-4.3008 5.707-9.6836 5.9102-15.328l0.058594-1.5938c0.03125-0.83203 0.050781-1.4258 0.050781-1.5977l-0.003906-29.41c0-17.332 12.504-30.91 28.465-30.91 0.13281 0 0.26563 0 0.39844 0.003906 15.758 0.21484 27.641 13.191 27.641 30.188v17.73c0 1.6602 0.039063 3.3281 0.085937 5.1016 0.33984 14.094-0.17969 22.914-10.133 25.527z"/>
  <path d="m44.312 26.496c-2.8398 0-5.1602 2.3203-5.1602 5.1602v6.8789c0 2.8398 2.3203 5.1602 5.1602 5.1602 2.8359 0 5.1602-2.3203 5.1602-5.1602v-6.8789c0-2.8398-2.3203-5.1602-5.1602-5.1602z"/>
  <path d="m64.09 26.496c-2.8398 0-5.1602 2.3203-5.1602 5.1602v6.8789c0 2.8398 2.3203 5.1602 5.1602 5.1602 2.8359 0 5.1602-2.3203 5.1602-5.1602v-6.8789c0-2.8398-2.3203-5.1602-5.1602-5.1602z"/>
 </g>
</svg>