<svg width="100pt" height="100pt" version="1.1" viewBox="0 0 100 100" xmlns="http://www.w3.org/2000/svg">
 <path d="m49.602 35h21.699c1.6992 3 5 5 8.6992 5 5.5 0 10-4.5 10-10s-4.5-10-10-10c-3.6992 0-6.8984 2-8.6992 5h-32.402c4.4023 2.1016 7.9023 5.8008 10.703 10zm30.398-11c3.3008 0 6 2.6992 6 6s-2.6992 6-6 6-6-2.6992-6-6 2.6992-6 6-6zm-25.5 23.801c-5.3984-10.699-11.398-22.801-24.5-22.801h-1.3008c-1.6992-3-5-5-8.6992-5-5.5 0-10 4.5-10 10s4.5 10 10 10c3.6992 0 6.8984-2 8.6992-5h1.3008c6.3984 0 10.199 6.5 15.5 17.199 5.1016 10.102 10.801 21.5 22.5 22.699v-10.098c-5.3008-1.3008-8.6992-7.5-13.5-17zm-34.5-11.801c-3.3008 0-6-2.6992-6-6s2.6992-6 6-6 6 2.6992 6 6-2.6992 6-6 6zm63.5 24h-7v6.5h-6.5v7h6.5v6.5h7v-6.5h6.5v-7h-6.5z"/>
</svg>