<svg width="340px" height="315px" viewBox="0 0 340 315" version="1.1" xmlns="http://www.w3.org/2000/svg" xmlns:xlink="http://www.w3.org/1999/xlink">
    <g id="Page-1" stroke="none" stroke-width="1" fill="none" fill-rule="evenodd">
        <g id="gitlab-icon-1-color-black-rgb" fill="#000000" fill-rule="nonzero">
            <path d="M338.48,176.35 L320.7,121.72 C320.605748,121.216958 320.461706,120.724535 320.27,120.25 L284.6,10.45 C282.650788,4.63920767 277.188866,0.738411306 271.06,0.779670658 C264.944054,0.742915233 259.518215,4.69672213 257.68,10.53 L223.68,115.16 L116.37,115.16 L82.32,10.53 C80.4883614,4.71794843 75.093827,0.769246512 69,0.779670658 L68.92,0.779670658 C62.7859321,0.779670658 57.3439059,4.7154506 55.42,10.54 L19.72,120.47 C19.72,120.57 19.64,120.65 19.61,120.75 L1.51,176.36 C-1.21863524,184.727249 1.75801719,193.899539 8.88,199.07 L165.26,312.7 C168.084338,314.744391 171.907453,314.724163 174.71,312.65 L331.12,199.07 C338.245329,193.897408 341.218922,184.718054 338.48,176.35 M104.73,131.22 L148.32,265.38 L43.68,131.22 M191.73,265.41 L233.53,136.79 L235.33,131.22 L296.43,131.22 L201.76,252.5 M271.2,20.83 L301.83,115.16 L240.52,115.16 M218.49,131.16 L188.12,224.62 L170,280.28 L121.58,131.16 M68.85,20.83 L99.54,115.16 L38.27,115.16 M18.29,186.13 C16.7766064,185.029374 16.1463294,183.077939 16.73,181.3 L30.17,140 L128.74,266.37 M321.72,186.13 L211.26,266.34 L211.63,265.86 L309.83,140 L323.27,181.28 C323.860649,183.058739 323.234067,185.015292 321.72,186.12" id="Shape"></path>
        </g>
    </g>
</svg>