<svg width="100pt" height="100pt" version="1.1" viewBox="0 0 100 100" xmlns="http://www.w3.org/2000/svg">
 <path d="m85.102 47.199c2.3008-1.8984 3.6992-4.8008 3.6992-8 0-5.8008-4.6992-10.602-10.602-10.602-5.8008 0-10.602 4.6992-10.602 10.602 0 3.1992 1.3984 6.1016 3.6992 8-2 1-3.8008 2.3984-5.3008 4.1992-2.1992-2.3008-4.8984-4.1016-7.8008-5.3008 3.8984-2.6016 6.5-7.1016 6.5-12.199 0-8.1016-6.6016-14.699-14.699-14.699-8.1016 0-14.699 6.6016-14.699 14.699 0 5.1016 2.6016 9.5 6.5 12.199-3 1.1992-5.6992 3-7.8008 5.3008-1.3984-1.6992-3.1992-3.1992-5.3008-4.1992 2.3008-1.8984 3.6992-4.8008 3.6992-8 0-5.8008-4.6992-10.602-10.602-10.602-5.8984 0-10.602 4.6992-10.602 10.602 0 3.1992 1.3984 6.1016 3.6992 8-5.1914 2.6016-8.8906 8-8.8906 14.199v5.6016l1 0.60156c3.5 2.3984 8.8984 3.6992 14.801 3.6992 2 0 4-0.19922 5.8008-0.5v3.8984l0.89844 0.60156c4.8984 3.3984 12.898 5.3984 21.5 5.3984s16.5-2 21.5-5.3984l0.89844-0.60156v-3.8984c1.8008 0.30078 3.8008 0.5 5.8008 0.5 5.8984 0 11.301-1.3984 14.801-3.6992l1-0.60156v-5.6016c0-6.1992-3.6992-11.598-8.8984-14.199zm4.5977 17.5c-2.8008 1.5-7 2.3984-11.5 2.3984-2.1016 0-4-0.19922-5.8008-0.5-0.10156-4.3008-1.3984-8.3984-3.6016-11.801 2.1016-3 5.5-4.8984 9.3984-4.8984 6.3008 0 11.5 5.1992 11.5 11.5zm-39.699 11.801c-7.1992 0-13.801-1.5-18.199-4v-5.6016c0-10 8.1016-18.199 18.199-18.199 10.102 0 18.199 8.1016 18.199 18.199v5.6016c-4.3984 2.5-11 4-18.199 4zm-39.699-15.102c0-6.3008 5.1992-11.5 11.5-11.5 3.8984 0 7.3008 2 9.3984 4.8984-2.1992 3.3984-3.5 7.3984-3.6016 11.801-1.8008 0.30078-3.8008 0.5-5.8008 0.5-4.5 0-8.6992-0.89844-11.5-2.3984zm5.0977-22.199c0-3.5 2.8008-6.3008 6.3008-6.3008s6.3008 2.8008 6.3008 6.3008-2.8008 6.3008-6.3008 6.3008-6.3008-2.8008-6.3008-6.3008zm45.102-5.3008c0 5.8008-4.6992 10.5-10.5 10.5s-10.5-4.6992-10.5-10.5c0-5.7969 4.6992-10.398 10.5-10.398s10.5 4.6992 10.5 10.398zm11.398 5.3008c0-3.5 2.8008-6.3008 6.3008-6.3008s6.3008 2.8008 6.3008 6.3008-2.8008 6.3008-6.3008 6.3008-6.3008-2.8008-6.3008-6.3008z"/>
</svg>