<svg width="100pt" height="100pt" version="1.1" viewBox="0 0 100 100" xmlns="http://www.w3.org/2000/svg">
 <g>
  <path d="m56.73 62.98h-3.8477v-21.152c0-0.53125-0.42969-0.96094-0.96094-0.96094h-10.578c-0.53125 0-0.96094 0.42969-0.96094 0.96094v5.7695c0 0.53125 0.42969 0.96094 0.96094 0.96094h3.8477v14.422h-3.8477c-0.53125 0-0.96094 0.42969-0.96094 0.96094v5.7695c0 0.53125 0.42969 0.96094 0.96094 0.96094h15.383c0.53125 0 0.96094-0.42969 0.96094-0.96094v-5.7695c0.003906-0.53125-0.42578-0.96094-0.95703-0.96094zm-0.96094 5.7695h-13.461v-3.8477h3.8477c0.53125 0 0.96094-0.42969 0.96094-0.96094v-16.348c0-0.53125-0.42969-0.96094-0.96094-0.96094h-3.8477v-3.8477h8.6523v21.152c0 0.53125 0.42969 0.96094 0.96094 0.96094h3.8477z"/>
  <path d="m46.152 38.941h5.7695c0.53125 0 0.96094-0.42969 0.96094-0.96094v-5.7695c0-0.53125-0.42969-0.96094-0.96094-0.96094h-5.7695c-0.53125 0-0.96094 0.42969-0.96094 0.96094v5.7695c0 0.53125 0.42969 0.96094 0.96094 0.96094zm0.96484-5.7695h3.8477v3.8477h-3.8477z"/>
  <path d="m88.461 51.441c0-21.738-17.684-39.422-39.422-39.422-21.738 0-39.422 17.684-39.422 39.422 0 21.738 17.684 39.422 39.422 39.422 21.738 0.003907 39.422-17.684 39.422-39.422zm-39.422 37.5c-20.676 0-37.5-16.824-37.5-37.5 0-20.676 16.824-37.5 37.5-37.5 20.676 0 37.5 16.824 37.5 37.5 0 20.68-16.824 37.5-37.5 37.5z"/>
  <path d="m49.039 23.559c-15.375 0-27.883 12.508-27.883 27.887 0 15.375 12.508 27.883 27.883 27.883s27.883-12.508 27.883-27.883c0-15.379-12.508-27.887-27.883-27.887zm0 53.844c-14.316 0-25.961-11.645-25.961-25.961s11.645-25.961 25.961-25.961c14.316 0 25.961 11.645 25.961 25.961s-11.645 25.961-25.961 25.961z"/>
  <path d="m36.121 37.164c-0.375-0.375-0.98438-0.375-1.3594 0-7.8711 7.875-7.8711 20.684 0 28.555 0.1875 0.1875 0.43359 0.28125 0.67969 0.28125 0.84766 0 1.2891-1.0352 0.67969-1.6406-7.125-7.125-7.125-18.715 0-25.836 0.375-0.375 0.375-0.98438 0-1.3594z"/>
  <path d="m63.316 37.164c-0.375-0.375-0.98438-0.375-1.3594 0s-0.375 0.98438 0 1.3594c7.1211 7.125 7.1211 18.715 0 25.836-0.60938 0.60938-0.16797 1.6406 0.67969 1.6406 0.24609 0 0.49219-0.09375 0.67969-0.28125 7.8711-7.8711 7.8711-20.68 0-28.555z"/>
  <path d="m12.5 83.172c-2.6523 0-4.8086 2.1562-4.8086 4.8086 0 2.6523 2.1562 4.8086 4.8086 4.8086s4.8086-2.1562 4.8086-4.8086c0-2.6484-2.1562-4.8086-4.8086-4.8086zm0 7.6953c-1.5898 0-2.8828-1.293-2.8828-2.8828s1.293-2.8828 2.8828-2.8828 2.8828 1.293 2.8828 2.8828c0 1.5859-1.293 2.8828-2.8828 2.8828z"/>
  <path d="m86.539 6.25c-4.2422 0-7.6914 3.4492-7.6914 7.6914 0 4.2422 3.4492 7.6914 7.6914 7.6914 4.2422 0 7.6914-3.4492 7.6914-7.6914 0-4.2422-3.4492-7.6914-7.6914-7.6914zm0 13.461c-3.1797 0-5.7695-2.5898-5.7695-5.7695 0-3.1797 2.5898-5.7695 5.7695-5.7695 3.1797 0 5.7695 2.5898 5.7695 5.7695 0 3.1836-2.5898 5.7695-5.7695 5.7695z"/>
  <path d="m20.191 17.789c2.6523 0 4.8086-2.1562 4.8086-4.8086 0-2.6523-2.1562-4.8086-4.8086-4.8086s-4.8086 2.1562-4.8086 4.8086c0 2.6523 2.1602 4.8086 4.8086 4.8086zm0-7.6914c1.5898 0 2.8828 1.293 2.8828 2.8828 0 1.5898-1.293 2.8828-2.8828 2.8828s-2.8828-1.293-2.8828-2.8828c0-1.5898 1.293-2.8828 2.8828-2.8828z"/>
  <path d="m71.152 9.6172c0 1.9219-2.8828 1.9219-2.8828 0 0-1.9258 2.8828-1.9258 2.8828 0"/>
  <path d="m90.383 31.73c0 1.9219-2.8828 1.9219-2.8828 0s2.8828-1.9219 2.8828 0"/>
  <path d="m91.348 77.883c0 1.9258-2.8867 1.9258-2.8867 0 0-1.9219 2.8867-1.9219 2.8867 0"/>
  <path d="m76.922 91.348c0 1.9219-2.8828 1.9219-2.8828 0 0-1.9258 2.8828-1.9258 2.8828 0"/>
  <path d="m28.848 89.422c0 1.9258-2.8867 1.9258-2.8867 0 0-1.9219 2.8867-1.9219 2.8867 0"/>
  <path d="m9.6172 71.152c0 1.9258-2.8867 1.9258-2.8867 0 0-1.9219 2.8867-1.9219 2.8867 0"/>
  <path d="m9.6172 24.039c0 1.9219-2.8867 1.9219-2.8867 0 0-1.9219 2.8867-1.9219 2.8867 0"/>
 </g>
</svg>