<svg width="100pt" height="100pt" version="1.1" viewBox="0 0 100 100" xmlns="http://www.w3.org/2000/svg">
 <path d="m88.898 44.199-32.23-29.266c-3.7969-3.3945-9.5391-3.3945-13.336 0l-32.23 29.266c-0.71875 0.57422-1.1641 1.4219-1.2383 2.3359-0.070312 0.91406 0.23828 1.8203 0.85156 2.5 0.61719 0.68359 1.4883 1.0781 2.4062 1.0977 0.91797 0.015626 1.8008-0.34375 2.4453-1l1.1016-1v31.867c0 1.7695 0.69922 3.4648 1.9531 4.7148 1.25 1.25 2.9453 1.9531 4.7109 1.9531h16.668c0.88281 0 1.7305-0.35156 2.3555-0.97656s0.97656-1.4727 0.97656-2.3594v-23.332h13.332v23.332h0.003907c0 0.88672 0.35156 1.7344 0.97656 2.3594s1.4727 0.97656 2.3555 0.97656h16.668c1.7656 0 3.4609-0.70312 4.7109-1.9531 1.2539-1.25 1.9531-2.9453 1.9531-4.7148v-31.867l1.1016 1c0.60938 0.55469 1.4062 0.86328 2.2344 0.86719 1.375-0.003906 2.6055-0.85156 3.1016-2.1367 0.49219-1.2812 0.14844-2.7383-0.87109-3.6641zm-12.23 35.801h-13.336v-23.332c0-0.88672-0.35156-1.7344-0.97656-2.3594s-1.4727-0.97656-2.3555-0.97656h-20c-1.8398 0-3.332 1.4922-3.332 3.3359v23.332h-13.336v-37.934l24.434-22.066c1.2695-1.1445 3.1992-1.1445 4.4688 0l24.434 22.066z"/>
</svg>