<svg width="63px" height="66px" viewBox="0 0 63 66" version="1.1" xmlns="http://www.w3.org/2000/svg" xmlns:xlink="http://www.w3.org/1999/xlink">
    <title>ic-file-html</title>
    <g id="File-Images" stroke="none" stroke-width="1" fill="none" fill-rule="evenodd">
        <g id="Mobile" transform="translate(-41.000000, -40.000000)" fill="#000000" fill-rule="nonzero">
            <g id="np_css_1847911_000000" transform="translate(41.000000, 40.000000)">
                <path d="M56.59,6.09 L51.0002,0.5002 L7.8281,0.5002 L7.8281,18.7892 L12.8282,18.7892 L12.8282,5.5002 L49.0002,5.5002 L57.2111,13.7111 L57.2111,60.5001 L12.8281,60.5001 L12.8281,48.7501 L7.8281,48.7501 L7.8281,65.5001 L62.1721,65.5001 L62.1721,11.6211 L56.59,6.09 Z M2.92578125,40 L2.92578125,33.8378906 L6.94921875,33.8378906 L6.94921875,40 L9.6640625,40 L9.6640625,25.78125 L6.94921875,25.78125 L6.94921875,31.6113281 L2.92578125,31.6113281 L2.92578125,25.78125 L0.201171875,25.78125 L0.201171875,40 L2.92578125,40 Z M18.5332031,40 L18.5332031,28.0175781 L22.9179688,28.0175781 L22.9179688,25.78125 L11.453125,25.78125 L11.453125,28.0175781 L15.7792969,28.0175781 L15.7792969,40 L18.5332031,40 Z M27.1386719,40 L27.1386719,35.7910156 L27.0214844,29.4042969 L28.6914063,35.3125 L30.0488281,35.3125 L31.9140625,29.140625 L31.796875,35.7910156 L31.796875,40 L34.3164063,40 L34.3164063,25.78125 L30.9082031,25.78125 L29.375,31.1230469 L28.0273438,25.78125 L24.6191406,25.78125 L24.6191406,40 L27.1386719,40 Z M46.4472656,40 L46.4472656,37.7832031 L39.7871094,37.7832031 L39.7871094,25.78125 L37.0332031,25.78125 L37.0332031,40 L46.4472656,40 Z" id="Shape"></path>
            </g>
        </g>
    </g>
</svg>