<svg width="127px" height="66px" viewBox="0 0 127 66" version="1.1" xmlns="http://www.w3.org/2000/svg" xmlns:xlink="http://www.w3.org/1999/xlink">
    <g id="Page-1" stroke="none" stroke-width="1" fill="none" fill-rule="evenodd">
        <g id="transfer" fill="#000000" fill-rule="nonzero">
            <path d="M45,0 C38.0938,0 31.172,2.6094 25.906,7.875 C21.8201,11.9609 19.3865,17.0742 18.4685,22.375 C8.0115,24.0742 -0.0005,33.082 -0.0005,44 C-0.0005,56.125 9.8745,66 21.9995,66 L70.9995,66 C81.4915,66 89.9995,57.4922 89.9995,47 C89.9995,36.785 81.9175,28.527 71.8115,28.094 C72.10447,20.8167 69.6045,13.418 64.0615,7.875 C58.7998,2.6133 51.9055,0 44.9995,0 L45,0 Z M45,4 C50.8906,4 56.75,6.2188 61.25,10.7188 C66.4531,15.9219 68.625,22.9848 67.8125,29.7498 C67.742188,30.32011 67.91797,30.8982 68.30078,31.3279 C68.68359,31.75759 69.23437,32.00368 69.81248,31.99978 L70.99998,31.99978 C79.34378,31.99978 85.99998,38.65598 85.99998,46.99978 C85.99998,55.34358 79.34378,61.99978 70.99998,61.99978 L21.99998,61.99978 C12.03518,61.99978 3.99998,53.96458 3.99998,43.99978 C3.99998,34.58958 11.16798,26.89478 20.34398,26.06178 C21.28539,25.979749 22.04318,25.24928 22.15648,24.31178 C22.7346,19.34298 24.89868,14.53838 28.71898,10.71778 C33.21508,6.22168 39.10998,3.99898 44.99998,3.99898 L45,4 Z" id="Shape"></path>
            <path d="M111.997092,24 C110.891592,24 109.997092,24.89453 109.997092,26 L109.997092,47.5 L102.340892,40.5312 C101.563552,39.82417 100.204192,39.87495 99.4970924,40.6562 C98.7899924,41.43745 98.8330324,42.7851 99.6533424,43.5 L110.653342,53.5 C110.938502,53.76172 111.461932,53.98828 111.997142,54 C112.528392,54 112.899482,53.902344 113.340942,53.5 L124.340942,43.5 C125.122192,42.79688 125.266722,41.4258 124.497192,40.6562 C123.755002,39.91401 122.430792,39.82417 121.653392,40.5312 L113.997192,47.5 L113.997192,26 C113.997192,24.8945 113.102662,24 111.997192,24 L111.997092,24 Z" id="Path" transform="translate(112.003024, 39.000000) rotate(-90.000000) translate(-112.003024, -39.000000) "></path>
        </g>
    </g>
</svg>