<svg width="62px" height="66px" viewBox="0 0 62 66" version="1.1" xmlns="http://www.w3.org/2000/svg" xmlns:xlink="http://www.w3.org/1999/xlink">
    <title>ic-file-js</title>
    <g id="File-Images" stroke="none" stroke-width="1" fill="none" fill-rule="evenodd">
        <g id="Mobile" transform="translate(-201.000000, -40.000000)" fill="#000000" fill-rule="nonzero">
            <g id="np_js_1847911_000000" transform="translate(201.000000, 40.000000)">
                <path d="M50.0002,0.5002 L55.59,6.09 L61.1721,11.6211 L61.1721,65.5001 L6.8281,65.5001 L6.8281,48.7501 L11.8281,48.7501 L11.8281,60.5001 L56.2111,60.5001 L56.2111,13.7111 L48.0002,5.5002 L11.8282,5.5002 L11.8282,18.7892 L6.8281,18.7892 L6.8281,0.5002 L50.0002,0.5002 Z M9.73242188,25.78125 L9.7421875,35.6347656 L9.73192363,35.9212572 C9.67871094,36.7696708 9.67871094,36.7696708 9.35644531,37.4853516 C8.98046875,38.3203125 8.98046875,38.3203125 8.32617188,38.9257812 C7.671875,39.53125 7.671875,39.53125 6.78808594,39.8632812 C5.90429688,40.1953125 5.90429688,40.1953125 4.88867188,40.1953125 C3.81445312,40.1953125 3.81445312,40.1953125 2.93554688,39.921875 C2.05664062,39.6484375 2.05664062,39.6484375 1.42675781,39.1064453 C0.796875,38.5644531 0.796875,38.5644531 0.4453125,37.7441406 C0.09375,36.9238281 0.09375,36.9238281 0.083984375,35.8203125 L0.083984375,35.8203125 L2.83789062,35.8203125 L2.84472656,36.0425293 C2.89746094,37.0141602 2.89746094,37.0141602 3.34570312,37.4755859 C3.84375,37.9882812 3.84375,37.9882812 4.88867188,37.9882812 C5.35742188,37.9882812 5.35742188,37.9882812 5.74804688,37.8076172 C6.13867188,37.6269531 6.13867188,37.6269531 6.41210938,37.3144531 C6.68554688,37.0019531 6.68554688,37.0019531 6.83691406,36.5673828 C6.98828125,36.1328125 6.98828125,36.1328125 6.98828125,35.6347656 L6.98828125,35.6347656 L6.98828125,25.78125 L9.73242188,25.78125 Z M17.5078125,25.5859375 C18.6210938,25.5859375 18.6210938,25.5859375 19.5439453,25.9082031 C20.4667969,26.2304688 20.4667969,26.2304688 21.1308594,26.8115234 C21.7949219,27.3925781 21.7949219,27.3925781 22.1660156,28.1933594 C22.5371094,28.9941406 22.5371094,28.9941406 22.5371094,29.9511719 L22.5371094,29.9511719 L19.8613281,29.9511719 L19.8433228,29.7167969 C19.8039551,29.3725586 19.8039551,29.3725586 19.6904297,29.0722656 C19.5390625,28.671875 19.5390625,28.671875 19.2412109,28.3837891 C18.9433594,28.0957031 18.9433594,28.0957031 18.4990234,27.9345703 C18.0546875,27.7734375 18.0546875,27.7734375 17.4589844,27.7734375 C16.9121094,27.7734375 16.9121094,27.7734375 16.4873047,27.9052734 C16.0625,28.0371094 16.0625,28.0371094 15.7695313,28.2763672 C15.4765625,28.515625 15.4765625,28.515625 15.3251953,28.8427734 C15.1738281,29.1699219 15.1738281,29.1699219 15.1738281,29.5507812 C15.1738281,29.9511719 15.1738281,29.9511719 15.3740234,30.2734375 C15.5742188,30.5957031 15.5742188,30.5957031 15.9550781,30.8544922 C16.3359375,31.1132812 16.3359375,31.1132812 16.8779297,31.328125 C17.4199219,31.5429688 17.4199219,31.5429688 18.1035156,31.7285156 C19.0800781,32.0117188 19.0800781,32.0117188 19.9003906,32.421875 C20.7207031,32.8320312 20.7207031,32.8320312 21.3115234,33.3935547 C21.9023438,33.9550781 21.9023438,33.9550781 22.2294922,34.6728516 C22.5566406,35.390625 22.5566406,35.390625 22.5566406,36.2695312 C22.5566406,37.2070312 22.5566406,37.2070312 22.1806641,37.9345703 C21.8046875,38.6621094 21.8046875,38.6621094 21.140625,39.1650391 C20.4765625,39.6679688 20.4765625,39.6679688 19.5585938,39.9267578 C18.640625,40.1855469 18.640625,40.1855469 17.5566406,40.1855469 C16.8828125,40.1855469 16.8828125,40.1855469 16.2138672,40.0634766 C15.5449219,39.9414062 15.5449219,39.9414062 14.9345703,39.6875 C14.3242188,39.4335938 14.3242188,39.4335938 13.796875,39.0527344 C13.2695313,38.671875 13.2695313,38.671875 12.8837891,38.1640625 C12.4980469,37.65625 12.4980469,37.65625 12.2783203,37.0117188 C12.0585938,36.3671875 12.0585938,36.3671875 12.0585938,35.5859375 L12.0585938,35.5859375 L14.7539063,35.5859375 L14.7691406,35.8363281 C14.8144531,36.3222656 14.8144531,36.3222656 14.9785156,36.6894531 C15.1835938,37.1484375 15.1835938,37.1484375 15.5498047,37.4414062 C15.9160156,37.734375 15.9160156,37.734375 16.4287109,37.8710938 C16.9414063,38.0078125 16.9414063,38.0078125 17.5566406,38.0078125 C18.1035156,38.0078125 18.1035156,38.0078125 18.5283203,37.8808594 C18.953125,37.7539062 18.953125,37.7539062 19.2460938,37.5292969 C19.5390625,37.3046875 19.5390625,37.3046875 19.6953125,36.9873047 C19.8515625,36.6699219 19.8515625,36.6699219 19.8515625,36.2890625 C19.8515625,35.9082031 19.8515625,35.9082031 19.7197266,35.5761719 C19.5878906,35.2441406 19.5878906,35.2441406 19.2705078,34.9560547 C18.953125,34.6679688 18.953125,34.6679688 18.4404297,34.4287109 C17.9277344,34.1894531 17.9277344,34.1894531 17.1660156,33.984375 C16.2382813,33.7304688 16.2382813,33.7304688 15.3935547,33.3496094 C14.5488281,32.96875 14.5488281,32.96875 13.9042969,32.4316406 C13.2597656,31.8945312 13.2597656,31.8945312 12.8740234,31.1816406 C12.4882813,30.46875 12.4882813,30.46875 12.4882813,29.5410156 C12.4882813,28.6425781 12.4882813,28.6425781 12.8691406,27.9101562 C13.25,27.1777344 13.25,27.1777344 13.9238281,26.6601562 C14.5976563,26.1425781 14.5976563,26.1425781 15.515625,25.8642578 C16.4335938,25.5859375 16.4335938,25.5859375 17.5078125,25.5859375 Z" id="Shape"></path>
            </g>
        </g>
    </g>
</svg>