<svg width="82px" height="82px" viewBox="0 0 82 82" version="1.1" xmlns="http://www.w3.org/2000/svg" xmlns:xlink="http://www.w3.org/1999/xlink">
    <g id="Page-1" stroke="none" stroke-width="1" fill="none" fill-rule="evenodd">
        <g id="live" fill="#000000" fill-rule="nonzero">
            <path d="M39.531,78.285 L39.406,81.4061 C39.93725,81.429538 40.4685,81.43735 40.9998,81.43735 C42.6404,81.43735 44.3006,81.339694 45.9334,81.14047 L45.5584,78.03887 C43.5623,78.28106 41.5232,78.35918 39.5311,78.28496 L39.531,78.285 Z" id="Path"></path>
            <path d="M57.098,74.695 L58.4418,77.5153 C60.4027,76.5778 62.309,75.4762 64.0941,74.2419 L62.3129,71.6716 C60.6645,72.8122 58.9106,73.8278 57.0981,74.695 L57.098,74.695 Z" id="Path"></path>
            <path d="M48.535,77.555 L49.16,80.6175 C51.2967,80.18 53.41,79.5706 55.4373,78.7972 L54.3279,75.8753 C52.4568,76.58624 50.5076,77.1526 48.5349,77.555 L48.535,77.555 Z" id="Path"></path>
            <path d="M64.73,69.852 L66.7066,72.2739 C68.3902,70.8989 69.9722,69.3755 71.4175,67.7466 L69.0777,65.6763 C67.7457,67.1763 66.2808,68.5825 64.73,69.8521 L64.73,69.852 Z" id="Path"></path>
            <path d="M20.73,76.027 C22.6167,77.1129 24.605,78.0582 26.6402,78.8278 L27.7457,75.9059 C25.8668,75.19496 24.0348,74.3278 22.2926,73.3239 L20.73,76.027 Z" id="Path"></path>
            <path d="M29.746,79.855 C31.8358,80.45656 33.9882,80.8902 36.1522,81.148 L36.52329,78.0464 C34.53109,77.80812 32.53889,77.40578 30.60919,76.8511 L29.746,79.855 Z" id="Path"></path>
            <path d="M24.832,6.969 L23.4804,4.1526 C21.5195,5.09401 19.621,6.1995 17.8359,7.4378 L19.6211,10.0042 C21.2656,8.8597 23.0195,7.8362 24.832,6.969 L24.832,6.969 Z" id="Path"></path>
            <path d="M76.535,28.797 L79.4959,27.797 C78.79668,25.7345 77.9256,23.715 76.91,21.797 L74.1483,23.2618 C75.0858,25.0313 75.8905,26.8946 76.535,28.797 Z" id="Path"></path>
            <path d="M72.625,20.652 L75.2578,18.9723 C74.0859,17.1403 72.7578,15.3903 71.3125,13.7653 L68.9805,15.8473 C70.3203,17.3434 71.5469,18.9606 72.625,20.652 Z" id="Path"></path>
            <path d="M70.988,63.332 L73.488,65.207 C74.7966,63.4648 75.9724,61.6093 76.9841,59.6875 L74.2185,58.2305 C73.28491,60.0078 72.1951,61.7227 70.988,63.3321 L70.988,63.332 Z" id="Path"></path>
            <path d="M6.457,26.188 L3.5781,24.9692 C2.72654,26.977 2.0351,29.063 1.5234,31.1801 L4.5586,31.91838 C5.03516,29.96918 5.6719,28.03948 6.457,26.18788 L6.457,26.188 Z" id="Path"></path>
            <path d="M75.512,55.508 L78.387,56.7346 C79.23856,54.7307 79.9378,52.6448 80.4573,50.5276 L77.4221,49.78151 C76.94163,51.73461 76.2971,53.66041 75.5119,55.50811 L75.512,55.508 Z" id="Path"></path>
            <path d="M78.5,40.65199 L78.5,40.81216 C78.5,42.82776 78.33984,44.85126 78.01953,46.82776 L81.10543,47.32385 C81.44918,45.18325 81.62496,42.99185 81.62496,40.81215 L81.62496,40.65199 L78.5,40.65199 Z" id="Path"></path>
            <path d="M78.367,37.641 L81.4803,37.38319 C81.30061,35.21129 80.94124,33.04339 80.4139,30.93789 L77.3827,31.6957 C77.86708,33.6332 78.19911,35.6371 78.36708,37.641 L78.367,37.641 Z" id="Path"></path>
            <path d="M3.969,34.875 L0.8831,34.38281 C0.54716,36.49611 0.37529,38.65621 0.37529,40.81251 L0.37529,40.890635 L3.50029,40.81251 C3.50029,38.82421 3.65654,36.82421 3.96904,34.87501 L3.969,34.875 Z" id="Path"></path>
            <path d="M3.625,43.906 L0.5117,44.15991 C0.68748,46.33571 1.04295,48.50371 1.5664,50.60911 L4.5976,49.85911 C4.11713,47.91771 3.78901,45.91381 3.62494,43.906 L3.625,43.906 Z" id="Path"></path>
            <path d="M5.441,52.75799 L2.4762,53.75019 C3.17151,55.81269 4.0387,57.83219 5.0504,59.75799 L7.816,58.29709 C6.88241,56.52369 6.0777,54.65649 5.441,52.75799 L5.441,52.75799 Z" id="Path"></path>
            <path d="M17.211,11.82 L15.2266,9.4059 C13.5469,10.7848 11.9688,12.3121 10.5274,13.9411 L12.8712,16.0114 C14.2032,14.5036 15.6642,13.0934 17.211,11.82 L17.211,11.82 Z" id="Path"></path>
            <path d="M10.965,18.355 L8.465,16.48 C7.1603,18.2222 5.9884,20.0855 4.9806,22.0112 L7.7501,23.4565 C8.67588,21.6792 9.7579,19.9643 10.9649,18.3549 L10.965,18.355 Z" id="Path"></path>
            <path d="M9.332,60.906 L6.6953,62.5818 C7.8594,64.4138 9.1836,66.1677 10.6328,67.7966 L12.9687,65.7224 C11.6328,64.2185 10.4062,62.6013 9.332,60.906 L9.332,60.906 Z" id="Path"></path>
            <path d="M55.281,2.77 L54.1794,5.6958 C56.0622,6.40283 57.8982,7.2661 59.6364,8.2661 L61.1911,5.5552 C59.3122,4.4771 57.3239,3.5396 55.2809,2.77 L55.281,2.77 Z" id="Path"></path>
            <path d="M12.902,70.152 C14.4762,71.6598 16.1793,73.0465 17.9645,74.2809 L19.7379,71.7106 C18.0895,70.57 16.5152,69.2887 15.0582,67.8981 L12.902,70.152 Z" id="Path"></path>
            <path d="M62.195,9.871 C63.8473,11.0038 65.4216,12.2851 66.8825,13.6757 L69.0387,11.414 C67.4606,9.9101 65.7575,8.5234 63.9645,7.2968 L62.195,9.871 Z" id="Path"></path>
            <path d="M45.766,0.465 L45.40272,3.5666 C47.39492,3.80098 49.38712,4.19941 51.31682,4.7463 L52.17229,1.7385 C50.08639,1.14866 47.93009,0.719 45.76609,0.4651 L45.766,0.465 Z" id="Path"></path>
            <path d="M42.398,3.336 L42.50737,0.2149 C41.99565,0.195368 41.43707,0.168025 40.96437,0.187556 C39.30417,0.187556 37.62847,0.289116 35.98387,0.492246 L36.36668,3.593846 C37.88228,3.406346 39.42918,3.312596 40.96438,3.312596 C41.45266,3.328221 41.92141,3.320408 42.39798,3.336034 L42.398,3.336 Z" id="Path"></path>
            <path d="M32.758,1.023 C30.6252,1.4605 28.5158,2.0777 26.4846,2.8589 L27.6018,5.7769 C29.4729,5.05815 31.4221,4.4917 33.387,4.0855 L32.758,1.023 Z" id="Path"></path>
            <path d="M41,72.062 C58.23,72.062 72.25,58.042 72.25,40.812 C72.25,23.582 58.23,9.562 41,9.562 C23.77,9.562 9.75,23.582 9.75,40.812 C9.75,58.042 23.77,72.062 41,72.062 Z M12.953,42.374 L19.1249,42.374 L19.1249,50.1865 C19.1249,51.04978 19.82412,51.749 20.6874,51.749 L26.3476,51.749 C27.6054,58.6787 29.9335,64.214 32.9257,67.741 C21.8237,64.4051 13.6167,54.386 12.9527,42.374 L12.953,42.374 Z M42.562,12.944 C46.8589,14.2409 50.7182,20.7643 52.4839,29.874 L42.562,29.874 L42.562,12.944 Z M39.437,12.944 L39.437,29.874 L29.5151,29.874 C31.2807,20.7646 35.1401,14.241 39.437,12.944 Z M59.749,32.999 L59.749,48.624 L22.249,48.624 L22.249,32.999 L59.749,32.999 Z M39.437,68.679 C35.1401,67.3821 31.2808,60.8587 29.5151,51.749 L39.437,51.749 L39.437,68.679 Z M42.562,68.679 L42.562,51.749 L52.4839,51.749 C50.7183,60.8584 46.8589,67.382 42.562,68.679 Z M49.0737,67.7415 C52.0659,64.2142 54.394,58.679 55.6518,51.7495 L61.312,51.7495 C62.17528,51.7495 62.8745,51.05028 62.8745,50.187 L62.8745,42.3745 L69.0464,42.3745 C68.38234,54.3865 60.1753,64.4055 49.0734,67.7415 L49.0737,67.7415 Z M69.0467,39.2495 L62.8748,39.2495 L62.8748,31.437 C62.8748,30.57372 62.17558,29.8745 61.3123,29.8745 L55.6521,29.8745 C54.3943,22.9448 52.0662,17.4095 49.074,13.8825 C60.176,17.2184 68.383,27.2375 69.047,39.2495 L69.0467,39.2495 Z M32.9257,13.8825 C29.9335,17.4098 27.6054,22.945 26.3476,29.8745 L20.6874,29.8745 C19.82412,29.8745 19.1249,30.57372 19.1249,31.437 L19.1249,39.2495 L12.953,39.2495 C13.61706,27.2375 21.8241,17.2185 32.926,13.8825 L32.9257,13.8825 Z" id="Shape"></path>
            <path d="M25.375,47.062 L33.1875,47.062 L33.1875,43.937 L26.9375,43.937 L26.9375,34.562 L23.8125,34.562 L23.8125,45.5 C23.8125,46.36328 24.51172,47.0625 25.375,47.0625 L25.375,47.062 Z" id="Path"></path>
            <path d="M51.938,47.062 L58.188,47.062 L58.188,43.937 L53.5005,43.937 L53.5005,42.3745 L58.188,42.3745 L58.188,39.2495 L53.5005,39.2495 L53.5005,37.687 L58.188,37.687 L58.188,34.562 L51.938,34.562 C51.07472,34.562 50.3755,35.26122 50.3755,36.1245 L50.3755,45.4995 C50.3755,46.36278 51.07472,47.062 51.938,47.062 Z" id="Path"></path>
            <path d="M42.824,46.367 C43.11697,46.80059 43.60134,47.06231 44.1248,47.06231 C44.64826,47.06231 45.1326,46.80059 45.4256,46.367 L48.5506,41.6795 C48.71857,41.42169 48.81232,41.12091 48.81232,40.81231 L48.81232,34.56231 L45.68732,34.56231 L45.68732,40.33961 L44.12482,42.68341 L42.56232,40.33961 L42.56232,34.56231 L39.43732,34.56231 L39.43732,40.81231 C39.43732,41.1209 39.53107,41.42169 39.69904,41.6795 L42.824,46.367 Z" id="Path"></path>
            <polygon id="Path" points="34.75 34.562 37.875 34.562 37.875 47.062 34.75 47.062"></polygon>
        </g>
    </g>
</svg>