<svg width="90px" height="90px" viewBox="0 0 90 90" version="1.1" xmlns="http://www.w3.org/2000/svg" xmlns:xlink="http://www.w3.org/1999/xlink">
    <g id="Page-1" stroke="none" stroke-width="1" fill="none" fill-rule="evenodd">
        <g id="maintenance" fill="#000000" fill-rule="nonzero">
            <g>
                <path d="M21.77,28.07 L12.0864,18.3825 L11.62937,19.4372 C9.13717,25.1833 10.37547,31.7462 14.78957,36.1602 C17.64117,39.0118 21.43407,40.586 25.46957,40.586 C27.72737,40.586 29.97347,40.07428 31.99687,39.1055 L37.89917,45.0078 L32.00077,50.9062 C29.97737,49.93354 27.73127,49.4257 25.47347,49.4257 C21.43827,49.4257 17.64537,50.996 14.79347,53.8515 C10.37547,58.2695 9.13327,64.8315 11.63327,70.5745 L11.691864,70.71122 L19.309064,78.32842 L19.445784,78.387014 C21.359884,79.222954 23.394984,79.644814 25.492684,79.644814 C29.519984,79.644814 33.309084,78.074514 36.156684,75.226814 C40.738684,70.656514 41.887184,63.800814 39.101984,58.003814 L45.000384,52.089714 L50.902684,57.992014 C48.113584,63.792814 49.262084,70.644014 53.847984,75.215014 C56.695684,78.062714 60.484684,79.633014 64.511984,79.633014 C66.609684,79.633014 68.640884,79.211144 70.558884,78.375214 L71.609684,77.918184 L61.926084,68.234584 L68.238584,61.933784 L77.914384,71.617384 L78.371414,70.566584 C80.867514,64.828284 79.629214,58.261584 75.211214,53.843584 C72.359614,50.991984 68.566714,49.417784 64.527214,49.417784 C62.269414,49.417784 60.023314,49.929504 57.999914,50.898284 L52.093714,44.999884 L62.620714,34.479884 L70.073814,32.890084 L78.663614,19.644084 L70.347214,11.343284 L57.101214,19.921384 L55.523114,27.386184 L44.996114,37.906184 L39.093814,32.003884 C41.882914,26.206984 40.730514,19.351884 36.152414,14.780884 C33.304714,11.933184 29.515714,10.362884 25.488414,10.362884 C23.390714,10.362884 21.359514,10.784764 19.445414,11.620684 L18.394614,12.077714 L28.078214,21.765214 L21.77,28.07 Z M20.1997,77.004 L13.0044,69.8087 C12.33643,68.2306 11.9849,66.586 11.9302,64.9493 L25.0322,78.0513 C23.3642,77.996613 21.7392,77.65286 20.2002,77.0044 L20.1997,77.004 Z M27.1489,77.96103 L12.0239,62.83603 C12.16843,61.68763 12.46531,60.56653 12.89499,59.48833 L30.51199,77.10533 C29.44169,77.53111 28.31279,77.81627 27.14869,77.9608 L27.1489,77.96103 Z M32.0122,76.39083 L13.6062,57.98873 C14.09058,57.11764 14.6765,56.28953 15.3601,55.52393 L34.4731,74.63693 C33.71138,75.31271 32.8911,75.90643 32.0122,76.39083 L32.0122,76.39083 Z M57.7032,52.81273 L58.21101,52.5432 C60.14071,51.5198 62.32821,50.9807 64.52741,50.9807 C68.14461,50.9807 71.54691,52.3909 74.10551,54.9495 C77.78911,58.6331 79.00781,63.9847 77.35941,68.8515 L68.24221,59.7226 L59.71491,68.2343 L68.84381,77.3671 C67.44931,77.83585 66.00001,78.07413 64.51181,78.07413 C60.90241,78.07413 57.50791,76.66793 54.95321,74.11323 C50.72271,69.89443 49.75401,63.50023 52.54701,58.20723 L52.81654,57.69942 L46.10564,50.98852 L46.43767,50.65649 L50.99237,46.10959 L57.7032,52.81273 Z M46.1012,39.01173 L56.9532,28.16373 L58.4923,20.87853 L70.1333,13.33943 L76.6567,19.85503 L69.1059,31.49603 L61.8364,33.05073 L45.7424,49.14073 L43.8947,50.98453 L37.1838,57.69543 L37.45333,58.20324 C40.12133,63.26184 39.35173,69.31624 35.58613,73.52724 L16.47313,54.42224 C18.95363,52.20744 22.11373,50.98084 25.46923,50.98084 C27.66843,50.98084 29.85203,51.5199 31.78563,52.54334 L32.29344,52.81287 L39.00044,46.10977 L39.004346,46.113676 L46.102046,39.015976 L46.1012,39.01173 Z M21.1522,12.63273 C22.5428,12.16398 23.996,11.9257 25.4842,11.9257 C29.0975,11.9257 32.492,13.3319 35.0467,15.8866 C39.2772,20.1054 40.242,26.4996 37.449,31.7926 L37.17947,32.30041 L43.89037,39.00741 L38.99977,43.89411 L32.29667,37.18711 L31.78495,37.45664 C29.85525,38.48004 27.66775,39.01914 25.46855,39.01914 C21.85135,39.01914 18.44905,37.60894 15.89435,35.05434 C12.21465,31.37464 10.99595,26.02704 12.64045,21.14834 L21.76935,30.27724 L30.28105,21.76554 L21.1522,12.63273 Z" id="Shape"></path>
                <path d="M26.703,87.18 C26.703,85.8206 25.5975,84.7152 24.2382,84.7152 C22.8789,84.7152 21.7734,85.8207 21.7734,87.18 C21.7734,88.5394 22.8789,89.6448 24.2382,89.6448 C25.5975,89.6448 26.703,88.5393 26.703,87.18 Z M22.5546,87.18 C22.5546,86.25031 23.31241,85.4964 24.2382,85.4964 C25.16789,85.4964 25.9218,86.25421 25.9218,87.18 C25.9218,88.10969 25.16399,88.8636 24.2382,88.8636 C23.30851,88.8636 22.5546,88.10579 22.5546,87.18 Z" id="Shape"></path>
                <path d="M1.4609,30.562 L3.6992,29.3862 L5.9375,30.562 L5.51172,28.0698 L7.32032,26.3042 L4.82032,25.94092 L3.69922,23.67532 L2.58202,25.94092 L0.08202,26.3042 L1.89062,28.0698 L1.4609,30.562 Z M1.75777,26.8511 L3.09757,26.65579 L3.69913,25.44099 L4.30069,26.65579 L5.64049,26.8511 L4.66783,27.79641 L4.8983,29.13231 L3.6991,28.5034 L2.4999,29.13621 L2.73037,27.80031 L1.75777,26.8511 Z" id="Shape"></path>
                <path d="M22.707,6.727 L24.3047,5.88716 L25.9024,6.727 L25.59771,4.9497 L26.89071,3.688 L25.10551,3.42628 L24.30473,1.80908 L23.50395,3.42628 L21.71875,3.688 L23.01175,4.9497 L22.707,6.727 Z M24.0234,4.1411 L24.30465,3.57469 L24.58199,4.1411 L25.2109,4.230944 L24.75777,4.672354 L24.86324,5.297354 L24.30465,5.004384 L23.74606,5.297354 L23.85153,4.672354 L23.3945,4.230944 L24.0234,4.1411 Z" id="Shape"></path>
                <path d="M82.961,65.812 L84.254,67.0737 L83.94931,68.851 L85.54701,68.01116 L87.14471,68.851 L86.84002,67.0737 L88.13302,65.812 L86.34782,65.55028 L85.54704,63.93308 L84.75016,65.55028 L82.961,65.812 Z M85.5508,65.69872 L85.83205,66.26513 L86.46096,66.354974 L86.00783,66.796384 L86.1133,67.421384 L85.55471,67.128414 L84.99612,67.421384 L85.10159,66.796384 L84.64847,66.354974 L85.27738,66.26513 L85.5508,65.69872 Z" id="Shape"></path>
                <path d="M85.551,9.301 L84.5158,12.4846 L81.1681,12.488506 L83.8751,14.457306 L82.8399,17.640906 L85.5469,15.672106 L88.2539,17.640906 L87.2187,14.457306 L89.9257,12.488506 L86.578,12.488506 L85.551,9.301 Z M86.30491,14.1565 L86.76975,15.5901 L85.54705,14.70338 L84.32435,15.5901 L84.78919,14.1526 L83.56649,13.26588 L85.07819,13.26588 L85.54303,11.82838 L86.00787,13.26588 L87.51957,13.26588 L86.30491,14.1565 Z" id="Shape"></path>
                <path d="M77.262,0.3555 C75.9026,0.3555 74.7972,1.461 74.7972,2.8203 C74.7972,4.1797 75.9027,5.2851 77.262,5.2851 C78.6213,5.2851 79.7268,4.1796 79.7268,2.8203 C79.7268,1.4609 78.6213,0.3555 77.262,0.3555 Z M77.262,4.5078 C76.33231,4.5078 75.5784,3.74999 75.5784,2.8242 C75.5784,1.89451 76.33621,1.1406 77.262,1.1406 C78.19169,1.1406 78.9456,1.89841 78.9456,2.8242 C78.9456,3.74999 78.19169,4.5078 77.262,4.5078 Z" id="Shape"></path>
                <path d="M85.16,46.027 C85.16,47.1247 86.05453,48.0192 87.1522,48.0192 C88.24987,48.0192 89.1444,47.12467 89.1444,46.027 C89.1444,44.92933 88.24987,44.0348 87.1522,44.0348 C86.0506,44.0348 85.16,44.92933 85.16,46.027 Z M87.1483,44.8161 C87.81627,44.8161 88.3592,45.35907 88.3592,46.027 C88.3592,46.69497 87.81623,47.2379 87.1483,47.2379 C86.48033,47.2379 85.9374,46.69493 85.9374,46.027 C85.941306,45.35903 86.48037,44.8161 87.1483,44.8161 Z" id="Shape"></path>
                <path d="M10.414,15.461 C11.8437,15.461 13.0038,14.3008 13.0038,12.8712 C13.0038,11.4415 11.8436,10.2814 10.414,10.2814 C8.9843,10.2814 7.8242,11.4416 7.8242,12.8712 C7.8242,14.297 8.9883,15.461 10.414,15.461 L10.414,15.461 Z M10.414,11.0626 C11.41009,11.0626 12.2226,11.8751 12.2226,12.8712 C12.2226,13.8673 11.4101,14.6798 10.414,14.6798 C9.41791,14.6798 8.6054,13.8673 8.6054,12.8712 C8.6054,11.8712 9.4179,11.0626 10.414,11.0626 Z" id="Shape"></path>
                <path d="M17.895,86.57 L17.70359,87.32781 C18.04343,87.413747 18.39109,87.49187 18.73879,87.56219 L18.89113,86.79657 C18.55519,86.726257 18.22316,86.65204 17.89504,86.57001 L17.895,86.57 Z" id="Path"></path>
                <path d="M1.625,66.723 C1.625,67.06675 1.632812,67.4105 1.648438,67.7503 L2.429688,67.711238 C2.414062,67.383108 2.40625,67.051078 2.40625,66.722958 C2.40625,66.383118 2.414062,66.043268 2.429688,65.703458 L1.648438,65.664395 C1.632812,66.015955 1.625,66.367525 1.625,66.722995 L1.625,66.723 Z" id="Path"></path>
                <path d="M4.6484,77.621 C5.00387,78.21475 5.39449,78.7968 5.8046,79.3554 L6.43351,78.89056 C6.03898,78.3554 5.66007,77.79286 5.32021,77.21866 L4.6484,77.621 Z" id="Path"></path>
                <path d="M12.34,84.266 C11.76969,83.92225 11.2072,83.54725 10.672,83.1488 L10.20716,83.77771 C10.76575,84.19177 11.34776,84.5824 11.93766,84.93791 L12.34,84.266 Z" id="Path"></path>
                <path d="M3.0195,71.676 C2.85544,71.02756 2.72653,70.3674 2.62888,69.7072 L1.85544,69.82048 C1.957,70.50407 2.09372,71.19158 2.26169,71.86348 L3.0195,71.676 Z" id="Path"></path>
                <path d="M15.969,85.988 C15.34009,85.76144 14.7151,85.50362 14.1135,85.21847 L13.77756,85.9255 C14.40256,86.22238 15.05096,86.49191 15.70336,86.72628 L15.969,85.988 Z" id="Path"></path>
                <path d="M4.3711,75.449 C4.08594,74.84353 3.82813,74.2185 3.60157,73.5935 L2.8672,73.85522 C3.09767,74.50366 3.3672,75.15212 3.66798,75.78102 L4.3711,75.449 Z" id="Path"></path>
                <path d="M8.598,82.44902 L9.12534,81.87088 C8.62925,81.42166 8.15268,80.94119 7.70734,80.44898 L7.12531,80.97242 C7.58625,81.48414 8.08234,81.98022 8.59801,82.44902 L8.598,82.44902 Z" id="Path"></path>
                <path d="M2.8086,62.68 L2.04298,62.52766 C1.972667,62.87532 1.91407,63.22297 1.85939,63.57456 L2.63283,63.68784 C2.683612,63.3519 2.74221,63.01596 2.80861,62.68004 L2.8086,62.68 Z" id="Path"></path>
                <path d="M88.441,74.18 L87.65975,74.164374 C87.651938,74.504214 87.636313,74.844064 87.605063,75.176074 L88.382403,75.246387 C88.409747,74.898727 88.429279,74.539357 88.440997,74.179987 L88.441,74.18 Z" id="Path"></path>
                <path d="M76.766,88.332 C77.52381,88.17184 78.2777,87.94528 79.0043,87.66403 L78.72305,86.93747 C78.03555,87.20309 77.32075,87.41794 76.60195,87.57028 L76.766,88.332 Z" id="Path"></path>
                <path d="M80.715,85.973 L81.10953,86.64878 C81.78141,86.25815 82.42593,85.80894 83.02753,85.31288 L82.53144,84.70741 C81.96113,85.17616 81.35174,85.60194 80.71504,85.97301 L80.715,85.973 Z" id="Path"></path>
                <path d="M86.508,79.457 L87.22284,79.7695 C87.53143,79.05466 87.78925,78.3125 87.98065,77.5586 L87.22284,77.36329 C87.04315,78.07423 86.80096,78.78129 86.508,79.45709 L86.508,79.457 Z" id="Path"></path>
                <path d="M84.129,83.176 L84.71494,83.69553 C85.23447,83.1135 85.70713,82.48463 86.12514,81.83223 L85.46498,81.41035 C85.07045,82.02754 84.62123,82.62125 84.12908,83.17595 L84.129,83.176 Z" id="Path"></path>
                <path d="M73.387,87.871 L73.371375,88.65225 C73.472935,88.656156 73.574495,88.656156 73.676065,88.656156 C73.933875,88.656156 74.187785,88.648344 74.441685,88.636625 L74.402623,87.855375 C74.066683,87.871 73.726843,87.878812 73.387023,87.871 L73.387,87.871 Z" id="Path"></path>
                <polygon id="Path" points="86.758 37.059 87.53925 37.059 87.53925 39.141 86.758 39.141"></polygon>
                <polygon id="Path" points="86.758 28.727 87.53925 28.727 87.53925 30.809 86.758 30.809"></polygon>
                <polygon id="Path" points="86.758 24.559 87.53925 24.559 87.53925 26.641 86.758 26.641"></polygon>
                <polygon id="Path" points="86.758 32.895 87.53925 32.895 87.53925 34.977 86.758 34.977"></polygon>
            </g>
            <g id="qoom" transform="translate(45.000000, 45.250000) rotate(-44.000000) translate(-45.000000, -45.250000) translate(36.000000, 43.000000)">
                <path d="M3.83262271,4.03889336 L3.83262271,3.55458842 L3.253147,3.55458842 C3.43537207,3.389566 3.57750762,3.19405031 3.67955365,2.96804134 C3.78159969,2.74203237 3.83262271,2.50167363 3.83262271,2.2469651 C3.83262271,2.00301892 3.78524419,1.76983506 3.69048716,1.54741353 C3.59573012,1.32499201 3.46452808,1.13127004 3.29688102,0.966247616 C3.12923396,0.801225195 2.93425314,0.672077213 2.71193856,0.578803671 C2.48962398,0.485530128 2.25455365,0.438893357 2.00672757,0.438893357 C1.75890148,0.438893357 1.52474227,0.485530128 1.30424994,0.578803671 C1.08375762,0.672077213 0.889687924,0.801225195 0.722040865,0.966247616 C0.554393806,1.1276826 0.42319176,1.32050771 0.328434727,1.54472295 C0.233677693,1.7689382 0.186299177,2.00301892 0.186299177,2.2469651 C0.186299177,2.4909113 0.232766568,2.72140457 0.325701351,2.93844493 C0.418636133,3.15548529 0.550749305,3.34651668 0.722040865,3.5115391 C0.893332424,3.67656152 1.08922437,3.8057095 1.30971669,3.89898304 C1.53020902,3.99225658 1.76254598,4.03889336 2.00672757,4.03889336 L2.00672757,4.03889336 L3.83262271,4.03889336 Z M2.03041682,3.54798427 C1.85012149,3.54798427 1.67810503,3.51489932 1.51436744,3.44872942 C1.35062985,3.38255953 1.20620961,3.28866981 1.08110673,3.16706027 C0.956003849,3.04545073 0.859417068,2.90506325 0.791346381,2.74589783 C0.723275695,2.5867324 0.689240353,2.41951929 0.689240353,2.24425848 C0.689240353,2.06542093 0.72419557,1.89463106 0.794106003,1.73188889 C0.864016436,1.56914671 0.959683345,1.42875923 1.08110673,1.31072644 C1.20620961,1.1891169 1.35062985,1.09522718 1.51436744,1.02905729 C1.67810503,0.962887397 1.85012149,0.929802447 2.03041682,0.929802447 C2.21071215,0.929802447 2.38272861,0.962887397 2.54646621,1.02905729 C2.7102038,1.09522718 2.85462404,1.1891169 2.97972692,1.31072644 C3.1011503,1.42875923 3.19681721,1.56914671 3.26672765,1.73188889 C3.33663808,1.89463106 3.37159329,2.06542093 3.37159329,2.24425848 C3.37159329,2.41951929 3.33755795,2.5867324 3.26948727,2.74589783 C3.20141658,2.90506325 3.1048298,3.04545073 2.97972692,3.16706027 C2.85462404,3.28866981 2.7102038,3.38255953 2.54646621,3.44872942 C2.38272861,3.51489932 2.21071215,3.54798427 2.03041682,3.54798427 Z M6.15599229,4.03889336 C6.40381835,4.03889336 6.6388887,3.99225658 6.86120329,3.89898304 C7.08351783,3.8057095 7.27849865,3.67656152 7.44614571,3.5115391 C7.61379277,3.34651668 7.74499483,3.15369156 7.83975188,2.93306376 C7.93450889,2.71243596 7.98188741,2.48014896 7.98188741,2.23620277 C7.98188741,1.99225658 7.93450889,1.76086645 7.83975188,1.54203237 C7.74499483,1.32319829 7.61379277,1.13127004 7.44614571,0.966247616 C7.27849865,0.801225195 7.08351783,0.672077213 6.86120329,0.578803671 C6.6388887,0.485530128 6.40381835,0.438893357 6.15599229,0.438893357 C5.90816618,0.438893357 5.67400699,0.485530128 5.45351465,0.578803671 C5.2330223,0.672077213 5.03895264,0.801225195 4.87130558,0.966247616 C4.700014,1.13485748 4.56790083,1.32768259 4.47496606,1.54472295 C4.38203129,1.76176331 4.33556388,1.99225658 4.33556388,2.23620277 C4.33556388,2.48014896 4.38294241,2.71243596 4.47769942,2.93306376 C4.57245647,3.15369156 4.70365852,3.34651668 4.87130558,3.5115391 C5.03895264,3.68014896 5.2330223,3.8101938 5.45351465,3.90167363 C5.67400699,3.99315345 5.90816618,4.03889336 6.15599229,4.03889336 Z M6.17968153,3.54798427 C5.99938621,3.54798427 5.82736973,3.51489932 5.66363216,3.44872942 C5.49989454,3.38255953 5.35547431,3.28866981 5.23037143,3.16706027 C5.10894806,3.04902749 5.01328114,2.90864 4.94337073,2.74589783 C4.87346027,2.58315565 4.83850506,2.41236579 4.83850506,2.23352823 C4.83850506,2.05826743 4.87254039,1.89105431 4.94061109,1.73188889 C5.00868179,1.57272346 5.10526854,1.43233598 5.23037143,1.31072644 C5.35547431,1.1891169 5.49989454,1.09522718 5.66363216,1.02905729 C5.82736973,0.962887397 5.99938621,0.929802447 6.17968153,0.929802447 C6.35997685,0.929802447 6.53199333,0.962887397 6.6957309,1.02905729 C6.85946852,1.09522718 7.00388875,1.1891169 7.12899163,1.31072644 C7.25409452,1.43233598 7.35068127,1.57272346 7.41875197,1.73188889 C7.48682267,1.89105431 7.520858,2.05826743 7.520858,2.23352823 C7.520858,2.41236579 7.48590279,2.58315565 7.41599233,2.74589783 C7.34608192,2.90864 7.250415,3.04902749 7.12899163,3.16706027 C7.00388875,3.28866981 6.85946852,3.38255953 6.6957309,3.44872942 C6.53199333,3.51489932 6.35997685,3.54798427 6.17968153,3.54798427 Z M10.305257,4.03889336 C10.5530831,4.03889336 10.7881534,3.99225658 11.010468,3.89898304 C11.2327825,3.8057095 11.4277634,3.67656152 11.5954104,3.5115391 C11.7630575,3.34651668 11.8942595,3.15369156 11.9890166,2.93306376 C12.0837736,2.71243596 12.1311521,2.48014896 12.1311521,2.23620277 C12.1311521,1.99225658 12.0837736,1.76086645 11.9890166,1.54203237 C11.8942595,1.32319829 11.7630575,1.13127004 11.5954104,0.966247616 C11.4277634,0.801225195 11.2327825,0.672077213 11.010468,0.578803671 C10.7881534,0.485530128 10.5530831,0.438893357 10.305257,0.438893357 C10.0574309,0.438893357 9.8232717,0.485530128 9.60277935,0.578803671 C9.38228701,0.672077213 9.18821735,0.801225195 9.02057029,0.966247616 C8.84927871,1.13485748 8.71716553,1.32768259 8.62423076,1.54472295 C8.53129599,1.76176331 8.48482859,1.99225658 8.48482859,2.23620277 C8.48482859,2.48014896 8.53220711,2.71243596 8.62696412,2.93306376 C8.72172118,3.15369156 8.85292323,3.34651668 9.02057029,3.5115391 C9.18821735,3.68014896 9.38228701,3.8101938 9.60277935,3.90167363 C9.8232717,3.99315345 10.0574309,4.03889336 10.305257,4.03889336 Z M16.0291353,0.561620629 C16.2581269,0.561620629 16.4687992,0.616411538 16.6611521,0.725993357 C16.8535051,0.835575175 17.0057845,0.985411537 17.1179904,1.17550245 C17.2301963,1.36559336 17.2862992,1.57245699 17.2862992,1.79609336 L17.2862992,1.79609336 L17.2862992,3.91616608 L16.8191563,3.91616608 L16.8191563,1.79609336 C16.8191563,1.58140245 16.7412992,1.39913881 16.5855849,1.24930245 C16.4298706,1.09946608 16.2443874,1.0245479 16.0291353,1.0245479 C15.8093034,1.0245479 15.6226752,1.09946608 15.4692509,1.24930245 C15.3158265,1.39913881 15.2391143,1.57916608 15.2391143,1.78938427 L15.2391143,1.78938427 L15.2391143,3.91616608 L14.7651017,3.91616608 L14.7651017,1.78938427 C14.7651017,1.57916608 14.6872446,1.39913881 14.5315303,1.24930245 C14.375816,1.09946608 14.1903328,1.0245479 13.9750807,1.0245479 C13.7598286,1.0245479 13.5743454,1.10170245 13.4186311,1.25601154 C13.2629168,1.41032063 13.1850597,1.59482063 13.1850597,1.80951154 L13.1850597,1.80951154 L13.1850597,3.91616608 L12.7179168,3.91616608 L12.7179168,0.648838811 L13.1850597,0.648838811 L13.1850597,0.910493357 C13.2766563,0.803147902 13.394587,0.718166084 13.5388517,0.655547902 C13.6831164,0.59292972 13.8285261,0.561620629 13.9750807,0.561620629 C14.1811731,0.561620629 14.374671,0.608584266 14.5555744,0.702511538 C14.7364777,0.796438811 14.8841773,0.921675173 14.9986731,1.07822063 C15.1177488,0.921675173 15.2677383,0.796438811 15.4486416,0.702511538 C15.629545,0.608584266 15.8230429,0.561620629 16.0291353,0.561620629 Z M10.3289462,0.929802447 C10.5092416,0.929802447 10.681258,0.962887397 10.8449956,1.02905729 C11.0087332,1.09522718 11.1531535,1.1891169 11.2782563,1.31072644 C11.4033592,1.43233598 11.499946,1.57272346 11.5680167,1.73188889 C11.6360874,1.89105431 11.6701227,2.05826743 11.6701227,2.23352823 C11.6701227,2.41236579 11.6351675,2.58315565 11.565257,2.74589783 C11.4953466,2.90864 11.3996797,3.04902749 11.2782563,3.16706027 C11.1531535,3.28866981 11.0087332,3.38255953 10.8449956,3.44872942 C10.681258,3.51489932 10.5092416,3.54798427 10.3289462,3.54798427 C10.1486509,3.54798427 9.97663443,3.51489932 9.81289686,3.44872942 C9.64915925,3.38255953 9.50473902,3.28866981 9.37963613,3.16706027 C9.25821276,3.04902749 9.16254585,2.90864 9.09263543,2.74589783 C9.02272497,2.58315565 8.98776977,2.41236579 8.98776977,2.23352823 C8.98776977,2.05826743 9.02180509,1.89105431 9.08987579,1.73188889 C9.15794649,1.57272346 9.25453324,1.43233598 9.37963613,1.31072644 C9.50473902,1.1891169 9.64915925,1.09522718 9.81289686,1.02905729 C9.97663443,0.962887397 10.1486509,0.929802447 10.3289462,0.929802447 Z" id="Shape"></path>
            </g>
        </g>
    </g>
</svg>