<svg width="56px" height="52px" viewBox="0 0 56 52" version="1.1" xmlns="http://www.w3.org/2000/svg" xmlns:xlink="http://www.w3.org/1999/xlink">
    <g id="merge" stroke="none" stroke-width="1" fill="none" fill-rule="evenodd">
        <g id="Desktop" transform="translate(-678.000000, -751.000000)" fill="#000000" fill-rule="nonzero">
            <g id="np_merge_3080131_000000" transform="translate(706.000000, 777.000000) rotate(90.000000) translate(-706.000000, -777.000000) translate(680.000000, 749.000000)">
                <path d="M17,8.41 C17.011719,5.328 15.2656,2.5116 12.5,1.1561 C9.7344,-0.2033 6.4375,0.1327 4.0078,2.02719 C1.5742,3.91779 0.4375,7.03109 1.0742,10.04279 C1.71092,13.05839 4.0117,15.44509 7,16.19119 L7,39.80819 C3.0703,40.81599 0.5039,44.58939 1.0117,48.61679 C1.51951,52.64019 4.9453,55.65589 9,55.65589 C13.0547,55.65589 16.4805,52.64029 16.9883,48.61679 C17.49611,44.58949 14.9297,40.81599 11,39.80819 L11,16.19119 C14.543,15.27322 17.0156,12.07009 17,8.40999 L17,8.41 Z M4.898,8.41 C4.921437,6.7967 5.9058,5.3553 7.4019,4.7498 C8.898,4.14824 10.6128,4.4998 11.7457,5.64824 C12.8785,6.79664 13.2105,8.51154 12.58945,10.00374 C11.96836,11.49204 10.51135,12.46074 8.89805,12.46074 C6.69105,12.417771 4.92535,10.61694 4.92145,8.40994 L4.898,8.41 Z M8.898,51.64 C7.2847,51.620469 5.8433,50.6322 5.2418,49.1361 C4.63633,47.64 4.9918,45.9291 6.14024,44.7923 C7.28474,43.6595 9.00354,43.3275 10.49184,43.94855 C11.98014,44.56964 12.94884,46.02665 12.94884,47.63995 C12.91759,49.81575 11.17544,51.58135 8.99964,51.64 L8.898,51.64 Z" id="Shape"></path>
                <path d="M45,39.809 L45,15.61 C45,13.4889 44.15625,11.4538 42.6562,9.9538 C41.15615,8.4538 39.121,7.61 37,7.61 L28.5,7.61 L32.2188,3.8912 C32.93364,3.09823 32.90239,1.8873 32.148488,1.1334 C31.390678,0.37949 30.179688,0.35215 29.390688,1.0709 L22.289088,8.1998 C21.515648,8.98105 21.515648,10.2389 22.289088,11.0201 L29.417988,18.149 L29.421894,18.149 C30.207054,18.86775 31.421894,18.84041 32.175794,18.0865 C32.933604,17.3365 32.964854,16.1217 32.250013,15.3287 L28.531213,11.6099 L37.000013,11.6099 C38.062513,11.6099 39.078113,12.03178 39.828113,12.7818 C40.578113,13.53182 41.000013,14.5513 41.000013,15.6099 L41.000013,39.8089 C37.070313,40.8167 34.503913,44.5901 35.011713,48.6175 C35.519523,52.6409 38.945313,55.6566 43.000013,55.6566 C47.054713,55.6566 50.480513,52.641 50.988313,48.6175 C51.496123,44.5902 48.929713,40.8167 45.000013,39.8089 L45,39.809 Z M43,51.641 C41.3828,51.641 39.9219,50.66444 39.3047,49.1722 C38.68361,47.6761 39.02736,45.9574 40.17189,44.8128 C41.31642,43.6682 43.03519,43.3245 44.53129,43.94561 C46.02739,44.5628 47.00009,46.02371 47.00009,47.64091 C46.96884,49.83621 45.19539,51.60971 43.00009,51.64091 L43,51.641 Z" id="Shape"></path>
            </g>
        </g>
    </g>
</svg>