<svg width="100px" height="92px" viewBox="0 0 100 92" version="1.1" xmlns="http://www.w3.org/2000/svg" xmlns:xlink="http://www.w3.org/1999/xlink">
    <title>noun_Upload Folder_2667507</title>
    <g id="Page-1" stroke="none" stroke-width="1" fill="none" fill-rule="evenodd">
        <g id="noun_Upload-Folder_2667507" fill="#1A1A1A" fill-rule="nonzero">
            <path d="M51.6678,53.6679 L51.6678,64.0819 C51.6678,65.2342 50.73421,66.1678 49.5858,66.1678 C48.4335,66.1678 47.4999,65.23421 47.4999,64.0819 L47.4999,53.6679 L37.0859,53.6679 C35.9336,53.6679 35,52.73431 35,51.582 C35,50.4336 35.93359,49.5 37.0859,49.5 L47.4999,49.5 L47.4999,39.082 C47.4999,37.9336 48.43349,37 49.5858,37 C50.7342,37 51.6678,37.93359 51.6678,39.082 L51.6678,49.5 L62.0858,49.5 C63.2342,49.5 64.1678,50.43359 64.1678,51.582 C64.1678,52.7343 63.23421,53.6679 62.0858,53.6679 L51.6678,53.6679 Z M87.5,12.5 L51.4583333,12.5 L35.8333333,0.833333333 C35.2083333,0.208333333 34.1666667,0 33.3333333,0 L12.5,0 C5.625,0 0,5.625 0,12.5 L0,79.1666667 C0,86.0416667 5.625,91.6666667 12.5,91.6666667 L87.5,91.6666667 C94.375,91.6666667 100,86.0416667 100,79.1666667 L100,25 C100,18.125 94.375,12.5 87.5,12.5 Z M91.6666667,79.1666667 C91.6666667,81.4583333 89.7916667,83.3333333 87.5,83.3333333 L12.5,83.3333333 C10.2083333,83.3333333 8.33333333,81.4583333 8.33333333,79.1666667 L8.33333333,12.5 C8.33333333,10.2083333 10.2083333,8.33333333 12.5,8.33333333 L31.875,8.33333333 L47.5,20 C48.125,20.625 49.1666667,20.8333333 50,20.8333333 L87.5,20.8333333 C89.7916667,20.8333333 91.6666667,22.7083333 91.6666667,25 L91.6666667,79.1666667 Z" id="Shape"></path>
        </g>
    </g>
</svg>