<svg width="56px" height="66px" viewBox="0 0 56 66" version="1.1" xmlns="http://www.w3.org/2000/svg" xmlns:xlink="http://www.w3.org/1999/xlink">
    <title>new-file</title>
    <g id="File-Icons" stroke="none" stroke-width="1" fill="none" fill-rule="evenodd">
        <g id="Mobile" transform="translate(-208.000000, -120.000000)" fill="#000000" fill-rule="nonzero">
            <g id="np_file_1847911_000000" transform="translate(208.000000, 120.000000)">
                <polygon id="Shape" points="49.59 6.09 44.0002 0.5002 0.8282 0.5002 0.8282 50.79 5.8282 50.79 5.8282 5.5002 42.0002 5.5002 50.2111 13.7111 50.2111 60.5001 5.8281 60.5001 5.8281 48.7501 0.8281 48.7501 0.8281 65.5001 55.1721 65.5001 55.1721 11.6211"></polygon>
                <path d="M29.8427622,34.9423777 L29.8427622,43.0286947 C29.8427622,43.9234386 29.1234187,44.6483651 28.2385535,44.6483651 C27.3506909,44.6483651 26.6313397,43.9234463 26.6313397,43.0286947 L26.6313397,34.9423777 L18.6072138,34.9423777 C17.7193513,34.9423777 17,34.2174589 17,33.3227073 C17,32.4309916 17.7193435,31.7060651 18.6072138,31.7060651 L26.6313397,31.7060651 L26.6313397,23.6166422 C26.6313397,22.7249266 27.3506832,22 28.2385535,22 C29.123411,22 29.8427622,22.7249188 29.8427622,23.6166422 L29.8427622,31.7060651 L37.8699702,31.7060651 C38.7548277,31.7060651 39.474179,32.4309839 39.474179,33.3227073 C39.474179,34.2174512 38.7548354,34.9423777 37.8699702,34.9423777 L29.8427622,34.9423777 Z" id="Path"></path>
            </g>
        </g>
    </g>
</svg>