<svg width="240px" height="234px" viewBox="0 0 240 234" version="1.1" xmlns="http://www.w3.org/2000/svg" xmlns:xlink="http://www.w3.org/1999/xlink">
    <g id="Explorer---Search" stroke="none" stroke-width="1" fill="none" fill-rule="evenodd">
        <g id="Searching" transform="translate(-600.000000, -360.000000)" fill="#000000" fill-rule="nonzero">
            <g id="Group-3" transform="translate(600.000000, 360.000000)">
                <g id="search-no">
                    <path d="M237.336492,228.676289 L221.855722,228.676289 C233.517673,219.751558 234.415812,202.800192 224.279006,192.663877 L167.333211,135.720844 C186.481588,101.50573 180.60727,58.6115252 152.7287,30.7354152 C136.133496,14.1410157 114.064162,5 90.5873841,5 C43.1048605,5 3.39346319,42.6989355 3.00296825,92.1896926 C2.60269708,142.361706 42.7392907,180.744666 90.5873841,180.744666 C105.624763,180.744666 120.403473,176.904432 133.439358,169.613331 C193.619891,229.674634 190.332533,226.786219 192.811206,228.677674 L26.9671722,228.677674 C25.4958925,228.677674 24.3058799,229.867628 24.3058799,231.338837 C24.3058799,232.810045 25.4958925,234 26.9671722,234 L237.338708,234 C238.809987,234 240,232.810045 240,231.338837 C240,229.867628 238.809987,228.677674 237.338708,228.677674 L237.336492,228.676289 Z M150.834938,179.476312 L177.198886,153.113643 L184.728515,160.642906 L158.364567,187.005575 L150.834938,179.476312 Z M132.519617,163.996292 C119.862319,171.471277 105.365818,175.419792 90.5760293,175.419792 C45.6469549,175.419792 7.94619113,139.396303 8.31453034,92.2317864 C8.69317196,45.1088094 46.6328854,10.3315206 90.5760293,10.3315206 C112.623485,10.3315206 133.361536,18.9208851 148.950869,34.5091858 C175.606996,61.1640198 180.855137,102.413241 161.705653,134.811672 C161.089003,135.861 161.251294,137.191582 162.116753,138.046253 L173.432521,149.361473 L147.068573,175.724142 L135.752805,164.408923 C134.908976,163.554334 133.57833,163.370423 132.518067,163.997843 L132.519617,163.996292 Z M162.139074,190.781008 L188.503022,164.418338 L220.515299,196.429063 C227.785152,203.698563 227.785152,215.522232 220.515299,222.791732 C213.234646,230.072033 201.442806,230.082833 194.151352,222.791732 L162.139074,190.781008 Z" id="Shape"></path>
                    <path d="M102,219.5 C102,218.11789 100.80393,217 99.3251603,217 L13.6748397,217 C12.1960704,217 11,218.11789 11,219.5 C11,220.88211 12.1960704,222 13.6748397,222 L99.3251603,222 C100.80393,222 102,220.88211 102,219.5 Z" id="Path"></path>
                    <path d="M37,185.5 C37,175.299918 28.7003566,167 18.5,167 C8.29991828,167 0,175.299643 0,185.5 C0,195.700082 8.29964341,204 18.5,204 C28.7000817,204 37,195.700357 37,185.5 Z M5.2829656,185.5 C5.2829656,178.209672 11.2096724,172.282691 18.5002749,172.282691 C25.7906025,172.282691 31.7175841,178.209398 31.7175841,185.5 C31.7175841,192.790328 25.7908773,198.717309 18.5002749,198.717309 C11.2206671,198.717309 5.2829656,192.790602 5.2829656,185.5 Z" id="Shape"></path>
                    <path d="M212,84 C219.170465,84 225,78.1707358 225,71 C225,63.8295346 219.170736,58 212,58 C204.829264,58 199,63.8292642 199,71 C199,78.1704654 204.840078,84 212,84 Z M212,63.2063802 C216.298008,63.2063802 219.79362,66.7019923 219.79362,71 C219.79362,75.2980077 216.298008,78.7936198 212,78.7936198 C207.701992,78.7936198 204.20638,75.2980077 204.20638,71 C204.20638,66.7019923 207.701992,63.2063802 212,63.2063802 L212,63.2063802 Z" id="Shape"></path>
                    <path d="M191,4.00405437 C191,9.33198188 183,9.33198188 183,4.00405437 C183,-1.33468479 191,-1.33468479 191,4.00405437" id="Path"></path>
                    <path d="M235,46 C235,51.3333333 227,51.3333333 227,46 C227,40.6666667 235,40.6666667 235,46" id="Path"></path>
                    <path d="M153,205 C153,210.333333 145,210.333333 145,205 C145,199.666667 153,199.666667 153,205" id="Path"></path>
                    <path d="M61,195.004054 C61,200.331982 53,200.331982 53,195.004054 C53,189.665315 61,189.665315 61,195.004054" id="Path"></path>
                    <path d="M19,16.9959456 C19,22.3346848 11,22.3346848 11,16.9959456 C11,11.6680181 19,11.6680181 19,16.9959456" id="Path"></path>
                    <path d="M214,127.004054 C214,132.331982 206,132.331982 206,127.004054 C206,121.665315 214,121.665315 214,127.004054" id="Path"></path>
                    <path d="M158,92.4984058 C158,55.7152908 127.831505,26 90.9996655,26 C54.2235689,26 24,55.6627316 24,92.4984058 C24,113.753331 34.1033232,132.71723 49.7917636,144.894358 C49.9550723,145.056445 50.140154,145.196933 50.3470144,145.315772 C74.3642163,163.566803 107.655851,163.556015 131.652986,145.315772 C131.859843,145.196908 132.044911,145.056434 132.208236,144.894358 C147.896677,132.705612 158,113.751671 158,92.4984058 L158,92.4984058 Z M121.407185,39.3030007 L60.5921465,39.3030007 C79.1220594,28.8213205 102.290303,28.486325 121.407185,39.3030007 Z M60.5921465,145.696577 L121.407185,145.696577 C102.909881,156.145615 79.7424731,156.524041 60.5921465,145.696577 Z M129.322616,140.38008 L52.6767153,140.38008 C21.5724153,115.797053 21.6142222,69.170713 52.6767153,44.6200515 L129.322616,44.6200515 C160.426916,69.2030784 160.385109,115.829418 129.322616,140.38008 Z" id="Shape"></path>
                    <g id="np_question_727759_000000" transform="translate(75.000000, 64.000000)">
                        <path d="M15.9808055,0.000965500595 C8.10323662,0.000965500595 1.68165019,5.26593679 0.0818763164,11.8283478 C-0.296743107,13.3029568 0.681057505,15.0002103 2.12205853,15.3735694 C3.56305955,15.7469285 5.20614024,14.728644 5.55903154,13.2464751 C6.41553165,9.72017724 10.6686152,5.79396907 15.9801468,5.79396907 C18.5973768,5.79396907 21.3433416,6.77829693 23.2805737,8.38875192 C25.2178057,9.99920691 26.342635,12.0697229 26.342635,14.4834744 C26.342635,17.655337 25.7103667,19.0771332 24.8722546,20.185914 C24.030463,21.2946949 22.6814113,22.1584318 20.927965,23.4444785 C19.1708487,24.7305253 17.0829556,26.5069499 15.5684402,29.3882933 C14.057595,32.2697333 13.1827069,36.1279702 13.1827069,41.5169118 C13.0356688,43.1159739 14.4288366,44.6849123 15.994827,44.6849123 C17.5608174,44.6849123 18.9539382,43.1159739 18.8069472,41.5169118 C18.8069472,36.7685799 19.5862441,33.9588766 20.5457132,32.1334046 C21.5051823,30.3079326 22.6887514,29.308543 24.2253813,28.1808383 C25.7655871,27.0531336 27.7174994,25.8953053 29.3496452,23.7455216 C30.9781209,21.595738 32,18.5521905 32,14.482702 C32,10.1379493 29.8201669,6.38533818 26.8169209,3.892126 C23.8136748,1.39891381 19.9465508,0 15.9836286,0 L15.9808055,0.000965500595 Z M16.0102131,48.2759952 C13.9296601,48.2759952 12.2423692,50.0033724 12.2423692,52.1379976 C12.2423692,54.2726229 13.9296601,56 16.0102131,56 C18.0907661,56 19.778057,54.2726229 19.778057,52.1379976 C19.778057,50.0033724 18.0907661,48.2759952 16.0102131,48.2759952 Z" id="Shape"></path>
                    </g>
                </g>
            </g>
        </g>
    </g>
</svg>