<svg width="100pt" height="100pt" version="1.1" viewBox="0 0 100 100" xmlns="http://www.w3.org/2000/svg">
 <path d="m75.789 18l-29.227 29.223c-1.7148 1.7188-1.7148 4.5039 0 6.2227 1.7148 1.7148 4.5078 1.7188 6.2227 0l29.215-29.211v9.7695c0 2.2031 1.7891 3.9961 4 3.9961 2.2031 0 4-1.7891 4-3.9961v-20.008c0-1.1016-0.44922-2.0977-1.1719-2.8242-0.72266-0.72266-1.7227-1.1719-2.8242-1.1719h-20.008c-2.2031 0-3.9961 1.7891-3.9961 4 0 2.2031 1.7891 4 3.9961 4zm14.211 40v-19.016 41.047c0 5.5039-3.9688 9.9688-8.8672 9.9688h-62.266c-4.8984 0-8.8672-4.4727-8.8672-9.9688v-60.062c0-5.5039 3.9688-9.9688 8.8672-9.9688h42.699-19.566c2.2109 0 4 1.7891 4 4s-1.7891 4-4 4h-21.723c-1.2734 0-2.2773 1.1953-2.2773 2.668v58.664c0 1.4453 1.0195 2.668 2.2773 2.668h59.445c1.2734 0 2.2773-1.1953 2.2773-2.668v-21.332c0-2.2109 1.7891-4 4-4s4 1.7891 4 4z" fill-rule="evenodd"/>
</svg>