<svg width="100pt" height="100pt" version="1.1" viewBox="0 0 100 100" xmlns="http://www.w3.org/2000/svg">
 <g>
  <path d="m59.375 50c0 5.1758-4.1992 9.375-9.375 9.375s-9.375-4.1992-9.375-9.375 4.1992-9.375 9.375-9.375 9.375 4.1992 9.375 9.375"/>
  <path d="m90.625 50c0 5.1758-4.1992 9.375-9.375 9.375s-9.375-4.1992-9.375-9.375 4.1992-9.375 9.375-9.375 9.375 4.1992 9.375 9.375"/>
  <path d="m28.125 50c0 5.1758-4.1992 9.375-9.375 9.375s-9.375-4.1992-9.375-9.375 4.1992-9.375 9.375-9.375 9.375 4.1992 9.375 9.375"/>
 </g>
</svg>