<svg width="20px" height="20px" viewBox="0 0 20 20" version="1.1" xmlns="http://www.w3.org/2000/svg" xmlns:xlink="http://www.w3.org/1999/xlink">
    <g id="Preview-in-Editor" stroke="none" stroke-width="1" fill="none" fill-rule="evenodd">
        <g id="Preview" transform="translate(-1290.000000, -570.000000)" fill="#000000" fill-rule="nonzero">
            <g id="preview-new" transform="translate(1300.000000, 580.000000) scale(-1, 1) translate(-1300.000000, -580.000000) translate(1290.000000, 570.000000)">
                <path d="M17.9895026,0 L6.95320138,0 C5.841966,0 4.94251981,0.900622099 4.94251981,2.01079462 L4.94251981,4.94260587 L2.01068156,4.94260587 C0.90152513,4.94260587 0.00102631444,5.84104378 0,6.95019 L0,18.0027052 C0.00719578001,19.1077462 0.905630387,20 2.01068156,20 L13.0632986,20 C14.172455,19.9989721 15.0709012,19.0984832 15.0709012,17.989337 L15.0709012,15.0575257 L17.9893184,15.0575257 C18.5228177,15.0575257 19.0337381,14.8457674 19.4109745,14.4685056 C19.7882371,14.0922727 20,13.580357 20,13.0468627 L20,2.01066305 C20,1.47716866 19.7882398,0.966252987 19.4109745,0.589020116 C19.0337118,0.211760929 18.5228177,0 17.9893184,0 L17.9895026,0 Z M14.0050342,14.5157683 L14.0050342,14.5311876 L14.0050342,14.5466069 L14.0050342,17.9892022 C14.0050342,18.5175651 13.5784295,18.9462185 13.0500618,18.9472448 L1.99744474,18.9472448 C1.47318227,18.9400491 1.05276177,18.5134599 1.05276177,17.9892022 L1.05276177,6.93668698 C1.05378967,6.40935043 1.48244542,5.98172335 2.01081314,5.98172335 L13.0634302,5.98172335 C13.5897453,5.98275123 14.0173763,6.41037673 14.0184026,6.93668698 L14.0050342,14.5157683 Z" id="Shape"></path>
            </g>
        </g>
    </g>
</svg>