<svg width="62px" height="66px" viewBox="0 0 62 66" version="1.1" xmlns="http://www.w3.org/2000/svg" xmlns:xlink="http://www.w3.org/1999/xlink">
    <title>ic-file-python</title>
    <g id="File-Images" stroke="none" stroke-width="1" fill="none" fill-rule="evenodd">
        <g id="Mobile" transform="translate(-42.000000, -120.000000)" fill="#000000" fill-rule="nonzero">
            <g id="np_js_1847911_000000" transform="translate(42.000000, 120.000000)">
                <path d="M50.0002,0.5002 L55.59,6.09 L61.1721,11.6211 L61.1721,65.5001 L6.8281,65.5001 L6.8281,48.7501 L11.8281,48.7501 L11.8281,60.5001 L56.2111,60.5001 L56.2111,13.7111 L48.0002,5.5002 L11.8282,5.5002 L11.8282,18.7892 L6.8281,18.7892 L6.8281,0.5002 L50.0002,0.5002 Z M5.31835938,25.78125 L5.64580676,25.7881258 C6.61439732,25.8293806 6.61439732,25.8293806 7.41796875,26.1181641 C8.35546875,26.4550781 8.35546875,26.4550781 9.01464844,27.0556641 C9.67382812,27.65625 9.67382812,27.65625 10.0302734,28.4960938 C10.3867188,29.3359375 10.3867188,29.3359375 10.3867188,30.3613281 C10.3867188,31.3183594 10.3867188,31.3183594 10.0302734,32.1289062 C9.67382812,32.9394531 9.67382812,32.9394531 9.01464844,33.5302734 C8.35546875,34.1210938 8.35546875,34.1210938 7.41796875,34.453125 C6.48046875,34.7851562 6.48046875,34.7851562 5.31835938,34.7851562 L5.31835938,34.7851562 L3.19921875,34.7851562 L3.19921875,40 L0.455078125,40 L0.455078125,25.78125 L5.31835938,25.78125 Z M14.5195313,25.78125 L17.3222656,32.3339844 L20.125,25.78125 L23.1425781,25.78125 L18.6699219,35.078125 L18.6601563,40 L15.9257813,40 L15.9160156,34.9609375 L11.5117188,25.78125 L14.5195313,25.78125 Z M5.31835938,28.0078125 L3.19921875,28.0078125 L3.19921875,32.5585938 L5.31835938,32.5585938 C5.90429688,32.5585938 5.90429688,32.5585938 6.33398438,32.3828125 C6.76367188,32.2070312 6.76367188,32.2070312 7.05175781,31.9042969 C7.33984375,31.6015625 7.33984375,31.6015625 7.48144531,31.2060547 C7.62304688,30.8105469 7.62304688,30.8105469 7.62304688,30.3808594 C7.62304688,29.8828125 7.62304688,29.8828125 7.48144531,29.453125 C7.33984375,29.0234375 7.33984375,29.0234375 7.05175781,28.7011719 C6.76367188,28.3789062 6.76367188,28.3789062 6.33398438,28.1933594 C5.90429688,28.0078125 5.90429688,28.0078125 5.31835938,28.0078125 L5.31835938,28.0078125 Z" id="Shape"></path>
            </g>
        </g>
    </g>
</svg>