<svg width="90px" height="66px" viewBox="0 0 90 66" version="1.1" xmlns="http://www.w3.org/2000/svg" xmlns:xlink="http://www.w3.org/1999/xlink">
    <g id="Page-1" stroke="none" stroke-width="1" fill="none" fill-rule="evenodd">
        <g id="cloud-qoom" fill="#000000" fill-rule="nonzero">
            <path d="M45,0 C38.0938,0 31.172,2.6094 25.906,7.875 C21.8201,11.9609 19.3865,17.0742 18.4685,22.375 C8.0115,24.0742 -0.0005,33.082 -0.0005,44 C-0.0005,56.125 9.8745,66 21.9995,66 L70.9995,66 C81.4915,66 89.9995,57.4922 89.9995,47 C89.9995,36.785 81.9175,28.527 71.8115,28.094 C72.10447,20.8167 69.6045,13.418 64.0615,7.875 C58.7998,2.6133 51.9055,0 44.9995,0 L45,0 Z M45,4 C50.8906,4 56.75,6.2188 61.25,10.7188 C66.4531,15.9219 68.625,22.9848 67.8125,29.7498 C67.742188,30.32011 67.91797,30.8982 68.30078,31.3279 C68.68359,31.75759 69.23437,32.00368 69.81248,31.99978 L70.99998,31.99978 C79.34378,31.99978 85.99998,38.65598 85.99998,46.99978 C85.99998,55.34358 79.34378,61.99978 70.99998,61.99978 L21.99998,61.99978 C12.03518,61.99978 3.99998,53.96458 3.99998,43.99978 C3.99998,34.58958 11.16798,26.89478 20.34398,26.06178 C21.28539,25.979749 22.04318,25.24928 22.15648,24.31178 C22.7346,19.34298 24.89868,14.53838 28.71898,10.71778 C33.21508,6.22168 39.10998,3.99898 44.99998,3.99898 L45,4 Z" id="Shape"></path>
            <path d="M56.452,49.072 L56.452,45.832 L52.636,45.832 C53.836,44.728 54.772,43.42 55.444,41.908 C56.116,40.396 56.452,38.788 56.452,37.084 C56.452,35.452 56.14,33.892 55.516,32.404 C54.892,30.916 54.028,29.62 52.924,28.516 C51.82,27.412 50.536,26.548 49.072,25.924 C47.608,25.3 46.06,24.988 44.428,24.988 C42.796,24.988 41.254,25.3 39.802,25.924 C38.35,26.548 37.072,27.412 35.968,28.516 C34.864,29.596 34,30.886 33.376,32.386 C32.752,33.886 32.44,35.452 32.44,37.084 C32.44,38.716 32.746,40.258 33.358,41.71 C33.97,43.162 34.84,44.44 35.968,45.544 C37.096,46.648 38.386,47.512 39.838,48.136 C41.29,48.76 42.82,49.072 44.428,49.072 L44.428,49.072 L56.452,49.072 Z M44.428,45.832 C43.252,45.832 42.13,45.61 41.062,45.166 C39.994,44.722 39.052,44.092 38.236,43.276 C37.42,42.46 36.79,41.518 36.346,40.45 C35.902,39.382 35.68,38.26 35.68,37.084 C35.68,35.884 35.908,34.738 36.364,33.646 C36.82,32.554 37.444,31.612 38.236,30.82 C39.052,30.004 39.994,29.374 41.062,28.93 C42.13,28.486 43.252,28.264 44.428,28.264 C45.604,28.264 46.726,28.486 47.794,28.93 C48.862,29.374 49.804,30.004 50.62,30.82 C51.412,31.612 52.036,32.554 52.492,33.646 C52.948,34.738 53.176,35.884 53.176,37.084 C53.176,38.26 52.954,39.382 52.51,40.45 C52.066,41.518 51.436,42.46 50.62,43.276 C49.804,44.092 48.862,44.722 47.794,45.166 C46.726,45.61 45.604,45.832 44.428,45.832 Z" id="Q"></path>
        </g>
    </g>
</svg>