<svg width="100pt" height="100pt" version="1.1" viewBox="0 0 100 100" xmlns="http://www.w3.org/2000/svg">
 <g>
  <path d="m10 10v23.332h23.332v-23.332zm16.668 16.668h-10v-10h10z"/>
  <path d="m10 66.664v23.336h23.332v-23.336zm16.668 16.672h-10v-10h10z"/>
  <path d="m66.668 10v23.332h23.332v-23.332zm16.664 16.668h-10v-10h10z"/>
  <path d="m83.332 40v20h-16.664v6.6641h23.332v-26.664z"/>
  <path d="m66.668 73.336v16.664h6.6641v-10h10v10h6.668v-16.664z"/>
  <path d="m40 10v6.668h13.332v16.664h6.668v-23.332z"/>
  <path d="m53.332 40v13.336h-13.332v20h13.332v16.664h6.668v-23.336h-13.332v-6.6641h13.332v-13.332h6.668v6.668h6.6641v-13.336z"/>
  <path d="m40 80h6.668v10h-6.668z"/>
  <path d="m23.332 53.336h10v6.6641h-10z"/>
  <path d="m40 23.332v16.668h-30v20h6.668v-13.332h30v-23.336z"/>
 </g>
</svg>