<svg width="100pt" height="100pt" version="1.1" viewBox="0 0 100 100" xmlns="http://www.w3.org/2000/svg">
 <g>
  <path d="m50 9.6172c22.27 0 40.383 18.117 40.383 40.383 0 22.27-18.117 40.383-40.383 40.383-22.27 0-40.383-18.113-40.383-40.383s18.113-40.383 40.383-40.383m0-7.6953c-26.539 0-48.078 21.539-48.078 48.078s21.539 48.078 48.078 48.078 48.078-21.539 48.078-48.078-21.539-48.078-48.078-48.078z"/>
  <path d="m55.383 68.691c0 7.1797-10.766 7.1797-10.766 0 0-7.1797 10.766-7.1797 10.766 0"/>
  <path d="m53.309 55.848h-7.3086c-0.039062-1.0391-0.039062-1.6914-0.039062-1.9219 0-2.3828 0.38281-3.9219 1.1914-5.4609 0.76953-1.5391 2.3477-3.2695 4.6914-5.1523 2.3477-1.9219 3.7695-3.1523 4.2305-3.7695 0.69141-0.92188 1.0781-1.9609 1.0781-3.1172 0-1.5781-0.61719-2.9219-1.8828-4.0391-1.2695-1.1172-2.9219-1.6914-5.0781-1.6914-2.0391 0-3.7695 0.57813-5.1523 1.7695-1.3828 1.1523-2.3086 2.9609-2.8477 5.3477l-7.4219-0.92188c0.19141-3.4219 1.6523-6.3477 4.3828-8.7305 2.6914-2.3828 6.2695-3.5781 10.652-3.5781 4.6172 0 8.3086 1.1914 11.039 3.6172 2.7305 2.4219 4.1172 5.2305 4.1172 8.4609 0 1.7695-0.5 3.4609-1.5 5.0391s-3.1523 3.7695-6.4609 6.5c-1.6914 1.4219-2.7695 2.5391-3.1523 3.4219-0.38672 0.87891-0.57812 2.0312-0.53906 4.2266z"/>
 </g>
</svg>