<svg width="100pt" height="100pt" version="1.1" viewBox="0 0 100 100" xmlns="http://www.w3.org/2000/svg">
 <g>
  <path d="m66.562 15.625c-9.0625-4.0625-19.375-4.375-28.75-0.625-6.25 2.5-11.875 6.5625-15.938 11.875l-1.5625-5.625c-0.3125-1.875-1.875-2.8125-3.75-2.5-1.5625 0.625-2.5 2.1875-2.1875 3.75l3.125 12.812c0.3125 1.5625 1.5625 2.5 3.125 2.5h0.625l12.812-3.125c1.5625-0.3125 2.8125-2.1875 2.1875-3.75 0-1.875-1.875-2.8125-3.4375-2.1875l-5.3125 1.25c3.4375-4.0625 7.5-7.1875 12.5-9.0625 7.8125-3.125 16.25-2.8125 24.062 0.625 7.5 3.4375 13.438 9.375 16.562 17.188s2.8125 16.25-0.625 24.062-9.375 13.438-17.188 16.562c-10.938 4.0625-23.125 2.1875-31.875-5.625-3.75-3.4375-6.875-7.5-8.75-12.188-0.625-1.5625-2.5-2.5-4.0625-1.875s-2.5 2.5-1.875 4.0625c2.1875 5.625 5.9375 10.938 10.312 14.688 6.875 5.9375 15.625 9.0625 24.688 9.0625 4.6875 0 9.0625-0.9375 13.438-2.5 9.375-3.75 16.562-10.625 20.625-19.688s4.375-19.375 0.625-28.75-10-16.875-19.375-20.938z"/>
  <path d="m51.562 31.25c-1.875 0-3.125 1.25-3.125 3.125v18.75c0 0.9375 0.3125 1.875 1.25 2.5l12.5 9.375c0.625 0.3125 1.25 0.625 1.875 0.625 0.9375 0 1.875-0.3125 2.5-1.25 0.9375-1.25 0.625-3.4375-0.625-4.375l-11.25-8.4375v-17.188c0-1.875-1.25-3.125-3.125-3.125z"/>
 </g>
</svg>