<svg width="100pt" height="100pt" version="1.1" viewBox="0 0 100 100" xmlns="http://www.w3.org/2000/svg">
 <path d="m49.719 9c-0.99219 0.14062-1.7305 0.99609-1.7188 2v15.969l-16.094 8.9375c-0.63672 0.35156-1.0312 1.0234-1.0312 1.75v49.344h-20.875v-27.812l16.906-6.0625c0.94531-0.33984 1.4883-1.3281 1.2773-2.3086-0.21484-0.98047-1.1211-1.6484-2.1211-1.5664-0.18359 0.015625-0.35938 0.058594-0.53125 0.125l-18.219 6.5312c-0.78906 0.28906-1.3125 1.0352-1.3125 1.875v31.219c0 1.1055 0.89453 2 2 2h84c1.1055 0 2-0.89453 2-2v-31.219c0-0.83984-0.52344-1.5859-1.3125-1.875l-17.75-6.375c-0.50391-0.17969-1.0547-0.15625-1.5391 0.074219-0.48047 0.22656-0.85547 0.63672-1.0312 1.1406-0.17969 0.50391-0.15234 1.0586 0.078124 1.5391 0.23047 0.48047 0.64453 0.85156 1.1484 1.0273l16.406 5.875v27.812h-20.875v-49.344c0-0.72656-0.39453-1.3984-1.0312-1.75l-16.094-8.9375v-12.812c1.1719 0.60156 2.2148 1.2109 3.5312 1.6875 1.5195 0.55078 3.2227 0.89844 4.9062 0.78125v3.25c-1.2148 0.30859-2.4414 0.28125-3.875-0.1875-1.0547-0.34375-2.1875 0.22656-2.5312 1.2812s0.22656 2.1875 1.2812 2.5312c2.4727 0.8125 5.3281 1.0352 8.0312-0.3125 0.67969-0.34766 1.1055-1.0508 1.0938-1.8125v-7.2812c-0.007812-0.6875-0.36328-1.3203-0.94531-1.6836-0.58594-0.35938-1.3125-0.39844-1.9297-0.097656-1.2188 0.60547-2.7461 0.47266-4.6562-0.21875s-4-1.9102-6-2.9062c-0.36719-0.18359-0.78125-0.25-1.1875-0.1875zm0.28125 21.438 15.125 8.4062v48.156h-6.9062v-15.188c0-1.1055-0.89453-2-2-2h-12.438c-1.1055 0-2 0.89453-2 2v15.188h-6.9062v-48.156zm0 11.312c-4.5195 0-8.2188 3.7266-8.2188 8.25s3.6992 8.2188 8.2188 8.2188 8.2188-3.6953 8.2188-8.2188-3.6992-8.25-8.2188-8.25zm0 4c2.3516 0 4.2188 1.8828 4.2188 4.25s-1.8672 4.2188-4.2188 4.2188-4.2188-1.8516-4.2188-4.2188 1.8672-4.25 4.2188-4.25zm-4.2188 28.062h8.4375v13.188h-8.4375z"/>
</svg>