<svg width="100pt" height="100pt" version="1.1" viewBox="0 0 100 100" xmlns="http://www.w3.org/2000/svg">
 <path d="m87.938 83.531-20-20c6.8008-8.3594 8.8125-19.629 5.3281-29.824-3.4844-10.195-11.973-17.879-22.465-20.328-10.492-2.4492-21.508 0.67969-29.145 8.2773-7.5977 7.6367-10.727 18.652-8.2773 29.145 2.4492 10.492 10.133 18.98 20.328 22.465 10.195 3.4844 21.465 1.4727 29.824-5.3281l20 20c1.2383 1.0625 3.0898 0.99219 4.2422-0.16406 1.1562-1.1523 1.2266-3.0039 0.16406-4.2422zm-61.875-22.094c-4.6914-4.6875-7.3281-11.047-7.3281-17.68 0-6.6289 2.6328-12.988 7.3203-17.68 4.6875-4.6875 11.047-7.3242 17.68-7.3242s12.992 2.6367 17.68 7.3242c4.6875 4.6914 7.3203 11.051 7.3203 17.68 0 6.6328-2.6367 12.992-7.3281 17.68-4.668 4.7227-11.031 7.3828-17.672 7.3828s-13.004-2.6602-17.672-7.3828z"/>
</svg>