<svg width="100pt" height="100pt" version="1.1" viewBox="0 0 100 100" xmlns="http://www.w3.org/2000/svg">
 <path d="m91.668 37.5h-10.793c-1.1641-2.8672-2.7188-5.5625-4.625-8l5.418-9.332c0.55469-0.96094 0.70703-2.1055 0.41406-3.1758-0.28906-1.0703-0.99219-1.9844-1.957-2.5352l-14.418-8.332c-0.96094-0.55469-2.1016-0.70703-3.1719-0.41797-1.0742 0.28906-1.9844 0.99609-2.5352 1.9609l-5.375 9.332c-3.0664-0.44922-6.1836-0.44922-9.25 0l-5.375-9.332c-0.55078-0.96484-1.4609-1.6719-2.5352-1.9609-1.0703-0.28906-2.2109-0.13672-3.1719 0.41797l-14.418 8.332c-0.96484 0.55078-1.668 1.4648-1.957 2.5352-0.29297 1.0703-0.14062 2.2148 0.41406 3.1758l5.418 9.332c-1.9062 2.4375-3.4609 5.1328-4.625 8h-10.793c-2.3008 0-4.1641 1.8672-4.1641 4.168v16.668-0.003907c0 1.1055 0.4375 2.168 1.2188 2.9492s1.8398 1.2188 2.9453 1.2188h10.793c1.1641 2.8672 2.7188 5.5625 4.625 8l-5.418 9.332c-0.55469 0.96094-0.70703 2.1055-0.41406 3.1758 0.28906 1.0703 0.99219 1.9844 1.957 2.5352l14.418 8.332c0.96094 0.55469 2.1016 0.70703 3.1719 0.41797 1.0742-0.28906 1.9844-0.99609 2.5352-1.9609l5.375-9.332c3.0664 0.44922 6.1836 0.44922 9.25 0l5.375 9.332c0.55078 0.96484 1.4609 1.6719 2.5352 1.9609 1.0703 0.28906 2.2109 0.13672 3.1719-0.41797l14.418-8.332c0.96484-0.55078 1.668-1.4648 1.957-2.5352 0.29297-1.0703 0.14062-2.2148-0.41406-3.1758l-5.418-9.332c1.9062-2.4375 3.4609-5.1328 4.625-8h10.793c1.1055 0 2.1641-0.4375 2.9453-1.2188s1.2188-1.8438 1.2188-2.9492v-16.664c0-1.1055-0.4375-2.168-1.2188-2.9492s-1.8398-1.2188-2.9453-1.2188zm-41.668 25c-5.0547 0-9.6133-3.0469-11.547-7.7148-1.9375-4.6719-0.86719-10.051 2.707-13.625 3.5742-3.5742 8.9531-4.6445 13.625-2.707 4.668 1.9336 7.7148 6.4922 7.7148 11.547 0 6.9023-5.5977 12.5-12.5 12.5z"/>
</svg>