<svg width="100pt" height="100pt" version="1.1" viewBox="0 0 100 100" xmlns="http://www.w3.org/2000/svg">
 <path d="m67.227 32.781c-12.215-29.688-15.82-29.688-17.773-29.688-1.7891 0-5.4805 0-18.777 29.277-27.754 4.8594-28.848 8.1445-29.379 9.7383-0.60156 1.8086-1.7148 5.1406 20.152 22.812-5.7227 27.598-2.3008 29.5-0.63281 30.426 0.62891 0.34766 1.3594 0.52734 2.168 0.52734 4.9766 0 19.074-9.0156 26.477-13.988 10.672 7.1094 23.324 15.02 26.801 15.02 1.0781 0 1.8242-0.41406 2.2539-0.75781 1.418-1.1289 3.1719-2.5312-1.8398-30.172 23.473-20.246 22.832-21.844 21.953-24.035-0.67969-1.6992-1.3203-3.3086-31.402-9.1602zm4.1133 29.688c-0.82812 0.71094-1.2148 1.8086-1.0195 2.8828 1.6367 8.8984 3.1953 19.219 3.543 24.316-4.8086-2.4648-14.488-8.5156-22.703-14.027-0.51953-0.34766-1.1133-0.52344-1.7109-0.52344-0.60938 0-1.207 0.17969-1.7305 0.53516-8.625 5.8789-19.129 12.184-23.352 13.73-0.22656-4.2891 1.4453-15.562 3.4688-25.035 0.24219-1.1367-0.17969-2.3125-1.0859-3.0352-7.6094-6.0938-16.141-13.754-18.797-17.188 4.0977-1.7266 15.543-4.3008 25.367-5.9844 1.0078-0.17188 1.8633-0.83594 2.2852-1.7656 4.6992-10.441 10.82-22.387 13.801-26.266 2.8398 3.957 8.4883 16.012 12.773 26.527 0.39062 0.96094 1.2422 1.6602 2.2617 1.8555 10.168 1.9609 21.371 4.4062 26.621 5.9219-3.7578 3.9219-12.195 11.59-19.723 18.055z"/>
</svg>