<svg width="98px" height="94px" viewBox="0 0 98 94" version="1.1" xmlns="http://www.w3.org/2000/svg" xmlns:xlink="http://www.w3.org/1999/xlink">
    <g id="Page-1" stroke="none" stroke-width="1" fill="none" fill-rule="evenodd">
        <g id="star" fill="#000000" fill-rule="nonzero">
            <path d="M66.227,29.781 C54.012,0.093 50.407,0.093 48.454,0.093 C46.6649,0.093 42.9735,0.093 29.677,29.37 C1.923,34.2294 0.829,37.5145 0.298,39.1083 C-0.30356,40.9169 -1.4168,44.2489 20.45,61.9203 C14.7273,89.5183 18.1492,91.4203 19.81719,92.3463 C20.4461,92.69396 21.17659,92.87364 21.98519,92.87364 C26.96179,92.87364 41.05919,83.85804 48.46219,78.88564 C59.13419,85.99504 71.78619,93.90564 75.26319,93.90564 C76.34129,93.90564 77.08739,93.49158 77.51709,93.14783 C78.93509,92.01893 80.68899,90.61663 75.67729,62.97583 C99.15029,42.72983 98.50929,41.13183 97.63029,38.94083 C96.9506,37.24163 96.30999,35.63223 66.22829,29.78063 L66.227,29.781 Z" id="Shape"></path>
        </g>
    </g>
</svg>