<svg width="100pt" height="100pt" version="1.1" viewBox="0 0 100 100" xmlns="http://www.w3.org/2000/svg">
 <path d="m87.5 12.5h-75c-3.4492 0-6.25 2.8008-6.25 6.25v62.5c0 3.4492 2.8008 6.25 6.25 6.25h75c3.4492 0 6.25-2.8008 6.25-6.25v-62.5c0-3.4492-2.8008-6.25-6.25-6.25zm-25 18.75v12.5h-25v-12.5zm0 18.75v12.5h-25v-12.5zm-50-18.75h18.75v12.5h-18.75zm0 18.75h18.75v12.5h-18.75zm0 31.25v-12.5h18.75v12.5zm25 0v-12.5h25v12.5zm50 0h-18.75v-12.5h18.75zm0-18.75h-18.75v-12.5h18.75zm0-18.75h-18.75v-12.5h18.75z"/>
</svg>