<svg width="100pt" height="100pt" version="1.1" viewBox="0 0 100 100" xmlns="http://www.w3.org/2000/svg">
 <g>
  <path d="m34.898 31.602c0 5.9062-4.7891 10.699-10.699 10.699-5.9102 0-10.699-4.793-10.699-10.699 0-5.9102 4.7891-10.703 10.699-10.703 5.9102 0 10.699 4.793 10.699 10.703"/>
  <path d="m93.5 20.102h-44.898c-2.1992 0-4 1.8008-4 4v30.699 0.10156c0.69922 0.19922 2 0.5 4 0.5v-31.301h44.898v35.398h-34.602c0.19922 0.60156 0.39844 1.1016 0.5 1.6992 0.10156 0.80078 0.10156 1.5-0.10156 2.3008h34.199c2.1992 0 4-1.8008 4-4l0.003906-35.398c0-2.2031-1.8008-4-4-4z"/>
  <path d="m54.801 58.898 6.3008-15.898c0.39844-1-0.10156-2.1992-1.1016-2.6016-1-0.39844-2.1992 0.10156-2.6016 1.1016l-6.6992 16.699c-2.1016 0.19922-5.6992 0.19922-7.6016-0.80078-1.3008-0.60156-2.6992-4-3.3008-5.5-0.30078-0.69922-0.60156-1.3984-0.80078-1.8008-1-2-3.1992-4.3984-7.6992-4.3984h-13.598c-3.5 0-6.1992 1.8008-8.1016 5.1992l-0.39844 0.80078c-1.8008 3.3008-3.6016 6.8008-4.3008 9.3984-0.69922 2.9023-2.2969 10.602-2.2969 10.902-0.39844 2.1992 1 4.3984 3.1992 4.8008 0.30078 0.097657 0.59766 0.19922 0.80078 0.19922 1.8984 0 3.6016-1.3984 4-3.3008 0-0.10156 1.5-7.8008 2.1992-10.301 0.30078-1 0.89844-2.5 1.6992-4l-0.5 17.801c0 1.5 1.1016 2.6992 2.6016 2.6992h15.199c1.5 0 2.6016-1.1992 2.6016-2.6992l-0.60156-18.398c1.3008 2.3984 3.1016 4.8984 5.8008 6.1992 5.1016 2.3984 12.398 1.5 13.199 1.3984 2.3008-0.30078 3.8008-2.3984 3.5-4.6016 0-1.2969-0.60156-2.1953-1.5-2.8984z"/>
  <path d="m86 30.102h-29.898c-1.1016 0-2 0.89844-2 2 0 1.1016 0.89844 2 2 2h29.898c1.1016 0 2-0.89844 2-2 0-1.1016-0.89844-2-2-2z"/>
  <path d="m86 39.801h-18.301c-1.1016 0-2 0.89844-2 2 0 1.1016 0.89844 2 2 2h18.301c1.1016 0 2-0.89844 2-2 0-1.1016-0.89844-2-2-2z"/>
  <path d="m86 49.5h-18.301c-1.1016 0-2 0.89844-2 2s0.89844 2 2 2h18.301c1.1016 0 2-0.89844 2-2s-0.89844-2-2-2z"/>
 </g>
</svg>