<svg width="124px" height="66px" viewBox="0 0 124 66" version="1.1" xmlns="http://www.w3.org/2000/svg" xmlns:xlink="http://www.w3.org/1999/xlink">
    <g id="Page-1" stroke="none" stroke-width="1" fill="none" fill-rule="evenodd">
        <g id="transfer" fill-rule="nonzero">
            <path d="M45,0 C38.0938,0 31.172,2.6094 25.906,7.875 C21.8201,11.9609 19.3865,17.0742 18.4685,22.375 C8.0115,24.0742 -0.0005,33.082 -0.0005,44 C-0.0005,56.125 9.8745,66 21.9995,66 L70.9995,66 C81.4915,66 89.9995,57.4922 89.9995,47 C89.9995,36.785 81.9175,28.527 71.8115,28.094 C72.10447,20.8167 69.6045,13.418 64.0615,7.875 C58.7998,2.6133 51.9055,0 44.9995,0 L45,0 Z M45,4 C50.8906,4 56.75,6.2188 61.25,10.7188 C66.4531,15.9219 68.625,22.9848 67.8125,29.7498 C67.742188,30.32011 67.91797,30.8982 68.30078,31.3279 C68.68359,31.75759 69.23437,32.00368 69.81248,31.99978 L70.99998,31.99978 C79.34378,31.99978 85.99998,38.65598 85.99998,46.99978 C85.99998,55.34358 79.34378,61.99978 70.99998,61.99978 L21.99998,61.99978 C12.03518,61.99978 3.99998,53.96458 3.99998,43.99978 C3.99998,34.58958 11.16798,26.89478 20.34398,26.06178 C21.28539,25.979749 22.04318,25.24928 22.15648,24.31178 C22.7346,19.34298 24.89868,14.53838 28.71898,10.71778 C33.21508,6.22168 39.10998,3.99898 44.99998,3.99898 L45,4 Z" id="Shape" fill="#3C0646"></path>
            <path d="M51.4720088,51 C51.8079034,50.9800853 52.1289791,50.8755334 52.435236,50.6863442 C52.7414929,50.497155 52.9538968,50.2233286 53.0724479,49.8648649 L53.0724479,49.8648649 L58.9110867,32.5391181 C58.9703622,32.3200569 59,32.1209104 59,31.9416785 C59,31.344239 58.7925357,30.871266 58.377607,30.5227596 C57.9626784,30.1742532 57.5279912,30 57.0735456,30 C56.6981339,30 56.3424808,30.0995733 56.0065862,30.2987198 C55.6706915,30.4978663 55.4434687,30.7866287 55.3249177,31.1650071 L55.3249177,31.1650071 L50.9393524,44.5642485 L47.2930845,35.3470839 C47.1745335,35.0398293 46.9979166,34.7874416 46.7632339,34.5899207 L46.6410538,34.4957326 C46.3446762,34.2866287 46.0087816,34.1920341 45.6333699,34.2119488 C45.2579583,34.1920341 44.9220637,34.2866287 44.6256861,34.4957326 C44.3293085,34.7048364 44.1020856,34.9886202 43.9440176,35.3470839 L43.9440176,35.3470839 L40.0935785,44.666311 L35.6750823,31.1650071 C35.5713502,30.833926 35.3881981,30.5714571 35.125626,30.3776005 L35.0082327,30.2987198 C34.6822173,30.0995733 34.3315038,30 33.9560922,30 C33.5016465,30 33.0620198,30.1742532 32.6372119,30.5227596 C32.212404,30.871266 32,31.344239 32,31.9416785 C32,32.1209104 32.0296378,32.3200569 32.0889133,32.5391181 L32.0889133,32.5391181 L37.9275521,49.8648649 C38.0461032,50.2233286 38.2634468,50.497155 38.5795829,50.6863442 C38.895719,50.8755334 39.2118551,50.9800853 39.5279912,51 C39.8638858,51 40.1948408,50.9004267 40.5208562,50.7012802 C40.8468716,50.5021337 41.0987925,50.2133713 41.2766191,49.8349929 L41.2766191,49.8349929 L45.509056,40.1913229 L49.7233809,49.8349929 C49.8758037,50.1593172 50.0826631,50.4178013 50.3439593,50.610445 L50.4791438,50.7012802 C50.8051592,50.9004267 51.1361142,51 51.4720088,51 Z" id="W" fill="#3C0646"></path>
            <path d="M108.997092,24 C107.891592,24 106.997092,24.89453 106.997092,26 L106.997092,47.5 L99.3408924,40.5312 C98.5635524,39.82417 97.2041924,39.87495 96.4970924,40.6562 C95.7899924,41.43745 95.8330324,42.7851 96.6533424,43.5 L107.653342,53.5 C107.938502,53.76172 108.461932,53.98828 108.997142,54 C109.528392,54 109.899482,53.902344 110.340942,53.5 L121.340942,43.5 C122.122192,42.79688 122.266722,41.4258 121.497192,40.6562 C120.755002,39.91401 119.430792,39.82417 118.653392,40.5312 L110.997192,47.5 L110.997192,26 C110.997192,24.8945 110.102662,24 108.997192,24 L108.997092,24 Z" id="Path" fill="#000000" transform="translate(109.003024, 39.000000) rotate(-90.000000) translate(-109.003024, -39.000000) "></path>
        </g>
    </g>
</svg>