<svg width="100pt" height="100pt" version="1.1" viewBox="0 0 100 100" xmlns="http://www.w3.org/2000/svg">
 <g>
  <path d="m98.641 62.816-8.6367-1.75c-0.21484-0.62891-0.44922-1.2227-0.71094-1.7969l4.8477-7.3164-7.8672-7.8672-7.1641 4.7461c-0.65625-0.32031-1.3242-0.59766-1.9922-0.83594l-1.707-8.4219-11.121 0.007812-1.6953 8.4141c-0.67578 0.24219-1.3438 0.52344-1.9922 0.83984l-7.1758-4.7617-7.8672 7.8672 4.8633 7.3164c-0.26953 0.59375-0.50781 1.1953-0.71875 1.8047l-8.6367 1.7383v11.129l8.9023 1.8008c0.1875 0.49219 0.39844 0.97656 0.63281 1.4609l-5.0352 7.6016 7.8672 7.8672 7.7578-5.1406c0.41406 0.18359 0.82812 0.35156 1.2461 0.50391l1.8555 9.1445h11.117l1.8555-9.1367c0.40625-0.14844 0.82422-0.31641 1.2578-0.50781l7.7578 5.1523 7.8672-7.8672-5.0469-7.5898c0.22656-0.46875 0.4375-0.95703 0.64063-1.4805l8.9023-1.7891zm-2.0391 9.457-8.3906 1.6875c-0.45703 1.0664 0.26953-0.16016-1.4766 3.3867l4.7891 7.1992-5.5039 5.5039-7.3242-4.8633c-1.0117 0.41016 0.14844 0.11328-3.1953 1.2773l-1.7617 8.6641h-7.7812l-1.7578-8.6562c-1.0469-0.41406 0.15625 0.21875-3.1875-1.2852l-7.3242 4.8516-5.5078-5.5078 4.7734-7.207c-0.51953-1.1836-0.007813 0.46484-1.457-3.3633l-8.3945-1.6992v-7.7891l8.1719-1.6445c0.44531-1.1289-0.3125 0.23828 1.4844-3.7305l-4.5781-6.8906 5.5039-5.5039 6.7812 4.5c1.0234-0.4375-0.27344-0.13281 3.8906-1.6406l1.5977-7.9375h7.7891l1.6094 7.9531c1.0469 0.42969-0.17187-0.33594 3.8867 1.6211l6.7695-4.4883 5.5078 5.5078-4.5703 6.8945c0.42578 1.0625 0.13281-0.20312 1.4727 3.7188l8.1758 1.6562z"/>
  <path d="m69.852 53.879c-7.9922 0-14.496 6.5039-14.496 14.496s6.5039 14.496 14.496 14.496c7.9961 0 14.496-6.5039 14.496-14.496s-6.5-14.496-14.496-14.496zm0 26.953c-6.8672 0-12.457-5.5859-12.457-12.453 0-6.8672 5.5859-12.453 12.457-12.453 6.8672 0 12.453 5.5859 12.453 12.453 0.003906 6.8633-5.5859 12.453-12.453 12.453z"/>
  <path d="m9.3906 30.062 2.8008 9.2188 7.6562-0.73047c0.23828 0.30469 0.49219 0.60547 0.75781 0.89453l-2.2109 7.3945 8.4961 4.5352 5.0195-6.0742c0.32422 0.039063 0.64062 0.066407 0.96094 0.085938l3.7539 6.9492 9.207-2.7969-0.74609-7.8594c0.25-0.1875 0.50391-0.39453 0.76172-0.61328l7.5547 2.2656 4.5391-8.4961-5.9531-4.9023c0.058594-0.37891 0.10156-0.77344 0.13281-1.1836l6.7734-3.6406-2.8008-9.2188-7.4258 0.70703c-0.29688-0.40625-0.59766-0.78516-0.90625-1.1445l2.1289-7.1211-8.4961-4.5352-4.6367 5.6094c-0.55078-0.085938-1.1016-0.14062-1.6445-0.16797l-3.4531-6.4023-9.2227 2.7969 0.69922 7.2344c-0.44141 0.33203-0.86328 0.68359-1.2734 1.0586l-6.9844-2.0898-4.5391 8.4961 5.7422 4.7344c-0.0625 0.48828-0.10547 0.97656-0.125 1.4648zm3.5391-10.242 2.9648-5.5508 6.5312 1.957c0.88281-0.74219-0.31641-0.011718 2.8555-2.3789l-0.65234-6.7461 6.0234-1.832 3.2266 5.9844c3.6445 0.16016 2.7656 0.27344 3.6875 0.37109l4.332-5.2461 5.5508 2.9648-1.9844 6.6367c2.2344 2.5312 1.6523 2.0664 2.1992 2.7617l6.9531-0.66016 1.8281 6.0234-6.3125 3.3906-0.019531 0.57422c-0.035156 0.75781-0.11328 1.4375-0.23828 2.0781l-0.11719 0.59766 5.5898 4.6055-2.9648 5.5508-7.0508-2.1133c-2.3594 2.0664-1.6758 1.3477-2.3906 1.9141l0.69922 7.375-6.0156 1.8281-3.5156-6.5117c-3.0703-0.14844-2.1289-0.18359-3.0469-0.26953l-4.6875 5.6719-5.5508-2.9648 2.0742-6.9375c-2.293-2.457-1.457-1.707-2.1016-2.4766l-7.1406 0.68359-1.8281-6.0234 6.1484-3.3086c0.13281-3.6875 0.20313-2.4844 0.29688-3.5312z"/>
  <path d="m37.734 39.418c6.5391-1.9883 10.227-8.8867 8.2383-15.426-3.2188-10.602-17.59-11.887-22.742-2.2305-1.5547 2.9141-1.8828 6.2578-0.92578 9.418 2.0352 6.6914 8.9961 10.191 15.43 8.2383zm-3.5898-22.164c4.5781 0 8.5469 2.9453 9.875 7.3281 1.6562 5.4492-1.4297 11.227-6.8789 12.883-5.3594 1.6289-11.18-1.2773-12.883-6.8789-2.0195-6.6562 2.9844-13.332 9.8867-13.332z"/>
  <path d="m7.5547 68.664c-0.027344 0.25-0.050782 0.49609-0.0625 0.74609l-4.7617 2.5586 2.1406 7.0469 5.5508-0.53125c0.11328 0.13672 0.22656 0.27344 0.34766 0.40625l-1.6016 5.3594 6.4922 3.4688 3.6406-4.4062c0.12891 0.011719 0.25391 0.027344 0.38281 0.035156l2.7188 5.0352 7.0352-2.1367-0.53906-5.6953c0.10156-0.078125 0.20312-0.16016 0.30469-0.24609l5.4766 1.6406 3.4688-6.4922-4.3125-3.5547c0.023437-0.17578 0.042968-0.35938 0.0625-0.54297l4.9141-2.6406-2.1406-7.0469-5.3828 0.51172c-0.15234-0.20313-0.30469-0.39453-0.46094-0.57813l1.543-5.168-6.4922-3.4688-3.3594 4.0664c-0.29297-0.039062-0.58594-0.070312-0.87891-0.089844l-2.5039-4.6445-7.043 2.1406 0.50391 5.25c-0.23047 0.17969-0.45703 0.36719-0.67578 0.5625l-5.0664-1.5117-3.4648 6.4922zm0.31641-7.4922 4.6055 1.3789 0.42969-0.42188c0.41797-0.41016 0.87109-0.78906 1.3477-1.1211l0.48828-0.33984-0.45703-4.7539 3.8516-1.168 2.2773 4.2188 0.60156 0.003906c0.57031 0.003906 1.1367 0.0625 1.7305 0.17578l0.59375 0.11328 3.0547-3.6992 3.5469 1.8945-1.3984 4.6758 0.40234 0.42969c0.35547 0.37891 0.6875 0.79688 1.0156 1.2773l0.33984 0.49609 4.9062-0.46875 1.168 3.8516-4.4453 2.3906-0.027344 0.57812c-0.023438 0.52734-0.078125 1-0.16406 1.4453l-0.11719 0.59766 3.9453 3.25-1.8945 3.5469-4.9688-1.4922-0.42578 0.39062c-0.35547 0.32422-0.69141 0.59375-1.0195 0.82031l-0.49219 0.33984 0.49219 5.207-3.8438 1.168-2.4805-4.5938-0.58984-0.015625c-0.4375-0.011718-0.86719-0.050781-1.3125-0.11719l-0.57031-0.085938-3.3047 3.9961-3.5469-1.8945 1.4648-4.8984-0.42188-0.42969c-0.33984-0.34375-0.65234-0.71094-0.92969-1.0938l-0.34375-0.47266-5.0312 0.48047-1.168-3.8516 4.3398-2.332c0.078125-1.0469-0.15625 0.078124 0.23438-2.8203l-3.7773-3.1094z"/>
  <path d="m20.766 79.477c0.89844 0 1.7891-0.13281 2.6562-0.39453 4.8164-1.4648 7.5469-6.5742 6.082-11.391-1.1758-3.875-4.6875-6.4805-8.7344-6.4805-0.89844 0-1.793 0.13281-2.6562 0.39453-4.8164 1.4648-7.5469 6.5742-6.082 11.391 1.1758 3.875 4.6875 6.4805 8.7344 6.4805zm-2.0586-15.918c0.67188-0.20312 1.3672-0.30859 2.0625-0.30859 3.1406 0 5.8672 2.0234 6.7812 5.0312 1.1367 3.7422-0.98438 7.707-4.7227 8.8438-0.67188 0.20312-1.3672 0.30859-2.0625 0.30859-3.1406 0-5.8672-2.0234-6.7812-5.0312-1.1367-3.7422 0.98438-7.707 4.7227-8.8438z"/>
  <path d="m69.625 27.324h2.0391v2.0391h-2.0391z"/>
  <path d="m65.543 27.324h2.0391v2.0391h-2.0391z"/>
  <path d="m73.707 27.324h2.0391v2.0391h-2.0391z"/>
  <path d="m9.5234 46.695h2.0391v2.0391h-2.0391z"/>
  <path d="m5.4414 46.695h2.0391v2.0391h-2.0391z"/>
  <path d="m1.3594 46.695h2.0391v2.0391h-2.0391z"/>
  <path d="m10.789 3.0273h2.0391v2.0391h-2.0391z"/>
  <path d="m6.707 3.0273h2.0391v2.0391h-2.0391z"/>
  <path d="m2.625 3.0273h2.0391v2.0391h-2.0391z"/>
  <path d="m42.305 93.695h2.0391v2.0391h-2.0391z"/>
  <path d="m38.223 93.695h2.0391v2.0391h-2.0391z"/>
  <path d="m34.141 93.695h2.0391v2.0391h-2.0391z"/>
  <path d="m3.9492 90.008h2.0391v2.0391h-2.0391z"/>
  <path d="m12.113 90.008h2.0391v2.0391h-2.0391z"/>
  <path d="m8.0312 90.008h2.0391v2.0391h-2.0391z"/>
  <path d="m91.492 9.4844h2.0391v2.0391h-2.0391z"/>
  <path d="m87.41 9.4844h2.0391v2.0391h-2.0391z"/>
  <path d="m83.328 9.4844h2.0391v2.0391h-2.0391z"/>
  <path d="m65.836 3.0273h2.0391v2.0391h-2.0391z"/>
  <path d="m61.754 3.0273h2.0391v2.0391h-2.0391z"/>
  <path d="m57.672 3.0273h2.0391v2.0391h-2.0391z"/>
  <path d="m68.832 12.672v2.5039h-2.5039v2.0391h2.5039v2.5039h2.043v-2.5039h2.5v-2.0391h-2.5v-2.5039z"/>
  <path d="m90.082 31.82h-2.5039v2.0391h2.5039v2.5039h2.0391v-2.5039h2.5039v-2.0391h-2.5039v-2.5039h-2.0391z"/>
 </g>
</svg>