<svg width="100pt" height="100pt" version="1.1" viewBox="0 0 100 100" xmlns="http://www.w3.org/2000/svg">
 <g>
  <path d="m50 92.188c23.262 0 42.188-18.926 42.188-42.188s-18.926-42.188-42.188-42.188-42.188 18.926-42.188 42.188 18.926 42.188 42.188 42.188zm0-78.125c19.816 0 35.938 16.121 35.938 35.938s-16.121 35.938-35.938 35.938-35.938-16.121-35.938-35.938 16.121-35.938 35.938-35.938z"/>
  <path d="m32.344 50.07 14.531-14.531v36.465c0 1.7266 1.3984 3.125 3.125 3.125s3.125-1.3984 3.125-3.125v-36.465l14.531 14.531c0.60938 0.60938 1.4102 0.91406 2.2109 0.91406 0.80078 0 1.6016-0.30469 2.2109-0.91406 1.2188-1.2188 1.2188-3.1992 0-4.418l-19.867-19.867c-0.14453-0.14453-0.30469-0.27734-0.47656-0.39062-0.078125-0.054687-0.16406-0.089843-0.24609-0.13281-0.097656-0.050781-0.1875-0.10938-0.29297-0.15234-0.10547-0.042969-0.21484-0.066406-0.32031-0.10156-0.085938-0.027343-0.17188-0.058593-0.26172-0.078124-0.40234-0.082032-0.82031-0.082032-1.2227 0-0.089844 0.019531-0.17578 0.050781-0.26172 0.078124-0.10547 0.03125-0.21484 0.054688-0.32031 0.097657-0.10156 0.042969-0.19531 0.10156-0.29297 0.15234-0.082031 0.042969-0.16797 0.082032-0.24609 0.13281-0.17188 0.11328-0.33203 0.24609-0.47656 0.39062l-19.867 19.867c-1.2188 1.2188-1.2188 3.1992 0 4.418 1.2188 1.2227 3.1992 1.2227 4.418 0.003906z"/>
 </g>
</svg>