<svg width="100px" height="92px" viewBox="0 0 100 92" version="1.1" xmlns="http://www.w3.org/2000/svg" xmlns:xlink="http://www.w3.org/1999/xlink">
    <title>noun_Upload Folder_2667507</title>
    <g id="Page-1" stroke="none" stroke-width="1" fill="none" fill-rule="evenodd">
        <g id="noun_Upload-Folder_2667507" fill-rule="nonzero">
            <path d="M51.8571966,41.6140741 L51.8571966,64.060222 C51.8571966,65.1318008 51.0249768,66 50.0012624,66 C48.9740804,66 48.1418518,65.1318101 48.1418518,64.060222 L48.1418518,41.6140741 L40.1713187,49.9327354 C39.4470407,50.6883179 38.2701004,50.6883179 37.5458226,49.9327354 C36.8180591,49.1771529 36.8180591,47.9493428 37.5458226,47.1937603 L48.688559,35.5694139 C49.4128368,34.8101954 50.5897772,34.8101954 51.3140551,35.5694139 L62.4567916,47.1937603 C63.1810695,47.9493428 63.1810695,49.1771529 62.4567916,49.9327354 C61.7325138,50.6883179 60.5555733,50.6883179 59.8312955,49.9327354 L51.8571966,41.6140741 Z" id="Path" fill="#000000"></path>
            <path d="M87.5,12.5 L51.4583333,12.5 L35.8333333,0.833333333 C35.2083333,0.208333333 34.1666667,0 33.3333333,0 L12.5,0 C5.625,0 0,5.625 0,12.5 L0,79.1666667 C0,86.0416667 5.625,91.6666667 12.5,91.6666667 L87.5,91.6666667 C94.375,91.6666667 100,86.0416667 100,79.1666667 L100,25 C100,18.125 94.375,12.5 87.5,12.5 Z M91.6666667,79.1666667 C91.6666667,81.4583333 89.7916667,83.3333333 87.5,83.3333333 L12.5,83.3333333 C10.2083333,83.3333333 8.33333333,81.4583333 8.33333333,79.1666667 L8.33333333,12.5 C8.33333333,10.2083333 10.2083333,8.33333333 12.5,8.33333333 L31.875,8.33333333 L47.5,20 C48.125,20.625 49.1666667,20.8333333 50,20.8333333 L87.5,20.8333333 C89.7916667,20.8333333 91.6666667,22.7083333 91.6666667,25 L91.6666667,79.1666667 Z" id="Shape" fill="#1A1A1A"></path>
        </g>
    </g>
</svg>